<mxfile host="app.diagrams.net" modified="2022-02-24T09:53:05.430Z" agent="5.0 (Windows NT 10.0; Win64; x64) AppleWebKit/537.36 (KHTML, like Gecko) Chrome/98.0.4758.102 Safari/537.36 Edg/98.0.1108.56" etag="tq_Jyx7wOxBq0vicxjBJ" version="16.6.2" type="github">
  <diagram id="3RA73tOFFDAoQi5CPjQP" name="Page-1">
    <mxGraphModel dx="595" dy="385" grid="1" gridSize="10" guides="1" tooltips="1" connect="1" arrows="1" fold="1" page="1" pageScale="1" pageWidth="827" pageHeight="1169" math="0" shadow="0">
      <root>
        <mxCell id="0" />
        <mxCell id="1" parent="0" />
        <mxCell id="dJKhebVKaJdOoa_LvXo7-93" value="" style="rounded=1;whiteSpace=wrap;html=1;fontSize=13;strokeColor=#000000;strokeWidth=2;fillColor=#E6E6E6;" vertex="1" parent="1">
          <mxGeometry x="754" y="190" width="116" height="160" as="geometry" />
        </mxCell>
        <mxCell id="dJKhebVKaJdOoa_LvXo7-91" value="" style="rounded=1;whiteSpace=wrap;html=1;fontSize=13;strokeColor=#000000;strokeWidth=2;fillColor=#fff2cc;" vertex="1" parent="1">
          <mxGeometry x="531" y="77" width="160" height="353" as="geometry" />
        </mxCell>
        <mxCell id="dJKhebVKaJdOoa_LvXo7-90" value="" style="rounded=1;whiteSpace=wrap;html=1;fontSize=13;strokeColor=#000000;strokeWidth=2;fillColor=#f5f5f5;fontColor=#333333;" vertex="1" parent="1">
          <mxGeometry x="320" y="80" width="100" height="340" as="geometry" />
        </mxCell>
        <mxCell id="dJKhebVKaJdOoa_LvXo7-89" value="" style="rounded=1;whiteSpace=wrap;html=1;fontSize=13;strokeColor=#000000;strokeWidth=2;fillColor=#dae8fc;" vertex="1" parent="1">
          <mxGeometry x="30" y="42.5" width="180" height="417.5" as="geometry" />
        </mxCell>
        <mxCell id="dJKhebVKaJdOoa_LvXo7-1" value="" style="strokeWidth=2;html=1;shape=mxgraph.flowchart.database;whiteSpace=wrap;" vertex="1" parent="1">
          <mxGeometry x="300" y="917.5699999999999" width="60" height="60" as="geometry" />
        </mxCell>
        <mxCell id="dJKhebVKaJdOoa_LvXo7-2" value="" style="shape=datastore;whiteSpace=wrap;html=1;" vertex="1" parent="1">
          <mxGeometry x="400" y="867.5699999999999" width="60" height="60" as="geometry" />
        </mxCell>
        <mxCell id="dJKhebVKaJdOoa_LvXo7-3" value="" style="shape=image;verticalLabelPosition=bottom;labelBackgroundColor=default;verticalAlign=top;aspect=fixed;imageAspect=0;image=data:image/png,iVBORw0KGgoAAAANSUhEUgAAAEIAAABKCAYAAAAPB4KFAAALxklEQVR4nO2bbYwd1XnHf885M3df795dVLzGBBtju0RxUtmBOi6qqqpx1YAbLIQUqyKp6opEaqqSCJy0aRUhtSlIfGjV0FqgRsKhTmI5VkO2alUFQZQXlFhICS9FkCyGsNCYtbNrr2Mve+/MnKcfzszce3fv7n2Ndyvt35r17j1zzj3nP895Xs/IzPzbyjowqz2BtYJ1IlKsE5FinYgU60SkWCciRdDW3fr/wNKKdNStLSIkvdYyXIf92pMIBHSNUyGdSW1bRKgCKhhjcG6tbpPE/0ySdJ4Oa23TXu1tDbEYsRhjsQakw/34q0RMBREw1hJHUU6GMSvbhbaIcE55+qmnOX78ODMzM+gaVJ4JFUZKI9x+4MPsv+02+vr7EWluHKWVoEtVQYXHjx7jbz//BS5evIhznaqlKwABaw0f/eM/4oEHvsBQcYikiRptyY9QVS7MXeDRRx5l7sIc6hSUNXoJOHCx4/hXTvDicy9AC/qsKRGZHoiiiLPTZ3Ni1jpUoVKJuHTpUktbo+kdXtHYfPG1JGQkhWFIqVRaojyNMRhjGB0dzdtEvNUREQqFAiMjI62vrk34rxS8qKyMFreGS4dbOqAxhjvvvJOJiQl27NhR1xaGIXfddRdPPPEEu3btQkRQVZxziAiHDx/m+PHjbN26tZVptA3V1i1bx7FGtijwZAwODtLf379oIsrw8DDFYpFSqZT3y/pmJi1JklU3xU2thnMOYy1vnznDLXt+h7lfXFpyT19hgE2bNjE1NUVSY02sdRQKBTZt2sTp06ezrySz2v39/YyWSpw9ew5Fe6h7FMQBjpP/fpLf+/3fRU28Yo+mfoSxFpd4PeH32lIzFEVl3ph6I11Itd05R7lc5vXXX1/Uw9+zsPAO0+WFdOu1tpebIxsnHUsUaw1xk6FbkghIRToRHvnnIxw9+jhvvz1dvUmXC8ca7byaSf4K4AQGhwY5cGA/hz9zLxs2XI0NLXETv2c9H5FinYgUTbeGaqrERAjUIE45c+YMCwvlmkSNoeHW0LDBiA4k6XriyyFBsNZwzaZxBgYLuCQmdgkmaDSXKloKulRB8PY/NAGDA4MEtoWu2jz87TViIAgshUII6h+kDWxTrdQSESIQBCEXZ+d49F8eYWLiPzh37hxNlZ5e+Z2nNmBgoJ+9e2/m8GfuY8eObThNmqbWWpaIKIr41y99iX/8h4cpl33MnzQLZlYjJDECAm/87A1mZmc4evQxBocGmhLR0iMzxnD50mW++Y0JyuUIgCRZGoEKi/6WTHesfBnjEz6t3Nv0cuKTVArf/94P+PGPnkekRxkqp45KucLU1Jt5nNAY9U6R1m2NRuLh3SjnsgfWi61UdagWLpcpL0S0knJu6ZutMSQaY6xFMKnyrD7t0sgo73vfb2BtQP0TgrHRUXbv2kUQZJxXJzU+Ps57dr4HI9Lj9LjmFk1V/fhN0HJiRhBUHYrDx6EuVaKWQ3/6Jzz55Le46ab3U7s3hob6+Oxf3sd//tcE+/d/CC+zMSIOSHjwwb/jxImvceO7t6Map+29uByo+twlCWhzc91mOn8p4jhmamqKV155hdnZ2bq2crnMqVOn2Lt3L6dPn84TqaqKiPDSSy9RLBaZnZ2ti2ZXAy05VABnz57jlj2/zYVzF6ud08kXCgXGxsaYmZkhjuujvCAIKJVKnD9/Ph9LRHDO5aH7YgK7XBKZPjIWvn7iq+z70D5iWTnWaC4RIqCKEZ9VstaSJF7UsoVVKhWmp6cbdo/jmJmZmbrPsn7z8/PMz883nUI3ECOel27NZ6Zo+vr7eO/O9+ZWY7UTKc0gAiMjRcauuqolRdyUCP/0hNLICHd97KMUiyXvH7ToI1zxSxSMzwz84e23ceO7f71hijFdHDhFVFp3sRXljjvuoD8c5stHj3L+/AVU12Btw/hEzO0H9vORj9zJcGmYKI7SB1cP7wB6xd1SgSeDix19oc9LigimhTT5FYcGiECclImTijfzBrQREZlEmKAVifD+AyIEgeXChVmef+F55i7M9dgJ6hFcgUJfyE037ebqq68icTFO3fJzTY1BUyJ8+l0JQ8tLL77MvZ+6jxde+B+cS9ZkoUedL/dd+65r+JvPf44DBz7sLccyEL/vW/UjhKhS4d5Pf5bjXzmJJm7tnp4xWdIWrr1uAxMTT3D9DddDg2q4pB4zKq252M45Lv7yIt/9znfROMkqJzUjCmJkCfOSxhC5uRXye/zf9WP0BCp5sv3M/57ltVdfwy4TfWY5dyctbA1EfO4hcVy+fIk8iqyVCFVEzJIKuYigThEjeZsxhoSqmy1G0nRgjyxQzYkeTcBgly8V1JDfltqXZTTO9u3bufvuuxkbG6v73BjDzp07OXToEBs3bqzzSoMgYM+ePRw8eJAwDFfdQWtORBrFeU7rWRURgiDg4MGDHDlyhN27d9e19/X1cc8993DkyBFuvfXWOolJkoT777+fhx56aEnNdDXQVfSpqiRJwlNPPcWWLVuYnJysa19YWODYsWMMDAzwzDPP5PXOzNqcOHGCyclJpqenV90CtRx9njt7jt9aFH0Cubhba/NKd4Zs0Y1CbGttfm+jIwedo6oPxMDJk19j3x98sAfRJ1UNHwYhRrKzEn6jJIkDJP0/m4hHdvKufoH+98Xh+uK+nULSf4jDWoM1AeqAJmnLlk7MOOcYHh7i5t+8GUQxVlIaOrlWQvdnh3zuTHEKQ8VhNmy82qfzm6B59AlYGzAwMMgn//yTbN12PY4VXNZVhvdnlLFfK/HxTxzihm1bV/Qs837tBF2h7eMnP5nk209/m7m5uc72tEKQ8v/YY1/mzam38qaBkQE+/om7KRaLHesLEYu1wi23fIA9H/AS7EuWKz/z9qJPB9aGGDEo2pFQiBMKEpK4hH0f3McPf/hs2gCjG0qcevYUG8fHOyZCxYAmOBeTuAhjBZckWFNYsV97J2+NkLiIRDo/1mExLFQiAhv4qDAf3DurcVQhTuKqJckrRy1CBRH1CRpJ0/mm10eQ0dQr1WzubUM1RgJfkMJSp6WMEwKxWCe5vDlJaIvy7FC6gpXWl7e6mRVZ9Lv4kH81FPGylGVmszYG8NLapdOThvVOHVu2bOby5XfIguChoX6szZ5NlnruzSEzSWsqAg3jmobKUlVxqgRBgFt89K/L4EhUcVGEsQGXf7mAqqRFWiVxEcXicH7sUBUk8H5BNzBiSJI493AbEdFQIpxzhGGYn4qLUi9Q6D6NL0BxaBDnICyEaZEWjPEnXUSEhYUy5XKZQqFA7KKuN7CqEoYhYRgCbRBhrMWlzH3xn77It/77yXTAzjdGFsJfc81GHnzg79l2w3b+7J6/YPKnpxGxCNA3UODfjj3O/PwlPvdXf81bb/0claze2jnUOXbcuIOHH344P0mTryQlpSERAjhNCG2Bn795hueefTH3YrsiQuDS9nkqZQeEvPrTn/GjZ58jCwRGx8aIooQ4Tnj55UlefeW1dMLdn7mKyg4SwahFcF4x17R3XQRuFZkDZgOT1oYcJhCqB1R9oAQOEcXY1Bfohv0aGGPysmXD9oaTrtHSWUap2wRSmjXHaQQkGFHU59JS50dTIhJEXNUp6gUL6Xf7F3Aaj9dYIgREDIENGB8fZ/uObVgxJEmyfPmsCaz1L8Rdd90mBgb7iOIyW7a8i/Oz59OZCsWRYYyFIDRs3nwtUdn5THO3foUImzdf510CdTSKwRqaT6fOi7IzEENSSRA1dHNGMvMKJBCwSl+hn3fmK/jcjAEMgqMw4L3PKFKSyBIIfk93AcWgJqRQsAShwbkYxPlRs/dIlgu6FCUrEBmxNZq2Q1EVrzCdujwQ1CzjXJN5FkkfghgEi3NJ146m5t+laUhes46VrIaft1Qn3KP8gw+gpEplNmbNS6uaVrX9VL0O6U0CLxtF809qsQaruKuDdSJSXDE/ohF8hYu0bmIQV816Z/beSUKn73u3g3WJSLFORIpVJkKqHmd+/rJ3hfF2sKo6IjNlYRj4tJrzbwEsPnVwJfB/nM+bq1wliDIAAAAASUVORK5CYII=;imageBackground=#FFFFFF;" vertex="1" parent="1">
          <mxGeometry x="335" y="125" width="60" height="67.27" as="geometry" />
        </mxCell>
        <mxCell id="dJKhebVKaJdOoa_LvXo7-4" value="" style="strokeWidth=2;html=1;shape=mxgraph.flowchart.multi-document;whiteSpace=wrap;" vertex="1" parent="1">
          <mxGeometry x="110" y="802.5699999999999" width="88" height="60" as="geometry" />
        </mxCell>
        <mxCell id="dJKhebVKaJdOoa_LvXo7-6" value="" style="shape=image;verticalLabelPosition=bottom;labelBackgroundColor=default;verticalAlign=top;aspect=fixed;imageAspect=0;image=data:image/png,iVBORw0KGgoAAAANSUhEUgAAAXUAAAGlCAYAAAAFw2bnAAAgAElEQVR4nOx9W4wk91X+V32/37un5747u7P3XdsJxOCQREF5IBIIgSKkkDyFcJcQPPFCJF5AQQIhFAlIEFiIoESR4r+SKIoQIVHs3GySOLZ3Y+9tdma6p+/3S/Wluqr+D8M5++uaqu6e3bG9tutIo+mue1V3f7/z+853zpF0Xddhm2222Wbb28Icb/YF2GabbbbZdnJmg7ptttlm29vIXG/2Bdj26Jmu6zBj5VRVhSRJcDgckCRpalvjewCQJAmSJPF6ei2uF89JJi63em2bbbaZmw3qtpmapmlQVRXj8Rjj8Rij0QiKoqDf76Pb7UJVVQBgkHc6nRiPxwCAQCAAr9cLv98/tY3L5eI/Ghjoz+l0wul08nsy8b0N6rbZNt9sUH+HG3nIqqpiMplgMplgPB5jMBig2Wzi+vXrqFQq2N3dRavVQq/Xw2AwwGQy4X1dLhc8Hg8AwOl0IhAIwOFwQFEUaJoGh8MBt9uNcDiMpaUlpNNpBINBBnOv14tIJIJEIoFgMAhd1+FwOHgg8Hg8cLvdcDjus4UE9rRMBHza1zgIiPvQrEHc1zig2GbbW9FsUH+HmaZp0DRtatloNEKpVEI+n8eNGzdw/fp17O3toVKpYDKZQFVV9tyBw4FAfE/Hczqd7LW7XC7+PxgM0O/3oSgKdF2Hy3X4tZtMJgDug7DH44HX64WmaQz4gUAA4XAY8Xgc4XCYQdzr9SKZTCIej8Pn80GSJGiaBo/Hg1gshnQ6DZ/Px/coSRLcbjdCoRDC4TA8Hs/UbMPtdsPn88Hlch2hjYz0Eu1DtiidZKS0jNvTYGYPLLY9jEm2pPGdZZqmQVEUDAYDlEolvPrqq7hx4wZ2d3dRrVbRaDQwHA4xHo8ZzAlwCMzF9wCm3hupE6JVvF4vPB4PnE4narUaZFmG0+mE3++H1+uFJEkYDoc8YyDv3u12Q9d1qKrK5ydv2+12M5gT2DudTng8Hvj9/ilAJrD2+XwIhUI8sDidTrjdbgSDQcRiMQQCAUiSxOfzeDyIx+NIp9MIBAL8TBwOB6LRKBKJBA8edH10DXS/TqeTnxVdNw2A9DzpedmgbtvDmg3q7wAjwFUUBb1eD+VyGS+99BK+/e1vY2dnB81mEwAYYMjzFt/PAnTxHGIwlACXwN3n8yEcDiMSiaBcLqPZbELXdfbIvV4vdF1Hv9/HcDiE2+1GNBqFz+fDZDJhb1/TNHi9XoTDYUiShMFggNFohPF4zDMEAnlxgALuzwpUVZ1aRkArzkAIkB0OCW73IUhPJhMeCAKBAKLRKMLhMNxuN4bDITRNg9vtRjqdxvr6OpaXl+F0OnnGEw6Hsbm5iVAoBKfTCUVReF0kEuGBwDg4UhyCKClxNmQ2CNgDwzvXbFB/m5oRnAeDAe7du4fvfOc7+N73vof9/X32iGkbqz/yWum4IniLy8RzG69FpBeCwSB7vrIso9lsMogHg0EkEgmMx2N0Oh10u12mVQKBAPx+P4bDITqdDkajEdM2BHrj8RjD4RAul4t5eEmSMJlMeECgY9FANx6PIcsyfD4fzxwoMDwej6EoCnw+H8cKaKCguAIBLQWWSSVEgxo9Q1VVmQJyu9383CeTCSRJQiaTQSqVmloPAB6PB5lMBtFoFIFAAGtra8hkMlheXkY2m4XH42Gvn8Bc3N+2d5bZoP42NQJ1WZaxu7uLZ599Fi+88AKq1SqGwyGGwyGAaW9c5M9Fz1wEdTq2+NpKAiluQwAHgEHQ6/UiHo/D4XCg0Wig3+8z5eHxeODz+aBpGjqdDiaTCTweD3vuBLi9Xg+SJCEUCiESicDpdEKWZfbcAcDv9yMYDMLlcvEsgICUYgA+nw+yLGM4HEJRFAD3qRxd13kfGjyIzun1etB1nTl5p9MJ4HCG0O/34XQ6EQwG4ff7MZlM+Ph0nzTwjMdjHgCI46dnNh6PeTsaxGhwWFlZwfnz5/HUU09hc3MTyWQSgUCAA9e2vfPMBvW3mREYj0Yj1Go1pllu3brFwETgPZlMGDQIuOnrQIBOwGIG6rOAHjgaIDRTmxBVkUqlMBqN0G630el0oKoqXC4XQqEQotEoer0eOp0OZFmGw+FgusbhcECWZQwGAwBgKSVJLGl7n8/HihtS94ies8/nY8Albj8QCCAQCMDtdmMwGPDzUxSFKZhQKIThcMgDCdEvxjiBpmk8e3C5XFN0kcix0zXQPbpcLp4tDIdDBnafz8czAwowX758GU899RSuXbuG9fV15vtpoBGfvW1vX7NB/W1kuq5jMplgNBrh5s2b+MY3voGXX34Zsiwz0MuyjH6/PwXkwH3lisPhOEKriIoZkVe3Unsc5yslBh2z2SwAoFqtQtM0hEIhxONx+P1+9rDpXoLBIIMueewEnnQvgUAATqcTnU4Hg8GAgZ8oIJ/Ph263i263y4BJ1AwA9Pt9HhS8Xi8DZLvdZjANhULweDxM8XS7XQDg2AFwqPKhfSiuEA6H+br7/T5UVZ1S5jQaDR5IXC4XK3MAoNfr8SyE7lXXdciyDFVVkUwm8Z73vAe/+Zu/iXe/+92IxWK8rQjwtr09zQb1t5EpioJWq4Vvf/vb+Na3vsW8c6fTQb1eR6/XYxAlj5ICbUZvzszLFnXsIlXwoEb7Ez/v8XiwsbGBaDSKRqOBg4MDyLIMl8vFkkaPx4NisYh2uw1JkhCNRpFMJuF0OjkIrCgK4vE4882yLKPVamE4HMLv9yObzSISibAWn64lFAohGAxyIJU8cuLE6X0kEmEQbbfbGA6H0HUd8XgckUgE7XYb7XabqRm/349oNIrJZIJWq8UDBVFMAHi2Ic4ciC7q9XrweDwIh8N8fePxmAPHgUAAkUiEZwCUS6DrOh5//HF8/OMfx7vf/W7E43GblnkHmA3qb1ETAZUAJp/P4zvf+Q5+/OMfo9Vqod1uo9VqodvtMk9MHLIoATTL4qT/Ro8cAFMQFCwU9d5W+5iZ2VfP7XZjeXkZmUyGuXaiSiRJQiQSQSQS4SDqYDCApmnw+XwsV2y1WhgMBgzCPp9vSlkzHo/Z+3a73RxPGAwGvH0gEGD5JylUaLmYPUuUC53f7XbzAEABVY/Hg2AwiGAwyPEMAmRKyvL7/TwId7tdpmWCwSDcbjevm0wmcLvdHHegjF9VVTkGIEkSHwcAkskkPvCBD+CXf/mX8fjjjyORSHBwVfy8bXt7mA3qb1GjxB1VVTEajfDTn/4U//Vf/4W9vT32WGu1GtMRYlKNCL7AfZkfmdWP3Lg/6d1HoxED+6z95xlRO06nE8vLy9jc3ES5XMZwOITX68XS0hL8fj8GgwHq9ToPTgSMJB2UZZkDi3RdqqpO6cnJA6ZBYWVlBR6PB4PBAJVKBZ1Oh6WTKysrcDqdaDQaqFQqUBSFJZXRaBTdbhe1Wg26rnN2rM/n4xgBedNEGQFAp9NBu91GIBBAPB5HNBrlgaDX60FRFCQSCcRiMXg8HvR6PXS7XYzHYzidTiQSCdbiE7VDwE58Px1vMBig1WphaWkJ733ve/Hbv/3b2NraYjrJShZp21vTbFB/ixpRAt1uF88++yz+53/+B81mE3t7e0xBGDXbVnVUjAkvi7wWBwJFURhwRErluGbMwkyn0zh79izy+TwDbTAYxPLyMuLxOAaDAcrlMhqNBgBgeXkZy8vL7OE3Gg20Wi1EIhGcOnUK8XgctVqNOenRaISVlRWmaXK5HAOjy+VCLBZjLflgMGDKhOIM/X6fwV3TNPbA2+02RqMRstks0uk0g36j0WBePZPJIBQKoVqtcjIWzTQikQhGoxEajcYU/UTxg2q1itFoBK/Xy8HQ8XjMiWOhUAjpdBper5c9fJq1UHbuJz7xCbz3ve9FMpnkAd+2t4fZoP4WMgpW6rqO8XiMQqGAZ599Fs8//zwODg5wcHCAbrfL2mnRAyMAFhUo4jorCkbUpBtrpIj7kHySApniMRYx8fgUiHW5XMhkMtjc3ITD4eCgZr/fhyRJ8Hg8SKVSAIB2u41ut4vRaMR0SygUAgDUajUOhJK8kJQm7XYbAFgGSPRFo9FgfXo4HGb6ZjKZcNIUBTw9Hg8DZ6/XAwCmiRwOBwc8ibIRuXGSaw4GA65z4/f74fF40O/3MRgM2Dun6yfZJilugEMaLRQKseKG6B0aoAKBAAaDAVNxiUQCH/7wh/GRj3wEW1tbPIMQZ2y2vTXNBvW3kJEEkQKiX/rSl/DSSy9hf38fBwcHnEwkgrnROxc/bmPhK7MAqRHsjeBO/0mBMRwO0e12+VoW4dfNJJCivHJ1dZXpgtFoNCUzpJmB1+tlNQ95yx6Phz13WZZRLBY50SkajeLixYtQFAUHBwfI5/OcALW0tITz58+jXC7j3r17aLVa7LkvLy/D7XajUCigXC4zz7+2tgaPx4NyuYxSqcTZo9lsFolEArIsY39/H61Wi2cbmUwGw+GQvXUaxEgFVKlUOLgdCASwuroKv9+PbreLRqPBM7FwOMzJVL1ej/l/CopTXICyVXu9Hg9aTz31FD7xiU9ge3t7qvaNbW9ds0H9LWTk0e3u7uKZZ57BK6+8gp2dHbRarSMqFtG7tqJcjJJFUapIYG9MRxe9cPH44nkoSDcajfhYVmakXKyWr66uIp1O4/bt25BlGdFolCmVdruNer0OWZahKApSqRTW1tYQCoWYByd1zdLSEqtXKIjscrkQDAYRCoWg6zpXoaRgKgVKyROnYmGqqqLT6aDZbLJnfP78eQSDQTQaDQbryWSCaDSKjY0NSJKEUqmEarWKwWAAv9+PdDqNRCKBZrOJUqmEXq8Hn8+HbDYLv98PVVVRKpX4WtPpNGKxGBRFQb1eR6PRgMPhwNLSEpLJJFRVxWAwQLFYhKZpSCaTWF9fh6qqLKGkmYHT6cTGxgZ+//d/H+9///tZX2/bW9dsUH/ETfRYe70eXn31VXz961/Hiy++iL29PZbHmVEogDknTt4+SRTNKjeSiQW5SN1BMj+6Pjqv6PWTlJIoB7NZgNV1mmnePR4PVldXsba2hkajgUKhAFmWOSs1nU5D13WUy2W0Wi1MJhPEYjFOr2+1WiiXy+j3+/D5fEilUkgkEnA4HKjVaix5jEajWFpaQjweR6vVYiWNpmmIxWIcNKUArqqqcDgcSCQSCIfD0HUd7XabywJQRik9R6JLaDClZeRpE7XW7/c5MSyZTMLr9WI8HqPZbPJMSJIkrK+vM41DXDspeJaXl9Hr9VCr1TAejyFJEle91HUd9Xod7XYbLpcL29vb+L3f+z188IMf5Lo0tqb9rWk2qD/iRvVJRqMR7ty5g//8z//ET37yE+zv75ty58BRykTMCiXul8DcSH0Yzy0aZXgSSInHFhOXCNwpeEc1UsRqhUYTz282wBCHfuHCBZw6dQrj8ZjjCBTEPH36NC5cuIBisYi9vT1Uq1X2kre3t5FMJrG7u8s0jNfrxalTp7C5uYlOp4Pd3V3UajWoqopEIoHz588jFArh7t27KJVK7Flvbm5iZWUF9XodBwcHaDQakCQJ2WyWQfbg4ACtVgv9fh+xWIxnFYVCgTl58qJXVlbgcrmQz+cxHo/ZO19aWkIoFEKv10O73YbD4WC+3el0ckYp0U80SPf7fVa7kDSz1WqhWq2i3+/D5XLh9OnT8Pl8qFQqyOfz6Pf7WFlZwZ/+6Z/i/e9/P2KxmE3FvEXNBvVH3Ehl8eKLL+Lzn/88XnnlFZRKpanuQWY0i/hjpIQhMYvUyjMmM1sves3RaJQldUYTAZ6Kb5HHbkXFzLoeceDxer24dOkS1tfXWeFDem1Zlnkb4t9JVjgej7G8vMwgRwlZjUYDqqri8uXLCAQCGI1GKBaLKBQK6PV68Hq9ePzxxxEIBNBoNJDL5VAoFKCqKrLZLM6ePcuAvL+/j+FwiEQigfX1dUQiEciyjHv37qFWq8Hv9+PUqVNIpVJQVRXFYhH5fB4OhwOZTAarq6vwer3odru4efMmBoMBEokETp8+jXA4zLkIpVIJoVAIq6ur2NjYwGAwQK1WYwlrMpnEqVOnEAwGUa1WUS6XeUBIpVJIJpOQZRmlUol17wA4I/fjH/84fu3Xfs3y87Xt0TYb1B9BEwOFvV4P//u//4svfOEL+OlPf4pWq3XEO7cKXhKoUoLMcT5qoxpFXA6Aa6FHo1GW+ZkpZABwRucickcjuJtx7slkEhcvXkS5XEa9XockSThz5gyWl5fR7XaRy+WYYvJ4PNja2kIwGES/30ehUOBnRzQMWbVa5botRDnRrEEsx0uzE6oSKTbpIP07UUObm5tQFAWdTodpnvF4jGg0igsXLkDTNBQKBRSLRfT7fTgcDqTTaZw/fx6VSoVnFZqmIZVKYWNjA06nE7u7uxzsjEQiWF9fRzgcRqFQQKVSwXA4RCAQwPr6OjKZDJrNJnZ3d5mvX11dxfr6Oj+vWq0GRVEQDodx7tw5/O7v/i5+4Rd+AaFQ6Egeg22Pttmg/giamOH4wx/+EJ///Ofx4osvMn9u1J4D096srus8NR+NRpYAbWUimJopZ8Tj+f1+JBIJnqqbqWsoQNfpdJieMTvnPN6dlrtcLi4/S6A3mUyQSqWwuroKt9uNZrOJer2OZrPJfPzy8jIPMJT8E4vFuDRBtVpFr9fjhJ10Oo2VlRX4fD4ObFL8IRqNIpVKQZIkLjRGWaBiPRhZllmSSP1ZAfCAQ/XZqS4PzahOnToF4HAwKZfLXLvG4/Hg0qVLUFUV9Xod+XyeryuVSmF7exu9Xg/5fJ6BmurqxGIxBn0qSbC6uopYLIZOp8PUEABcvXoVf/7nf47Lly9PNRWx7dE3G9QfQVNVFbIs4/nnn8e///u/48c//jEH+Aj4zLxi+iipAiBlnQLmlRWtTPS6RY7cODgQr+52u5FIJFjLTevF4Kmu66wXJ7OSSorXacX1u1wuXL16FSsrKywXLBQKGA6HiMVi2NraQiKRQLvdZq9WkiRsbGww8BMn3+v1EI1GsbW1hXQ6jV6vh52dHZRKJTgcDqysrGB9fR3RaBS5XI493mg0is3NTWQyGSiKwtegaRqWl5extbWFSCSCXC6HSqXCpXg3NzdZjXLv3j30+30AQCgUwqlTpxCLxVCpVFAqlTj1n4K+qqqiWq2i2+0iGAzC6/Xyf/LoAXC2KH2XZFmeykIl1U6j0UAwGMTW1hZUVUWz2cTBwQGKxSKuXr2KP/7jP8aTTz7Jg5Rtj77ZoP6ImCgvlGUZt2/fxqc//Wlcv36dS7TSj0qspEjvyYMkT89ImZh9zLO8YTIzT92sZojL5WKVhmjiIDCZTFCv16fq0BiPbbRZ3H4gEMClS5eQzWbZ26WKi61Wi3ltSTpMpSe5YL/fx9mzZ7G2tsbSP1qnqirOnDmD7e1tdDod7O/vo1QqYTgcIhgM4rHHHkMwGES5XEYul2Nd+KlTp7C9vY3hcIidnR2WWPr9fjzxxBOIRqPY29tjrl7TNFy4cAHnz59HtVrlfRRFQSwWw2OPPQafz4e7d++iXq+zVv7ixYtcPoGyaXu9HrLZLK5cuQIAuHv3LpcbcDgcuHjxIrLZLNrtNjdHAYBoNIr19XW4XC6OMYhlF+r1OjY3N/FHf/RH2NjY4BrvNrg/2maD+iNiRLmMx2O8+OKL+Nd//Vd8//vfn6rnQWb8URFgUjs1K0A/jrcunmuWTFJMMPJ6vcyxm+3rcDhYyUHAclyOXbwn0mZfunSJBzOS7AFgSoMCgZJ02EyDqCk6hsPhYOUIJSBRNioA5shHoxHcbjey2SzcbjdkWWZQpUYW586dg8PhQLPZRLlcZgBPJBI4c+YMRqPRFBhTbZlsNotWq4VKpcIeNyljAHCZgV6vh2AwiJWVFc4SrVaraLfbcDqdSKVSWFpawmQy4eXD4RCZTIYbaLTbbVSrVS67sLKygmg0isFgwEXgBoMBa/c/9KEP4eMf/zjS6fRUITDbHk2zQf0RMWo5d+vWLXzmM5/Bd77zHW7iQME5q2QiUnlQJUMR/IzyQCuvXbR58shZyUxut5vriZhto2kaN8IQ11sB+yz9OiUUnTp1Cj6fjyWBmUyGwTWfz3Od8V6vxwFCh8OBe/fucXu7breL9fV1JJNJTCYT7O/vQ1VVnnlkMhmEw2HOVqUSAlRcS1VV7txE3i4FkHu9HpcvoJZ4VEudui1lMhn4/X7OiK1UKhxc3t7eRiwWQ7/fR7VaRalU4qDqE088wZUpScapaRoymQyuXLkCRVGQz+dx9+5dAIflC4iaqlar2NvbQ6vVQiAQwMbGBjY2NtDr9XDnzh2USiVomoZIJII/+ZM/wa//+q8jk8nY+vVH3GxQfxNNVLmMx2Pk83n89V//NX74wx9ycwSzYlv0R3TLYDA4QmGYeefzKBgrNY0RcI30C3HntK/P50M0GoXb7TYdiCgTUkxMepBnR+b1enHt2jVMJhOW9k0mE6yvr+Ps2bNQFAXFYpGTbbxeL86cOYP19XVOZKL654lEAufOnUMsFkOtVmOFzXg8xtraGs6dO4fRaMTHokSgs2fPcrIPVXIkT/zUqVOIRCIYDofY39+f6l6UyWS4uxFVnvR6vVw/nUocGJt1UO0aCopTsTEqCUAVICmRiGq5E5WztbWFbDYLRVGYv6dmIteuXcPy8jIajQZ2d3dRKBQQjUbxF3/xF/jwhz88NROzvfZHz2xQfxONPGlVVbG7u4unn34aX/nKVzAcDtk7N/LOBPIkqVMUheV2JwHqVkFY0cw4dXHw0XWd29BZSS37/T4n4RiPNe+ZiUZZmcvLy7h48SIHZGu1GqfCJ5NJZLNZaJqGarXKNdqpATaVvSW6QlVVxONxLC0tcQCy0WjwgJBMJpFOpyFJEmewjkYjBINBZDIZxGIxDIdDlMtlNJtN9ubpeASu7XabgV2kTBRFQbPZRDQaRSaTQSKR4PMTRSQ2ASFlDiV8xeNxJBIJrhFEFB5wWEzM7XZzkhI9d1LmjEajqVkWSUObzSa2trbwh3/4hzh79uyR76dtj445//Iv//Iv3+yLeCcbtTr7whe+gC9+8YsM6GJg1Ai2pD+nBsZGD3tWkHRReaMZ7WJ8bebZ0zEJSIi+MHr1brebmz4YlS9WZtTCi+embM9MJoNIJIJkMsnVEDudDpepTSQS3CVoMBiwwuXMmTOs4CEVSKlUgq7ruHjx4lRd83q9jnK5jFAohO3tbUQiES6DTLTJ2toa1tfX4fV6Icsy6vU6J41tb28jGAzyZ1+pVFAul5FMJrG8vMzdi2imMBwOsbGxAb/fj2q1ytdWKpUQDAZZ5UPUzMHBAVM6knS/1gwlVZEKptFocNlf0vZTUle5XEan0+H7pR6y+Xwejz/++BQtaNujZban/iaapmno9Xp45pln8NnPfhYHBwdTskUzr5nqdlP2nxmAm3nli3LpRvCmEgBmnvs87t3pdCKZTLJqQtyOgJioDSPNJF73PKN7SyaTuHr1KtemCQQC8Pv9rCiiAZPayIklcyn24PF44HK5uCgWJQoB4IAqceG9Xg9bW1ucpERt7FqtFnq9Hi5evIh0Og1ZllGtVtk7H4/HuHbtGrLZLIN9rVZDp9NBNBrF5cuXEY1GWZVDz+j06dPY2trirFdKZorFYtje3kYikWBVTLVahcPhYPkkceukxU+n09je3kYoFEK5XEaxWESj0YDT6cTZs2eRzWa5smWpVGJJ5NbWFj72sY9xjRhbv/7omQ3qb6K1221897vfxac//WkUi0UAmPJ+jPSGqqqmgG6kWMw+UquCXaLN885FfnwWsIvLqOCWkV+n4zWbzSNBU9HmfT3Fe3e73djY2EA2m2WJYjqdxubmJnRdZ657Mpmg0+kglUphfX0dmqZxzReaBREtA4AzN10uFyaTCTfDpgGB6pZTnRkAXLhL0zQGPpfLBV0/rOUjSRK30iPahGZfFJOgVoFicDYWiyGVSnHVyGKxyMlSy8vLyGazLB0lWkbXdayvr3PGbalUQrPZhKqqCAQCOH36NPx+P88Y+v0+3G43UqkUzxwODg64+ce1a9fwqU99ChcuXDgiYbXtzTebfnkTjAKjN27cwN///d/j7t27DErAUXqDAJAULiJAm8kUjTy1uM08+aAVqM9aJu5rvHaRhqFlolfudDpZiml2fLNArtX5if9NJpP8rCqVCqrVKpe4HQwGrC2nBtaRSATBYBCyLKPT6aDVauHevXtTXvpgMGD1yd7eHnRdZ+6cOPVms4l8Po9IJIJAIIDhcMjcfrvdZp6cAo3VahWyLKPb7UKSJCSTSUQiEXg8HgZQAFN12UOhEA8KPp8PyWSSByefz8dJYclkEslkkjl5mqEQRRWNRvkz0XUdqVQK8XicC3mpqsoJW6dOneK+puPxGLlcDul0GhcuXIDf75/72dj2xprtqb/BRmqFg4MD/MM//AO+9KUv8ZTfrE8o/eio+bLRGzfzzs206VbXYjaAiOcVl9Fr4w9YBGvjMuCQ0iC+2mw9Ad4i3Pq8+3G73VhfX8eFCxe4aBW1eYtEIjh//jzcbjdarRZqtRrq9TomkwmWl5exvb0NTdOYg6YuRltbW1hZWYGiKMjlctxmzu/34+zZs0gmk2i321NNOFKpFM6ePYtwOMz7kFKGpIMOhwO5XA6tVovLGWxvbyObzaLRaKBer2M4HKLRaHCRLspqJUlju93G0tISVlZWIEkSCoUCt9kjfXwymcRgMJhqp0edoXw+H5cgoOJeXq93aiYi1r1xOp3s/f/Wb/0WPvShD/FnbwP7o2G2p/4GG+mln376aXz5y19mLbpYD10ESVK5GAF9lppF/Jv3Q5sF6sZt6LUVqFsFU0nhEwgEpu6R7tnlcnH9cONxzO5t1j1RzIGaOUciEfj9fqY6Dg4OOLhIoOZyubg0gCRJXAuGyh5QjRWXy8XVD6mxc6VSQa1WQzwe5yqQADAcDpmyoLK7tA959OQFUwq+qqooFAooFFJO3ykAACAASURBVAqs2KFyD+12m0vkrq+vc9CWJJQHBwfcnBsAms0m2u02d27KZDJwu92c/LW/v4+dnR04HA5EIhH0ej00m030ej3s7e2hVCpxvkGz2UStVkO328XBwQHnBzQaDVy6dIkLoNmg/miYDepvkBEgdbtdfPOb38Q//uM/MncpApyRcxbL5Vp54yLNYgT6BwV1q+3M3s+jbGh2Qgk5xloyLpeLB6/jDERmy4mfliQJ8XgcLpcLfr8f8Xic6QUKRjscDoTDYcRiMcTjca6hEggE4HK5WD3j9/sZ+DOZDHw+HyKRyFR9lVqthmw2i1AoxAFESZLQ7/dRq9WQTqeRTqe5PyrJK5vNJlZWVqaSekajESqVCiaTCVZWVriZB8k1q9UqN5emaxgOhxzQpMxRCnI3m00UCgVODAMOnQsKuFKJX6/Xi8FgwFTSwcEB00IAuEcsJT9pmoZwOIzNzU070/QRMhvU3yBTVRWTyQSvvfYa/vZv/xalUokVIkbagkCLvDRRqjiLZlmEcjGzWcAuBjfFYxsHFHEgMjMCdgJMI/VDGmmxfMCsa51lun5YNoFmBsVikQOcXq+Xk4cURWEqIZPJsOdOrfio1ye1m0un00xHSNJhb1LirFOpFH8GVOAsnU4zT04gHwgEkEgkEAwGEY1G+Xn5/X5EIhGEw2GmR6gA2traGgKBAM8QaMYxGAxw7tw5vm7gMKi7v78Pt9uNs2fP8j6kmy+Xy8hms9zvlPY5ODgAAGxsbCAWi3HDbJqJkNySmnG0Wi1WxvzSL/0SotGoDeqPiNmc+htkqqpib28Pf/d3f4evfe1r/CMUE3lEwFIUheuTiH+i6sUqYPqgoG52HUZQF5eJ+1oFWY0cfTKZ5KQk47pGo4FGozG134N8PXX9MElreXkZp0+fRr1eR6VSgdvt5mYY5HVSB6VAIIDHHnsMkiRxkJLoFa/Xi/Pnz8Pj8XDgU5IkrpS4sbEBAFxemGYLkUgEiUSCa/pQQJS8XwpIUi0aTdPgdrvh9/unvHZqXUecNj1/sdY7lWSmkghUcldVVc5YbTab3Mf19OnTnIREVA21trty5QocDge63S7LMFutFhcN63a7qNVqKBaLKJfL+NSnPoWPfOQjSCQSx/6sbDt5sz3119EIkEiW9sUvfhHPPPPM1I8UOAqABAJm/LmVp25cZ3U9iypaFuXUrfh0K69/MplwSzYysccqSTYfxsRZTSwW49kQ0RqKonDNc5IqUlBV13X2OsmLpwQc4LB2ClWEpOAjVVAkNYmiKBgOh6yuIfqGPtfBYID9/X1OmJIkCb1eD4PBAN1uF/l8HpPJhCmNbrfL66mSIlFIFJilzk9EH3m9Xlb50CwxFotxAhYVQHM4HAgEApy9GovFWGHldrsRiUQQi8WQTCa5jaHD4eBiX1Sx8uzZs1x8zPi52/bGmg3qr6NROdzhcIif/OQn+Kd/+ieUy2V4vV720EUunTxxSoZ5GEpF3MdIi8zix83MCvSPw6vTMvIqKaAoBk2JnyYwfVhgoBIC29vbDJ7Ur7NcLiMejyOTyUzVMqEsy+XlZaRSKQYx0oT3+31uTE2fD2VaUjExahJN9E4ul4PP5+NaKzRDoMSjcDiMlZUVdDoddDodVtn0+30O9lKdmVarhXw+D03TEI/HObGKEoWKxSI8Hg9CoRCrWkiGSE1BqGVep9PBaDTiwSyZTMLpdPI6aoBNjVCcTieXLqYBIZPJYDAYQFEUXL161bRekW1vrNmg/jobNTX4m7/5G7z22mtHAqNk9JpazxEAWSlejCBvXG41CCzqqYvLH/QHakbN0MDl8/mOZJpS+YB2u83bPgw4UOXLVCqFcDiMSCTCwVqXy4VcLscBUqq7TpTEq6++Cq/Xi2w2ywoZUuns7OxA0zSsra0hGAzyflR/3e/3c2lcWndwcIByuYxMJsPHpAEjl8uhXq+zSgYAe9q7u7tcMMzlckFRFLjdbpTLZRQKBcRiMcRiMU5GAsCNP5aXl+HxeDi5q9Pp4N69ewCAVCoFt9uNbreLwWCAQqGAUqnEqiBd11lnv7OzwzEJmvEQbZXL5RCJRDAYDKYCvja//uaZDeqvo2mahkajgS9/+ct45plnpmqPi39kpHQBZnPjD6JJB+Yn74jHtOLEjdvOe212XBq0gsHgkZiCJElT9NNxQd34bMhbpyQiqvkeCoVY5kdGVQ2pIJbYn9Pv9yMQCCASiXAFSlofCAS4rK7P50O/30cqlYLH4+HAMMVQqtUqUqkUD2r0NxwOUSgUEA6HOaBLFB0pTigwS7MaXde5oxLRKuQp9/t9lMtl9sBFOWm73Ua9XudgrcPhYHqoXC5jNBqxSohmVsSju1wuRCIRTCYTnlU2Gg30+32oqop3vetdXEXStjfHbFB/nUzXD9PBv/vd7+Izn/kMut0u/3iA6UQdmt6Tp0UBsHmc+aLyRaOnvIi3Pg+szQKoZucT+W3xuonjNZNyUrnZRUobiMe0svF4jFAohPF4jFqtBr/fj3A4zBw+BRCpByjVhSHPnD4bUqBQBUqx/yjx0uFwGOl0eur5hEIhRCIRxONxbnRNHnw0GkUwGEQ8HmfVC81YQqEQAoEAAoEAq24oI1WcIVDP1c3NTfh8Pp4FEEjLsoytrS34/X4G6vF4jN3dXa5wGQ6H+Rl2Oh0Ui0XEYjEsLS3xjGo8HqNQKLDUkmY3wKEu/t69e/j5n//5I4OlbW+s2aD+Ohk1DP7c5z6Hl19+eSpjVPROqaYLVVw0qliMtAvZLO98ngLmOKBuxcvTsuPQOeLxqCaKmGZOfy6XC8PhkNPk5xndr9l5yVv3+/0IBoNot9vI5XIYDAbMIZMCpdfrIZfLYTweI5FIcJB0NBqh3+9jd3eXg6y6rqPVanHg8+DggIPAANBqtbjrkBjcpIxM4qzb7TZz4OTNE71BDSrS6TRisRjz5KRoSSQSnPSUSqUY+CmDl0A5Go2ycoakk1TJUpIkppdowKD3/X4f4XCYZylutxuBQACtVgvdbhfpdJolk7quc8emq1ev8szItjfebFA/YSPlgCzL+MpXvoKvfe1rUBTliEcqAiTx6MBiYG6lhDGuF23R4OgspYsI8FbHM1tu3I+2IYAU68KI+1AnoVmAPet+xGUOh4O15B6PB/1+H4VCgUvyUvKTy+VCt9tFoVDgACEFb4FDL5a8fVKRkEyQqiaS9001y4mz7vV6XM+cvP/xeMxKmEgkwoF14LDezN27d6EoCoLBIJ+Luibt7+/zrMLpdLISptvtotlsssLH5XIxEJNUk/TwVCaAvoM+nw+hUIhLFIvF42jGQbJUGjDFxtjdbherq6tYXV3l524HTd9Ys0H9hI1+qPl8Hn/1V3+FRqPBRa2MX26iXcx49Hke+CzvfZ6ZgbIInGYgagx6WoG92T5W4Evt4ojvJSOaigDM7Nji/S8SK6A6KNQsg45BHvbKygq3nyO6oVQqAQCy2SxnvRIg5/N5rkBJ0lTywvP5PILBIMLhMGcDE6VEqhu/38/FxVwuF+r1GtrtzpTKpNfrwel08uyBGnMMh0NMJhOMRiPkcjm43W4Eg0G+L2rjV6vVEAwG4fF4WEZL+RK9Xm9KPUNgv7e3x947BZqpZ2mr1YLH44HX6+XPR5ZljoFQz1QAXMHRLh/wxpsN6idsun5YK+Tpp5/Gc889B13XWQ1gBC6iXYz7m3nqxkQjEdwX+dFYecuizfKGrfYRtzFT6FgBr7ic2rYZeXUqWGU2iMzz0kUjT3M8HmNjY4PT+GnwoOYS6+vr3P6NjlsqlVAoFDirlKgzl8uFfD6PZrPJNIjYDYgonmw2i0gkwvenqipyuRxUVcXm5qbAjR/WcqESzFQTRlEUeDwelmGGQiHukkSDBVWiFBUtVPudygBQwa9OpwOn04lOp8NSS1Ks9Pt95uHr9ToSiQTC4TA35e50Otjb2+N4CNFkiqKgVCphb2+PPfi1tTUeDG1Qf2PNBvUTNAKO5557Dv/2b//GdbZFkKAfPW1r3N8KsGYFRUWKY5aUcVEKxmy/Rbe1Oq6ZGoLulWgA4z1RH04qHWB8Lse9LgIjytokb3ppaQmpVIrLF9DsgaiGYDDI10fla71eL8LhMKtrAoEAq12o0qEsy2i1WlheXp6KH4jc/sbGBtMn1IOUCn5RiVyXy8XrqddqOp1GJBIBAC4dkM/n4XA4kM1muTmIz+fDcDjE7u4u3w8Brc/n49Z/RKlQPXdN03jwWVlZgdfrxXA4hM/ngyzL2N/fRygUQiqVQq/X42dDzTZ0Xccv/uIvcrEy2944s0H9BI3Ktv7Hf/wHXnrpJfbcjNQFKWMWoV2sFDAPSr2QLRLMNIL0LE/deJ+LHFscjMhbF6+PPNvBYHAsJcwso2Bht9tl+ofaB4rcMnHFxDFTpUlR0UJ1XKgFHs3KSF0Ti8VYVULrgsEgK2gos5ZULDQgEG0TDoc5U9XtdsPlciEQCHBCEBUgI0WV2+1Go9HgvqyUVEUzkmKxiEAgwB79ZDLhmjuVSoWvmWYVpKyhpKVIJMKfta7rKJVK0DQN2WyWS/06HA40Gg0Ui0U89dRTXFTNtjfO7Kd9QkYyvR/84Ad44YUXpugEYNpTJrUFcJ8aoD8jeJl571a8+qJUjPE4dH3G4xjXz6M8Zq23AmVd1zmL0si/EjVDXXoe1ogaI+Da2dlBMpnE6dOnmaumGVSpVEIoFMLW1hYURZmSL3Y6HW4VR9sT5UHJQUQ90LrJZMIKmHg8zooXmonQOqoVk8lkMB6PMRqN4HQ6EQqFmApZXV3l7w3JImngoc+OWvfF43EG4+FwCEmSMBqNOLFqMBggFotxExCSS1LFRr/fj2aziWKxiKWlJSQSCZZe+nw+7O7uQtM0bGxs8AyFiod961vfwsrKCqt6bHtjzC7odQJGnGOj0cAnP/lJ3Llzh/lOM4qA5GpmgG7GSc8CcbP/88wKkGctN1PFzFPZWL02Hh8AlpeXkU6np9reke3t7aHb7c5UwixqLpcLp0+f5sAnpcpfvnwZwWAQzWYT3W6XufbxeIwnnniCwZyaUxSLRWiahscff5xpIvLyd3d34XA4cOXKFbjdbsiyzDGUW7duwePx4MKFC6xKIYVJPp9HLBbDmTNnoCgK2u02ZFmGJEmo1+ucjaooCre4oyzTaDSKZDLJgUtS0JB373a7udyuOFsi+SLVh6HvoMvl4gCrOMiTZFKSpKmKmrSf0+nk1nzBYBB/9md/hqtXrzKdZtvrbzb9cgJGQaSvfvWr+MY3voHJZHKERycjL90I5MDRICktE9cZlz2oLaIYmbWtFbjOA2+r41N/T7OWfpJ0WPBqXhONeUag5Pf7sbq6ykk+LpcLlUoFALiZBXUB0nWdMzPF4CAl8ZRKJc4qJbUINdeg5s/BYBDD4ZDVLOPxmKtGkmxwPB4zyFerVaZ9ROqiVquh1+sxf0/BXkoKGg6HCIfD3Hhb07SpxhZU/bHT6WAymWAwGKBYLHK7QQA8a6LWfUT9TCYTdLtdDIdDvheiflRVZQUNzXb8fj86nQ5XyiQe3+bXX3+zQf0ETFVV3L59G//yL/+CarU6k3ahJCOjlw7M9sRngftxfyhmg4HojVmB+qx1i57PSgVDQCAW+qL/5AkTffCwpus6VlZWOIkIAHw+HyqVCprNJtdMIQWO0+lEvV5HvV7nwKYkSQyq1BWIqAbiqgFwxUVaR/SMrt+XU2YyGU7Tp2Pv7e3B5/MhlUpx5yu3282JTsFgEOl0misx+v1+bs8Xj8cRCARYP+90OlEsFtHr9ThDlIpwUTVJKkZG1Sk1TUO73UalUuE4gPidPTg4QK1W43K71Dd1Mpkgl8vxwDcej3Ht2jUuqWCD+utvNqifgMmyjP/+7//G//t//29KlWH0TMTprdGsvG6roKXx9XHsQXj3RdUzZgOAVQBVpHaIHyZJoQj2RDEQl73oNc9aL0kS11ihgGIoFGIOm2qzkCdKNV06nQ5isdiUqsPn83E2qqhKAQ6VLq1WC7lcjssI0D0EAgFUq1XUajXOGCULhULI5/NoNBpYWlriptKkojk4OIAsy1P6ekri2t/fh67rWF9fZy+bNOT7+/tM1ZAKKxgMotFooFQqIZ1Oc9NsCpbu7+9zli1w6M37/X7WvFOJhPF4jE6nw63uqFzx+vo6Njc3bc36G2Q2qD+k6bqOnZ0dfO5zn8PBwcERTbpZcNQYFLWiXMRziK8XpV2sPHmz5bMkgrM4dLNzHoceEgcBAJwFSecUSyoQXzzv/PPOp2kae880mBC4UxCTzOVycdZrMplkegMASyOpSBhVgSQwJHqCtqG66qRoIb6beGoKQJKXLwZSKYWfZJc+nw/tdhu9Xo/L6dIz8/l8XOc9lUoxHUTFw0qlEsbjMcsbSekDHFZ4dDgcSCQS8Hg8PKDJsoxarcYFz0jKeZg4VecywTT7ERO4XC4XnnrqKbvl3RtktvrlIYxkbt/4xjfw2muvmXoiBDJGQH8QjvxBOXTRa543IwCOT6mIZnUeK2pHtOFwiE6nwwk5opEqQ2wnZ3VNs85DA+lgMEC1WmVKbHV1lb1aipEAh3JAkiYqisJcNNEosViMaQeahVHCEIE5Bc3p2qlqI3HqYjKRJEnMmQNg71isQ0/AHo/HOcDpcDi4fsxwOGT6hWgQilcQqLbbbe5x6nA44PF4eD2V06UAKzUB6Xa7+MlPfoL3vOc9PMgA4IbWN27cwBNPPDGVZdtqtfD8888jl8vh3LlzvNy2189sUH9Ao1ohpVIJX/va11jhYAYmopcuGnmNZmblrT+IAsQKaBcBeKvt5p3fiiYyUi70nqiAVqvFHLO4LZV8bbVas292zrXROlK+LC8vo9Vq4ac//SnOnDmDTCYzVbSr0+ngxRdfxMbGBksJCbz7/T7u3LmDbDaL9fV1rslChciazSbi8ThWVlZ4HWV0EiWSyWS4Fjq1wtN1nStCOp1OKIqCXq/HgwOV+dV1nZUuVEuGEqXo2VKzDtLIh0KhKb29OEsgyeT6+jrTTm63G+l0mptTZ7NZdl6o7gwFaElJRHJNSoqaTCZ44YUXsLa2xh68TcO8fmbTLw9ouq6j3W7jq1/9Kp577rmpol3ANHgQZWDW9IKOZeatG7cT7UF+FMcdDGbZcUDd7DrEbcRBR9M01kkbg81ut5srAT7orMU4wBAlQoFS4szFgKHf70er1UKj0WAPlbzuQCCAZrOJZrOJZDLJ3j7V+6lWq2i326yqEfuMVioVdLvdqZZ7tH5vbw+j0QjhcJjPR4C/v7/PAw8AHkQmkwn29/f5GZKEkQYaUuPQgEC1Z/r9Pnq9HjcQkSSJ11HnJKp97/f7eYCiEheUJBWJRKaEAKSv9/l8aLVa+Lmf+zme2dig/vqZTXA9oGmahnq9jm9+85sYDoemgE7bmQG50YzbmClhFvW0zY437zyL/B3HFr1P0ei5tdttntmIz5TKwz6MiYNnv99nrpu85uFwiJ/97GfQ9cNepYFAAH6/H/F4HKPRCLdu3WJdOFEopFB55ZVXpkoROJ1OLC0tQZZlpueoeiMAJJNJ9Ho93L59m4Ozk8kEsiwjHo+j0Wjg5s2bnO5PRbyi0SjK5TL29vYYaOmevF4v7t27h2KxCJfLxdw+lTl49dVX0Ww2IUkSX084HMZwOMTNmzeZyqEsVJ/Ph2q1irt377LnT99pauOXy+V4oJpMJtzEulgsYjQasZqnUCgw6Nv2+pntqT+gjcdjvPDCC3j66acBTNdIFz1PY90SMw/9uHz2LDMeyxjkNFPnLPo3zxbx3o3Px4qyIg/VuD1VMKSqg8d5HkZTVRXBYJApBSoboOsabt++A6/Xi0wmwzRFMBiErh/K+YDD6o3klZL3m8/nAQArKyusSQ+FQlAUhUvlUgEtCoCORiPs7OxwLRWiPiiGcPfuXW7+TPQPlTrI5/OIRqNIJBKcGBUOh1EqlZj+CQQC6Ha7/Fypn2o6nQYALprmcDhw9+5dAEA6nWb9OdVWr1QqU5QR1cQvl8t8LpIuklZ+f38fsixztuy5c+emevTadvJmg/oDWrlcxmc/+1ncunVrqhKdCEL0xZ+lcpkVNJ3Foy/i7ZwERfGgNkvuKJpZr1ZN07i2inEdlbA9Kc06AG4WTbpzr9fHXjipU8TaJm63m/XgFGCkZ+3xeLj0LnUaousMBALsXUejUXi9Xh6cSMKoKAp7+tT2LxKJcJ/QpaUlHkjIC8/n81BVFdlsdur5UdDT7Xbz4DQejxEOhzEYDLC7u4tYLMZqFkmSkEgkUK/XUa1Wsba2Br/fz4lYJKUkTT4FiP1+PxwOB/b29uByubhnKtE2g8EAlUoFTqcTjz/++FS1S9tO3mxQP4aJAPzcc8/hC1/4Akaj0RHqhTxj0UtfhMIw0iRGW1RW+LD2oB6wcb/jvDdSVhS4M/74JUniwOGi12g1E6LnScW1JEmC1+tliSJRHjSYUBVG6m8q9pwlPpqaZ9DxALAUkao5knSRKCXi0Smblu6b9pOkwwqI3W6XOxFRwJH2LRaLTBeRTJGOf3BwgFgsxl2KSMIoSRIKhQLLMek7S/Vb8vk8QqEQ8+lifKHVavF9UuDV4/GgWq1yk2oqTUClEqrVKs6fP48LFy7YvPrraDaoH8N0/TDNfDgc4p//+Z/xyiuvTFViFL+oxnIAi/Dhs2R6VtueZPBz1nmM1zKPnplHKZnFH4x0USQSYc02bUfgQrVgzM5ndi4rECEKKBAIoFKpQFVVbqysqiqazSYGgwH3TKXephRMJHmjJEmsViGvnhqJi82pI5EIPB4Pz+BoNiC2oAMOBzbSzlPVxXQ6PRVQJXCnyotUOEssf0ADlJghS9JFGlhotkH7AGBJJHA/EErPPhQKoVwuYzgcMnVFtW38fj8qlQpkWeZepXSvxWIRiUQC733ve3lQsu3kzZY0HtOGwyFee+01vPbaa6xHNgIGgb8VzbIo/fIo2KyAJ9lJ0TXicai+CNEX4uBFwU3iiR/GdF1Ht9vl7kFUPGx7e5uLUhH/ffv2bRSLRVy+fJmBirjjnZ0dOJ1OnD9/HpJ0WCWRqjoWi0U4HA5sbW1x7Zh2uw2Hw8H3uLGxAUVRoGkaKpUK6+WpKQYpTaglHYFxOp3mioxUToA8amq2TV47fc9I8z8ej5l6IbUOKY90XWeNPNGHgUCABwLq4UqdjqgmPtFHuq5zUFSsCZ/P57G3t4ft7e2pJC/bTs5sT/0Ypus6ZFnG17/+dXzve99jGaMYJCVAF0Fd3H9WkPS410LntFp30mZ1znn8+SKeutGbpmdJwCJuQ14hJQgtco3z7ocKcoVCIZYvhsNh9lgp4Nnv99FsNhEIBFjXTYO7oihoNpsMqEQVeb1edLtdLtQl0ieUok99T8ljJsWK2PeU6B4AXHOmXq9P9T2lKozVapWLf9G6druN8XiMer0OWZb5GmkAHQ6HaLVaUzVoFEVBt9vl8sNEC9HnQ31kiYYUs2YHgwErZsS2hdlsFqdOnTpSvM22kzE7WnEMI8/k29/+9lSykRFExWa9xnK6dByzYy/qpc/a/2EHi1k2i8I46fPQsyaQEs9LgUYCOTNaaNHzAPdzCagq4vLyMhwOB1599VUMBgOuh0JdhTweD27cuAFZlpFIJBAMBuFyubghxPXr19FutxGJRFjpkUql4Pf7p/ajCoukU7958yZ6vR43yB6PxyzhfOWVV9Dr9TgzlGgiRVFYZknqE6KJOp0Obt68yXEDuk6fz4dyuYxXXnmFqSHKfvX5fMjlctjf32fqx+/3cyelGzduoFqtsh6fnJjBYIDXXnuNa7KT/LLf76PVamFvb48HsuvXr2M8Hr9u39N3utme+jFsNBrhxo0b+OxnP8tTWqN3KSYbkc0CW6svtnEQeBDu/I3ygOZ5xw/qqVP2JFEw4p/D4WAP8iTM5XJhdXWVS+p6PB54PB7s7OzwjMHr9XJ5gHA4zHXzjUHBUCjERbWWlpa4RADp7O/cuYPRaIS1tTVWkBA3ThJAajoxHo/h8/kQDAaxv7+PyWSCtbU1poQoIHvv3j0A4Jot4/EYfr8fuq7j3r173J5P0zT0+32OG9y5cwfxeBw+nw+j0QiyLCMcDnPJ3kQiwUlfqqoiGo2iUCig3+8jnU7D4/FwSWGPx4O7d+9CkiR+JsBhGQFqqUdB2Pe9731cDsJWwpys2aA+x0TvudFo4Omnn8bLL7/MwSqxEQapBxYNjh5HligGRueZWRDy9bZZHvJx6BkjsEuSNFVXXFxPiTon0eqOOgoRBULFqkjSR4W8qP0d8db1ep29YJEj9vv9aDQaUFV1CuAoANxoNNDr9bgxCAUhqapjo9FALBZjYNZ1nbsQNRoNRCIR7iVKmZuNRgPdbpdVMGKdmWq1itFohFgsxvvRwEWcP9VsoUxZAKhUKvD7/VM1bkimWK1W4ff7EY1GWQFD9FWn00E0GoXT6cRwOORnSXTSk08+iaWlJQ7A2nZyZgdK55gIznt7e3j22WctO6RTwMnY+MLsv9W5Zr0Xl1sB6OuthjlJo2udBfqyLHN8QhzYiFIgGuBhroG4Ya/Xywk54joq+kWgRooZ2oaujySNRBmR7FGSJJ5xUACVao3TfqSL7/f7WF1dRalUAnBfDjkcDjEYDOB2u5HL5dDtdpFOp7mcQb/fRyqVQi6XgyRJOH/+PCdqaZqGdDqNg4MDKIqCc+fOcREuiifk83mMRiOcOnUKHo8HnU6H5ZM3btzA1tYWq1kGgwE8Hg8GgwFu3ryJK1eucEVJSZKQTqfRaDRw/fp1XL58GZFIhAOqqVQKN2/exA9+8ANcunSJm3PYdnJmg/ocIyBRFAXf//73uVO6+KMmM5bXJTN620Y1wqLSvEXtrQLsVrJIozc+Go0sVTDUS/MkrNfr4amnnmLv3Eib0edGn7MYDKfPncCf3lMgVaTQKIlJAfh3hQAAIABJREFU0zSu/KhpGiKRCC8/e/YsdxGiLFGy7e1tAPedCKJVqNokmcfj4QqTxM/TNXg8HkSjUZ7tUC9W2o8yVBVFwenTp9Hr9RCPx7l7kizL8Hq9SKVSuHXrFi5evMga+X6/z6qa27dv49KlS1yyoNvtwufz4eWXX0a1WmUJp20nZzaoL2CTyQTVahU/+9nPuO2YmS6bpqBWIH3S4G1mbyaYG+/JKqhqpIfMlonb93o9VmqI2xG1YBasXuQ6RbUSBRx/53d+B1tbW1MBbqtessZtxAqORAkR8Bu3peswU0pRXIb+0+xP/A+ABx4aJGgfscOW6DSI+9H5xesSK4lSHEH8jOi6NU1j0BabXZPXTwHcpaUllkpKksT0FQVdc7kczp49u/DnZttiZoP6HNP1Q73t3t4ednZ2LPlf+sEZ9xVpF7PgJx3n7aACEJ+N1f2YySFnDUQkqzMek2iNQCDAQcNFzPiZULVFVVVRq9Vw9+5dXLp0yfSzM4Kk2Wdrto34WgRO8bVZ03HjgGD8T16/eCyrgci4ju5ZHIxEkBbvTxwoqH67eCyxAbU4SxHvg3T3ZNTP9K0wo3yrmQ3qc4xA5fnnn0e5XD4CQvTFpy86LZv3Q3+72zygnvVHRoCQSqUQi8XQbre5yQKBGumizfICZpkIRiSN7Pf7ePnll/Grv/qrlkBO5zb+nzUAWG0vUnBmz4wqH9J29F48DoE61Z+nezO7LuNgsGhNolnXbXZvxgHCODuhY1CA1e5derJmh53nmKZpGA6H+MEPfoDBYGAK6LOaYIiv56lSHgbsrQabkzYz8DX7UYrbiddidp3iD554a9rW5XLh2rVr+OAHPzgF6GTUkGGWGQFKURT0+32W01HKvK7r2N3dRaPROCKVNKOKRKA0O89xPwOr44jnN247T1lkXC5+Hmafmdn2ZucW/wjARc+fnhP9GauY0iBKcQPbTs5sUJ9jiqIgn8/jZz/72VTHGOD+j4C4TGAacMymwPPsrf4FN7v+WXw5cN9Tph+/6M3FYjG8613vwuXLlxGPx6dAibxXsdGz8fhGOkKSDjMaL168yJ8lpbA7HA5UKhXkcrkjgVIz/tzMCz7On9k+D3IcM4CdFROw+j4e12M3eulmr2cN6J1Ohzs62XZyZoP6HBsMBvje977H6dAiQNEPxqh4sZqWPowX91axeV6iaGKJBStvf319HdeuXcPq6iq3WTNuQ6oL0cwAh5pNf+xjH8Ov/MqvTDVrJnBvtVq4ffv2kWJsRsC0AmQzwJ+17yLHsfrOGAeYWQOEWXDX6k+87nnf43nHM3sGtHwwGKDVap1InoFt980GdRMTv6z1eh0//OEPAZhPR+kLKk7JxWVGmd486sXIsxpt3jHE6e68c4rXPWv9rPte5PrEH7WZ12727IDDAlKXL1/G0tISIpEINjc3TUsDUDVCI9dL56PyuVeuXMEf/MEf4PLly1hdXeWa43TNVBTrxo0bUzES8drMgNXqWVh9F6y2m+XVzgJNq+swUl/zAJqWWQ0m8+51non3QxLMQqFwpO+AbQ9ndqB0hqmqit3dXezs7AAwB0Aj9WL2YxNfP4yHbvyRvpl2XC7X+N8K5ESAT6VSePe7382VAy9fvoxvfvObR/ZxOBwIhULcU5T213Wds0GffPJJfPCDH0Q8HoeuH6b2Ly0tcV124usVRcFLL710RBJoBW5Wr410nNGzJRNlgmbbz/KgF/GkZ+07b3uz77XZtS/qqRtfk1TY+ExsezizQd3CdP0woHb79m2Uy2UAR71Lol7MvpCzPKRZ2y5qxw2KmgGo0TN80PMvut7M67eaAbjdbqytreHixYtc73trawsejwf9fn9qe4fDwdUORXmdqqoIh8P4jd/4DTz22GPcHg44LBW7srLCTZzJU59MJtjb20O1WuWyu7MASryOWdvMkhga7/04wGzlsS8KtMe5n3nLFlHTiO81TUOr1YIsy1zv3baHN/spWpimHRY+unPnDqdzA9NffFK9iN4lcBSozDxT4z6iGcFvFgga9zOa8Udvtt5qn5P0nqyCpOJ68ZkQ3bK5ucmt5pLJJM6ePTsl36PZi8/n4+Wkqd7c3MQnP/lJPPnkk1wci6b5kiTh1KlT3NCCzOl0QlEU/PjHP8ZoNLK8HxGYzP6LZqQVjDSR+DeLS5/3OVoB/axtZ+1/HLpoHoBbDQaqqnIbP9tOxmxQtzBN01CtVnH79m3+got/9IUErL000Rbx0B7UrAaBeZy61XqrgWTe9uJ743rjdrM8eeCwb+jVq1eZ9wYOAfexxx6Dz+ebeoYkSSSv2uFw4D3veQ8++tGPYmtra0rJQsdXVRUbGxuIRCIcg6BjuVwu/OhHP+LguBFw53HOIsCbea9miUbG78CsYy+qkDlOEHPWADMvGDsvUDtL5QMAxWLRBvUTNBvULUzTDutWFAqFI9UYARwBdfpPgG+VXWoF4AQsD5KIMc+zX2Tfecc77nXQvZgFbK2OT8+HyuBeuXKFnz3td+XKFe6sQ8+SqBNKRHryySfx0Y9+FJubm1PHNQJKKpWaSoWXJIlrlOzs7KBarT4QGM5bL263iM59HmDPAm8RdGdtRzbrvFaD0SIDi1HHTveuaRrq9fqJdLGy7dBsTt3CdF3HCy+8gGazOcX16brOnXdEUBHXW1ENVoFOI7CZHVMcMIznsBooxOPPs1nbGActs/Wz7tnqeGbriB8/c+YMVldXpxKONO2w5sja2hpyuRwvo88nHA7jfe97Hz7wgQ9wWjoBiNkgEgwGudIh3QMNEM1mE/v7+7h48aLlAG18bwQ7sllcs9kxFgFOcd0sOsd4LqtjzzqX1b3N29fMzJ4dVZmc9z22bTGzPXUTIz79Rz/6EQfRRG9O1/UpwHgYm0eNGLd7UC/6JGzWNTzon2gEUKlUChcuXEAwGJxaTyqX06dPHxkIB4MBAoEA9wE1G0CNIORyubCyssKt7Gidy+WCLMvclMLKy523bBEvWbyu44Cs8diL6Ofngfa8bc3u50GuX1ynaRr3bLXtZMwGdRObTCbI5XLI5XLsCYogYvxCi/+tbBb4GsHb7P0bDeBWNg+czfhzq2OYvXY6nVhbW2Oli3Efn8+H1dVVbuIAHD774XAIh8Mxlcxida30+amqipWVFW4BR7QRtWPL5/Po9XqmiUjHBWEzD1Xc57hJSA9y/kVpmoc9j3Eboxmfg6Io6HQ6U4IE2x7cbFA3sdFoxP0pzczsy0uvF+Gwrb7ss/YR/8/bdhFAXQSQZwH4vP2PY+JgGQqFcObMGaRSKaZeyKjb1MrKCjegAA6fO0kZy+Xy1AyKPhMCbPG/qqpIJBJTNchpvdvtRqFQQLPZPEKfiDYLMMVtxG0XAe1ZMZlFBgyra7A63qzg7XEHrgcZ7JrNJjeqtu3hzAZ1E5NlGdevX4eu61Op7GRm2vRZPzKjPYzXLYLSPDrjOIB83Guwuh+rmYZZ4FRs3C1Jh0HKdDqN9fV1brhsZslkkptD67rOlf4cDgfa7Ta63S6DlHGWZbzGaDSKtbU1ANNcv9frRbVancp4NPNqZ+nPrZYtqiSZ56mbHde47SyaxgrIj0PnmD2LRe5BfO9wOFCr1dDpdGxQPwGzQV0w+pK1Wi3cuXPHUokippCLnvc8MH8YM3rBi4L0POCfdaxFBg6r88+aDZgdQ9d17rhz7tw5bn5hZoFAAFevXmVvu9PpcBPj4XDIwW2zwU/07jVNg9frxcrKCrdVI7Chhsq3bt0yBVB6b1xuBXjGfY7LgZsB7SKSw3kDzjwOXezyJDb0MB7XOJuZNRCR0TbUHapWqx15XrYd32xQF4y+jJVKBbu7u+wBmm0DzObCRROXL/JlneV5i8cxO9Y8AJ63/XEAnZaJA5zVoGMcII3H1DQNPp8P0WgUW1tbM3tXer1ebG9vc6KQLMsIBAIM8tVqFQBYDilKIkUjHn15eflI+V6PxwNVVfHSSy+ZBsTnDeKzgNTMM3a5XNzdyerY9D4YDMLn88Hj8VgCs7i92TWLYGwGxKLs0AjqIoDTNsZ7trpvcUASj6EoCv/mxJiVbcc3W9L4fyZ+uarVKhqNBv/YRHuYL9yD0B2LDBTHMfHaH/bYZiBN0+l5+xDQiwNCKBTC+vo6ksnk1DqjkY49m82iXC7D7/dP3V+lUoGqqnC5XEfAwzjoaNphb1CqAyMGxgHgzp07kGV5qoXhcTxhq+WiRSIRbqI9Ho/R7/e5Vyltq6oq3G434vE4lyAej8coFAqQZXmqRZ3VzMJMWhmPxxGJRFAsFrnGPJnH48HS0hJn6ur6/Vr0VLPF7DyzrmHWs6lUKphMJlO5CbYd3+wnJ5iu6xiPx9jZ2YEsy0fATdf1I9NPK7Pysh+E3ph1bF0/mu066xizgNzoeS9qRnCft53Zs3E6nUilUjh//jz8fr9pLEPcnmrBSJKEcDjMoKZph/VERqPRFDhbJUJpmga/34/19fUjtdwlSUK73eb66sBigD7rNb2nwSOdTiMWi8Hj8cDlcvFAZPSaHQ4HUqkU9walAYiCxk6n84gXbea1i8ek5xgOhxEMBo98t51OJ8LhMGKxGCKRCKLRKBKJBOLx+NSzOs59W/2pqorhcIhqtXqkQqZtxzMb1P/P6Efc6/Vw9+7dI7w5cB/UjdNxM7Cax13Puxar90ZQsjrPLLMCONHMBguzc5gNVsbtFrlGt9uNRCKBM2fOTGXwWpnT6cTFixcZ5ESA6Pf7kGX5SCYwzQ5EXp3uc319HW63m7OEJUliD5Uajh/HQxefo9Ufcfo0O6TZhXE/TdMQi8UQCAR420KhgHK5jMFggGg0ikgkMkWZLHJ+VVV5huDz+XgfolwikQhUVcXOzg7u3LmD27dvY3d3F5VKxRR0581YrJ4PPW9N05DP53kQs+3BzH5y/2f046FMQrNmDPRDeFDqQzzWIp76IuA9y5s9zkzAuM0shc1xZx3zrkPXdfj9fmSzWayuri70fN1uN65du4YLFy5gPB5PDcKTyYTpM6fTyd3s6Vy6fl8VQ6/X1ta4yz19FzweDyRJwq1btyDLsmVgcpZqZVbglOqJF4tFdDodjEYj/t6J3DLdh6Yd1iOqVqvcYCKXy2EwGCCZTHKwWHQ+ZgE6cD/u4Ha7AdynFyVJYiqEgs/NZhOVSgX1et1y5mK2bF4gV1zfbDZtvfpDmg3qBtvd3UW1WjWd/oue3Tyb9aU0eitmy2d5vbOWW3n188DW7HhGm3Uc43bG1/MGlXA4zI0rFp3NRKNRZDIZANNgBBzq1RVFOdIbk16Lz1+SJGQyGYTDYQD3PzvSxefzecsOPVYeqHgc42vxvKPRCOPxmOkHaq0nHlOSJDQaDRSLRbTb7SkwVBQFzWbz/7P3ZTGSJVfZ3819Xypr7erucs90z+Kxxx5b8mB4MpLRr0HIwhLCgIXMIhACP/DEAxLi2Qhk4AUJI40BYwkbNDJg2ZLxgpDHg+3xdPdML1Vd+55b5b5n3v8hfaLjRkbEvZmVVZ1TWUdKZea9cWO7EV98ceLECRiGgVgsxq6LoCkCKKm7yN2w1+tl6VKYWq0G0+xbAtkNZCKgq+pHx9h7vR6y2axyf8ilOJNLUOfEMAxsbW2hWCxaQEjWOWTP8t86UBfj5TvvsGxYDCPmR0zTKbtWlROQq2+cpCe7R/HNzMzg2rVrzIrFTsgz4/z8PLxeL9MR0z1yEqWyU+e/TdNENBqV6qa9Xi9jx+KpS7L2IDNhtAM0CtdoNNjMQgzbbDZRLpcH1IK9Xg/FYhGtVoupUGTpizMHw+ivRdRqNRQKBabP59Nst9tot9vMjYK46DwsI5eBPR8nmaeWy2VHbeBS5HIJ6px0Oh2srq6i1WoNsHTqQOMUHSgO86wuTlXcdhYqdqDv9DlVOOAxOLjdbszNzSGVSjGVh52YZt93y3PPPccYNqkUvF4vKpUKCoWCVKdO3zwj93g8uHbtmgUYaeA4OTkZsKGWgTevLlGpJVT3DKNvY096dicMl//d7XbZkX6UhsfjGVjQBMBUS263G/V6nZ3+5PV6LWG9Xi8Mw0C73Ua322VO0kTVkKou7ABeVE/xoE7v8lKGl0tQ/6mQRcHW1hY6nY50oY5n007ECSu2c7c7LOir2LWTOFT50jFuWRyqa6q4otEoUqkUZmZmHJWRz9/CwgKuXbs2cM5lq9VCPp8fSF+3o5XUPzwbJuZ+cHDAQFelXqD//HX6LTJdGcDREXq8gzHV++Sf8/l8zMc8ldXj8WBlZQVzc3PSAccw+n50yIQSwADTp0GhVqvh+eefxwsvvIBnn30Ws7OzlsFDNdCo8qxi7QTs6XQarVbLUVu4lEG5tFP/qdA0loAAsILQMPbpMuCze9Ypqx0mbV54RqgLO8qMgR/sZDMH8Td9d7tduN1uJBIJJJNJpFKpodIF+gPCCy+8gLfeeovpiilPdLwdgTevohHz2263sbS0hJmZGRwdHTEAJBa/s7PDnIbx1jP0rQK3Ye4REyZHZirg4wGdH5zK5TLa7TYbIHiwB2BhxfF4nBEZYuHhcJjFbRgG6vU6W0Tm70UiEaYOIsMBFbA7rQO+vNlsFs1mc8BL56U4k0um/lPpdDo4ODhApVIZANBhQF1csOM7iROmqxMnzH9U1YmT/JxmtqHy/eJ2uxGJRLCwsGDxvOhUgsEgnn32WQvIUZqVSoUBE19+WT57vR7zKSOqRXw+Hw4PD1EoFADYqxdkFjIyYBWZPIG6bLFUjJ9+u1wuJJNJeDwedlwf0B8wc7kcs9cXhTZTtVotNJtNNBoNhEIhS/zNZhO9Xt+H/fHxMdbX17G7u4tgMIhbt24x75aysov1IF4XByz+WjablfbDS3Eml0z9p9LpdLC/vy+d9skaokwIqPj/MhGZnl14useDgHhwh5M4ROEHH1ladnHpnieRAQoPAF6vF6FQCNevX9f6e1EJ7S6dnZ1FqVRizNEwDNRqNZRKJUSjUekMgp+FdTodBINBzM/PW/yxE6ifnJxgd3cXi4uLFn28TJ0gK6t4X8VUO50ODKO/KYhXA4nPk845lUohEomwjTu8s7n9/f2BQQDoOzELBoNIp9OoVqvMbDEej1tmUc1mE5VKBc1mE+vr66xuy+UynnnmGczOzg5YBen6iNiGVWGbzSY2Nzdx5coVVteix85LUcslU/+ptFotbG9vs4YrLjDJPDPKZFw6cF38skXcYdLknxOfp2syMFaxc1U8drbuBF7hcBjvec97BvYGOBFS31y7dm2g/J1OB9lsluVNtuGKHyBdLheWlpYQDAYZANHCZbvdxp07d5SM+TQfykev12PuZ3kVjMhwaUYSDAYxNzeHXq+/aYeYNT0nOuAitkx+bg4ODtgh3ZVKhc0Q6BnaeLS2tsbMLrvdLvL5PKrVKlsHsZu5OFG/8HGQ+wPeUudSnMslqP9UaKce6VFlnX8YoHYK1ipAtNNPO417FFWMXZ5U7FxUswBynyu8BAIBplPX+XvRic/nYyceESAZRt9qg3Y/8s69xPKRkAomHo9bDqumeB88eKBUN6hULjLglqlfSJrNJtrtttIChrdsmZ+fh9/vRz6fx8nJiaVOVOoNl8uFUCiEer3OBoBer3/6kGmaFkdqptk3sySfMDSrabfb2NjYQLfbRTKZZHHI7NhVi6myvNHvTqfDdsteyvAy9eoXamD1eh1bW1uMGVAH4KeMgHM7dFH4wUIVTjZwnAVL0emWddf5/ImAKHtGpooSyxgKhbCwsIBYLMZM6IYti8fjwa1bt/C9732Pbc4hAKLDo2W+Sigcn6doNIqFhQUcHx+zd0zv7ejoCOVyWarOobLJmKh4T/zPgx8x4kAgAJfLZRmk+Djj8TgSiQTK5TIrI8UrpiEOKoFAAG63G0899RRLn9Y3bty4gUAggEwmw6xxxHgBoFqtotlssg1PfB3KBjS7OuHrAuiTrGKxyPwAXYpzmfraoobVaDSQzWYH3ADIGucoIovTSb7GLSIQD8vgxXCq52WAL8bvdrsRDodx5coVy1b+YYRYOG+OSGmZZn/bOc80Zfkm6Xa7CIVCuHr1qsVLomH0HY41m01Hzr3ENmPHWvlPp9NBtVplAxzZhNM3gXIymYRpmjg+Pkaj0RiwHVeBarfbRaFQYH5fwuEwotEoA2datCbHYm632+KPhrcpr9frbB1EZq7Jp+uEyfMzh1arhcPDQ7Tb7aHbxLTL1DN1kmq1imw2yxojz9BH1e2pmKwM5MT4R2Xow7LvYdLh801gp1PF6GYdxJ5jsRjm5+dPVV46QDqRSGB7e9sCKjRYJxIJBtSyfBEwUVwej4epJEzTZAuXGxsbuHHjBtt9yYMZXzYda5eF44Gt0WhgZmaG+XuhWQa1w1AoZNkUxW/UUc0M+MXMvb09HB8fW9q42+3GtWvX4Pf7sbe3x/yvzM/PIxaLYXV1lZlLkm18MBiE1+tlLoNl5VblSxWWvjudDg4PD/Hcc88N0RouBbhk6kxHWC6XUalUpCoRvkPYiawhq1gtL3b6b6cfJ+zejpXr4lCxbl0ZZPEbRv/IuGQyyY6mG1UMo7/lnTba8PVuGAY7ko5fKxFNT0k8Hg+uXr3KzPsoLrKI2d3dRaPRsNSTjqmLbUe8R79J/eF2u9FqteB2u+H1egc8SpqmyWzP6fxUkXzwi6Pkg50GIQDMxrxYLKJYLDJnXblcjjFwWnQlk0myU6fFUperf0A3WRypBjIn6wyyQaDT6TCTzLOYsV5kmWqmTo0um80yky2ZIy8ZqNsxSxFgRZYrxjFO3bmKPQ8bVlcG2fMqwBefI3Dw+XyIxWKIxWKnKr9h9K1obt68ie9+97vsPRJYZjIZNBoNtvgIQKruoXvz8/OIx+M4OTlhbYR2V+7t7aFarSKRSNgCFQ+24nVx8Ekmk8zdAQ0+CwsLLJ1er38iV6FQQCgUgsfjweLiIrNk4eOkRf9GowGfz4dr164BgEX3LpaZLG/cbjdCoRDy+TwMw0A6nUY4HMbTTz+N7e1tpupZWFhAIBBgG4X4csrKqrrGX+fzQ4ultVptqE1plzLFoE5e8XZ3d/HP//zP+MY3viFlvaTXdCp2Omm7MKOITs3BXxM7tAi8POg6yasTNYvqmmmaCIfDiMfjiEajp2Lqpmmyhb9wOIxyucxA2DAM5tyL7LAJJMkihuqFwkejUSwuLmJ3d5cBjmH07dWPjo5QrVYt+mvKg4p98ovvKmDr9XrMlJJmj36/H36/n7HdSqWCfD6PSqWCQCCAYDDIXApQHZumyezL6/U6U5mEw2Hkcjmmo5aBO++VkcpM9u/PPPMMnn/+eZYXv9+PRqOB4+Nj9jzffkS1lAzI+euy/7QJiXYeX4ozmUpQ73a7qNVq+OEPf4jPfe5zuHPnDrxer2WKyn/LVBtOgFkEPBlDH1WGjUPFuPmOaJc/VV3wzwxTxlAohGg06tgzo0xIpw4AyWQSc3NzKBaLAMAAu9FooFQqWQYhYuqkYqC8m6bJNjTdvXuXHbZBz+RyuQG1h0xk7UgENrre6/WQy+XYRh7KlzjokqO5o6MjZsIoDkoUJ9m70+Ku7GxREWTr9Tpj+Pz7PD4+RiaTwY0bN9gCbS6Xw9bWlmXnpx1w637z4YlIlctlrK6u4vr168xu/1LsZepAnRr6t7/9bXzuc5/D6uoq29mo0v+SOAEeHvhUz40b1MU8ioxbBbh2ahRVunycspmNjuXzeQiFQohEIiPtJJVJPB7H0tIS1tbWLKDbbDaZz3E+Xzy7FMu4srLCWD/P6kkt0Gq1BrwaUpy6D18HPKMFYDkcQlRl8GsArVbLElaXB9JN83GoBhxaCKZ0+Hi63S42Nzexvb0NAAPeGvm8Uv5V6ejyDDyeRf/f//0fAoEAfuZnfgaxWMxpM5h6mRpQpwbTarXw6NEjvPrqq7h//76jg25lwK5jaRSOB43TMFFZPmRh7PTjunwMM/NQqW2GWSOgnaSxWMz26DqnEgqFsLKyMvCOer3+iVa8CwFeZcF/E/gtLi4ikUjg6OiIXSfzvq2tLTSbzaFBXXafv0aiYrAkvEqQj0tU85DoNjuJ4cR4+fTonrjGJKapG8RU9/nf9Xodd+/exerqKmKxGIrFIq5cuYJLcSZTY/1CbKNWq+FLX/oSfvSjH7FOTqoXYBC0ecYhAzPxIwKUHfgPWwYxH3x+VDLqwGIXXndfBkw8GPj9fgSDQczMzIxtc4nf78fKyoolPrIoKZfLzMsiXedPRRLLNDc3x6xp+Li8Xi/29/ctenVZmWXvXQQz2TPiO5YNDjLgJZFZmvD50Q0+ujzxbVt28AiFVaml7ACff/7Bgwe4ffs22u029vb28OjRo4H4LkUtUwXq9Xod9+7dw2uvvcY6uAjEso51GpbtBBjFj+qeuNVdFr8qvmGui4MUn64Tfy5OPj6fD36/f6zTaq/Xi6tXryIejw9Yt1SrVcuhGSJQ8SokckNLfsN5sAoEAsjlcsxFM90TN9GIgGnnXkDmo0UXj85UUJaWLp+qvNuVS4yXRJUXVR3wg9Xa2hrefvttZspYLpdx+/btsbWRaZCpAXUAKJVKeO2119hWcrKQEBmbCiydipNndYAvY/xiXCqAlqVhp3KxA2BVGLs0ZQyYFib9fj+zoR6nRCKRATCmgx6y2az0fcvOoqXTmHgzSKA/cDQaDWxsbLCwdmoFO3Ysu+6EWcsGByfgz1+ThZPFJe5sdTKYyPIuhqH75MTrJz/5CcrlMht0a7UaNjY2mCmlbBZwKVaZGlA3DAObm5v4/ve/z/4TePLeAUUw4lk7z+bE8KrpqCwfdqxcx4ZVZVOBq0zEMqni1JVhWBHjIfXLuK0afD4flpaW4PV62TXD6Dv3Iv04P+MgoOHrgvI6OzuLSCRiYdE+n48tKIrl48toB+B8ONlvWRyq98Xfp/Lw11WMXzYIABjYTCQOHCrwdlIG2TXypvk11xnBAAAgAElEQVTDH/4Q6XTa4kyt1Wpha2sL2WzWsjh8KWqZmoXSbreL9fV17O/vW4CTWJlMTtuAVGCs6px2YOkETHWdX5cH2UDGX5cNZna/xTzRfWLqS0tLYz3dxjT7Xgafeuop3L9/H61Wi5WTNu+YptW5l8yNMfk9mZmZQSqVQj6fZxuQSE1AR67xA4EIXiobdll41TM8sC4uLqLb7TK/6bFYDPF4HPv7++h2u7h27RpisRh6vR6Ojo6QyWTg8/mwvLzMvCpSfSwvLyObzTJPiJQ+HS2YTqdRLBYtg2Sv12MATKaMqnKJZeDfkfi/Uqng9u3bzN2uKLlcDuvr60gmkyMRimmTqWDqpmmyKTNtsNBZXKhYFYlK9eBEdAzdSTmcxu9ElaKLwy5vw8QpXne5XPB6vYhEIuyEn3EIATL5bhEBhpx7ienJZmfdbhfxeBwLCwuWQYAsYEqlEvL5/ACr1TFzu3YlhuPDUp6uXr3KBp1Go4FgMAiPx8OsiA4ODrC/vw+fz8c2WxmGgXg8btllGwqF4PP5LPpwt9uNpaUleDwezM3NIRgMWli8y+VCOBzG0tKSMr9ivmXl4OuYAH1vb485SuPfC9BXm25ublpOdroUtUwNqNdqNXb2pGzBT9ehRBmGCevUGMPEp4vbiYqGRLXY6SQ/p2FJ/LPkN2R2dnasOwUJ1BcWFhiz5NUSlUqFHUknO4JPnJUEg0FcvXqVMX3Sz5MDq6OjI4uqQAfsdguUuueBxycRmaaJRCLBTiuiWc/i4iIymQyy2SwymQwODg6wuLiIUCiEjY0NLC0tMVWS3+9nPl4of0D/FKVOp4OdnR1ks1k8/fTT8Pv92NrawsOHD/Hw4UOsra2x2ZXKlt6uLPS/0WjgwYMHePjwISNb4rsAgEqlggcPHgy1s3uaZWpAvVgs4vDwkFly8PprCiOyABWoO5Vh9OK68LJnnTDxYdJ2kidV3MPm3zD6ZqTEgsclhtF3Enbjxg1EIhELaBNLPT4+toCD7OAM0rGT6iIQCAB4zC49Hg/a7TaOj4+VoO5kAZK/prM0oXbZbDZRKBQQDAaRTCbRbrfZ8XfVapUxawLMZrMJn8+HarXKfO30en0XBOSrncplmv2Dujc2NlCtVpHL5ZgfGFocdbvdWFhYsOyoleVbVWY+XKvVwubmJu7du8cGKxpMxX7XbDZx584dNJvNS/WLA5kaUC+VSigWi1LbZN1zp0lT1kCdPMOLDBDF+7LwqvjEOO2AX2RPKmbvRCgcHZsWDAZH9qOuElIRpFIp5lmR/xC7Fjec8QM88NgCZnFxEcFgkF0DwDYd7e/vK32p0DVR5SL7r1JTiDbfnU4HXq8X2WyWOUOr1WowDAOlUskC6jQz8fv9cLvdOD4+RiAQYG572+22xZqEBgJajHS5XOzQaspHOBzGzMwMdnd3laxcVTa+TJ1OB9vb23j48CHTzevaYKvVwtraGsvzpehlakCdjgmTsc6zEBmDFe/rmK7MW6QsbvE5J+nq8jxMXHYiiwPog7rf72c+zsf1DqjefD4fFhcXLUezkaTTaTQajQG1jywPhmFgfn4es7OzFr06DRYE6vzipspkTwXcKtCXhe12u2i1WuxUoOXlZTZzKJfL8Pv9DIQBoFwuM3VRNptFr9dDMpmEz+dj6g5xtynNUJaWluD3+5HNZhmD5l0DqxZ0xTKJYcgK6e7du0in0yweVdujcmcyGTx8+PDy0AwHMhWgDoBtcxY7rw5UVLvjdKJSVdB/MawYTmTZTlUaTvJkF4dupjBMXLpyG4bBFvai0ajFido45b3vfS98Pp9lkKSdpdVqFYB6fYHPLx23Rwu69E48Ho/lZB47lQPVrxM9ugokSa8eDodRq9XQbrfh8/mYWoUGGwLKWq3Grnc6HbRaLcTjcbRaLaZXp3zx6SwuLjIfOvV6ncWZTCZRKBTYQCbLp135CoUC7ty5g2w2y1RXvMjeBbH7t956i/myvxS1TAWom2Z/ZxoxdbpGHZT+q8QOOEUVhd1zsoFEbMgywNENQE5AX3zWTjWkSkt8js+bDtDpGY/Hww6AGCdT5+XatWvMPzn/niuVyoAaTvYuqIx0VJ5oKeJyuVAoFJjDLztxytzpv+x6r9djZ6SapomtrS1myWKaJqrVKvx+v+UA7l7vsbO6bDaLWq2GmzdvotlsWjw30saiubk5+Hw+3LlzB8VikYWhWQB5wOTzKSuT7Ho+n8c777yDo6Mjy/mnTuqv1+vhxz/+8eVh1A5kKkAdgMVSwQ7I7cBuGLFTfwyrIhkmLZ3w020+H05mGcPOFsQwdBTaMOsbw0oikUAqlWLvm8pLi42ysoq/TbOvW15eXmYLhjwZ6HQ6zF5dxVp1zNXpPcpLr9f3qe7z+eByudBqtVhZ6Bi6VCrFzhyl8tdqNVb2XC7HbNlJ+DS9Xi9b5wgGgwgEAmwA9vl8KBaLA8RINmDxM5Rer4dSqYR79+5hZ2dHCsx25KLX6/uEOTg4GL1RTIlMBajTtI8sBUjsGIJT9YadOFVRDJPesOFVIutMTlUuvOj80Yji8/mQTCbP9JT4YDCIlZUVdLtd6WHUdDqSrJyAdWBfWlpCPB631JXH44HH48HOzg46nY4WwO3u6cLzeTFNk7kRpgHn+PiYmeqWy2Xs7+9jcXERzz77LDNzrNfrLL56vc584IjpGoaBQqGARCKBj3zkI/jIRz6CD33oQ0gkEozZh8PhAVNRWT6pHKQyWl1dxe7ursX/Oj8Dped5Ef8XCgVsbW2NrY1cVJmaHaWqabKoHpCpC+xExWbFeCh+caYgU4vInrdbOFWpgWTp62YHfEeVAbQsPTHPYnnomxbuwuHwmTB0Er/fj+vXr8M0TeYGgvJ4cnKCer3Ozt0kEJXlp9PpYHZ2FvF43BIH0Af27e1t1Ot15u5ABXAq1YssLH9dvA8A+/v7AB6v+RwfHzNVFtl+88/xB2m0Wi388Ic/lIIy0O8nP/jBDyyHiJDJ4f3796XlEL/53wToGxsbKJVKlnKL/UWsFz5/pHra2tpi5OysVHfvdplKUNeBFn9v1N1rKl227LqKKcvy5kT4zmqXLzsR82GnjpE9K+bLMAx2Av1ZisfjQSKRQDgcZouZZL1RKBRwcnKCWCzGAEPm1I3yHYvFLIda8wcv01F55G1SpU5RgaGTsLo46F3L/LVQWDEu2T0SYtciEaBZAokK1Pm42u02tre3sbGxgUKhYEuSaBDh//PfzWYTa2trqFQqCIfDZzrTezfLVNSKaZrMURD9p2+VXlfUaToVO1WLCvx04YZVy4jl0aWtiluWH5mflGHzRQ7U/H7/mbOsWCyGZDJp8ZXv8XhQr9cZu6Vyid4beXWSx+NBKpWC1+u1LC76/X52BBzw2AJG5fBK/O0krO66KPw10eZeBGnxGT5esV2I1+3ySdYqR0dH2NjYQCaTsWzS0olsUKXvdruN/f195HK5S4+NGrnQoM4zK9Kj8vcAa+NxAoTi87Kwss5oB56jigqogUGTPZ2InVqXnh0r1z1DDJd8lZyV9Ho9RKNRzM/PD+SP3LzSu5EdPs2/N4/Hg/n5eWZNAzzenNRsNnF4eCj1NSOqI1TALIKTkzjov4zZyuKUqddU6dg9J0uD8mKaj4/Qe/vtt9muW1l42UdUq4jgns1mLXFeyqBcaFAn6fV6UkdOgBqAxyE8sxlnfOIgomL3o8atel43kNk5SOPr1ufzIRKJnClTNwwDgUAA8/PzA+fPdrtdHB0dWfYtiIt1/OzENE2kUikkEgnGEEmN1Ov1LG5hebbKf/PXedNI8br4vOy/aiu+0wVZ2buxS1MXhl/U7Xa7yOVyuH//PjvEmq9PGQHi35n4DsWwmUwGOzs7I6tGp0EuPKhTw+PtYvl7TtjKMDIOgLWLjxdxujyMOsUuPd1HfIZ/VsYSKQwdTKI66HtcYpom890iMm/TNJHNZlGtVgdULbxKhuLpdrtIJpNIpVIWgKGwtPCqUknYmTbqQJPik8U7ysdpPBRONmCoykPHRW5sbGB3d5cRKRn54Oubf2cqofC1Wg23b9++ZOoaudCgTlPBYrGIVqvFrtE33zH5TuwE3FXTQx2b5p9VAT/faWTlEeOwU2EMM1vQTd/FfIizGhEQVM+ROuMsAR0A81549erVAR8vQH+3ZalUGlg0FJkhvY94PI7l5eUBU0C/3z8QF5+O+J+vH1VdqciG+K2KQ/Uehhlg7CzFZHlrtVp48OAB9vb2UKlUBmY/Yr7sCIYsTKPRwL179y6ZukYuNKgD/YZULBaVW5v5cKpG70RU7Fh1T5ZPCivqFYeJz8kUd1hmr3pOjJsPJ/4mIVM5/rSpsxBKY3l52XKd1hlo4xA/sANqk8NAIIBr165ZdOemacLr9TLbb7JXV4GkzF+KbrFUpo6RqXVG3bIva+N2G6Jkah5i6Kurq9jb20OpVGI+aFTtRCaqPPHSbDZx//59xzt5p1EuPKiTPp2frqkajVOmKnvODhyHicvOHcAwMsqgZKd20c0QnKh3AL0OflxC54yS/3FxMDo8PGSzB50DNdN8rMohT4hAv235fD60Wi2k02nL1nwnjFh1n9Ic18dONy6mZ6dmkQ0+Ozs72NnZQS6Xs2z24r9V4mTWSWl1Oh3k83k8evSIzb4vxSoXGtQN4/HmCd4UTdaA6Tp/XwQnGeMVn5OJyMJVeZXdUzEp2bOy6bEuLR5gZWyVf54vAx+PzLpGVxZyeTvOwzFkQqaTPp8PV69etaRH6R8dHTH3snze+XD8aUELCwvsNCG+jZhm32SWLyf/2w5M+XCq36p3ImvHvOjapipPsjKoxDT7PmjoHFHewkzUnat2jvJhefNSPm/8e+l0Orh79+6lcy+FXGhQp6khMXWxEwCPF85UneI0Mow+/TQfMU2ZykTlPIvKT7/5TqVjWgR0YnqyvPBpUNznYadOebh58yZzyMVLNptlbnhF80/etJHySZuQePe2FP7w8FBqoWLHwsX/duxYDC9eFxc07Vg2iS4dVZrtdtvC0EXX1ipx2s9UfQUA3nnnnUvnXgq5cKAuY0aqsyT5Z2S/RbFj2cOqX+wAWhXG7hnZc07yrfuv8pPCLzQ76dAEoOQW9zzk2WefZTtY+cGoUCgMHNJALJ6vA2KNwWAQV65csZyrSs+l02mLhZUTAOf/61QxvOhAepgBANBvsJMNNPy6QLfbRT6fx/b2NtLptGOA5etTlTYfVjb77Ha72NjYQC6Xs41jGuVCgjrPVjqdDiqVCmscPLjzKhkSviGJHVcGkjwgyBqgjEnJ4tU1TjE/OnE641CVSfYtMn0Zk5cNAKpByuv1nhuoG4aBaDTKfLfw+Ww0GszLoXiPhJ/Vud1uXLlyhbF+emeGYaBYLFocZ9GzKqAV74v/h13kHOaeUzavs20/OTnBo0ePcHBwYDFdlPUf8X3ISAJfz2J4vgz0+/j4mG0guwR2q1w43y+G0XeJSpYItVqNHRZAL54Hc3IOJGsUutV1asSycDqQ5MOIv/k4ZeFk8cvuqeLXheMtFcQ0eF2oahDg7/EiAoXb7WYHO5yHGIaBSCSChYUFbG5uWtoBzeJ6vZ7FWsMwDEt98Dr3K1euIBQKWfyKE3M/OjpCLBazHKhhB7D8NfpNYve8KpwqbtWAo0tL/CZ15traGo6OjiwzHVndO3k/TsPQN+1Y3d/fR6/XO/P1mXebXDhQbzabWF9fxxtvvAGgb9f68OFDxGIxeDwedhwY7ztCtAuXdQiVDMMQ+LAq8NaF4Rm+Kozu+rDPyQYIUddMrEsMT+FI3eL1ehEIBBAIBNBoNHD79m3cvHmTgeRZuQwwjL5f8FQqZblGec1ms2i32wgEAgzIqWwicAL9U4EikYhlAY/Kub+/jxs3bijVC04BfZQBQZWe6rfdoMAL308ajQY2NzeRyWRQLBYtawvDitiOxHrQtddisYidnR00Gg0EAoFLYOfkwoF6vV7HN77xDXzpS1+yLPqREyl+WskzF9nONhl7EqeDThszDxTitNOp8D5K+G9ZHlTx2s0EZB2NZ+c88FGdEVui/1Tf5I3R6/XC7/ezU3l2dnbw5S9/GUtLS3jllVfw8ssvIxAInIk6hkB9ZmYGbrfbAsYulwu5XI55/fP7/Wi1WhZXuoAVBGdmZjAzM2OZ4dAawcHBAdrt9oAHSh3o2gG0agDQhRfTljF0Wfric/w37cre3NzE9vY2Tk5OWNllfUFFSMS0xGec9Acqz/b2NkqlEjs05DzUee8GuXCgTofzkhCoe71edDod9pum29QgxZ2F9KxuaqkDdrGB8v91jc+OzcvSc8LAndwX1SeiSkKMQ9Sr86BOeSWro06ng3q9zhiVx+Nh3vZmZ2cti5njFjJHDIfDqFQqFh15qVRCpVLB8vIyvvGNb+A///M/0el08Fu/9Vt4/vnn4fF4LCwwEolgbm4Obrcb3W7XUp5sNsv8tDvd6CYDTz6MHRg7ZfVOZga6dHq9Hra2trC3t8cAXac7VwkRA/otu09xihZGYrjd3V0Ui0Ukk8kzd+X8bpILB+rA4GIM6TjJqoEHV55tiu48xcakYxniNZ7JOtE3OlG/iKA+DDNxqvOUAbuYnp2OnoCA1i7IcZYYV6vVws7ODjY3N3Hz5s0z7ZjRaBShUAi1Wo2ttwD9md1PfvITrK+v4/XXX0elUsHR0RG+9KUv4Y//+I+xvLzMwrpcLgQCAczOziIQCLCFUbKYqdVqKBaLmJ2d1YK57rfuv5NnxfB26TuJu9Pp4ODgAHt7e0xdBVgHdztgF/uFLrzYlug5/r5pmtjf38fBwQFWVlaU5Goa5cKBurixhcCEXrrIOCmsTK0iArqMMaiED8urL8T7fLzDMB9RXcQ/KwNYO7WL6hp/nR+oxHu6+EWVDQ8k1WpV6UFznBKPxxGNRpHNZtkATwvpd+/eRTKZxPPPP4+rV6/i6OgIb775JjY3N3H9+nXLbMXlcmF2dhahUAjVapXd83q9qFarODk5GUhbBZ78PV24YQFelZYqP6q4aEDO5XJYXV1l3ihFNRbg3ELLSdvk78tUMvS/VCrh7t27ePnll7VpTptcOFAn4RsorxaQheN3uxGr5AcDO5EBmgjY/HWVOkPGUIZl4+JzItsR8yKLQ9fJ+DrRDXJ8mqKJowzYzlpisRjm5+exu7vL1HA3b97Exz/+cVy5cgVvvPEGXnrpJYRCITx48AD37t3D8fGxNG8LCwtIpVJsFynVTa/XY469dGyZvu0AXbXTUwXIoupGFa8d+PPX8vk8Hjx4gHw+j0ajMcDO+bDDMuVhVIV8HdP1RqOBO3funEv7eTfJhQR1kf3agaTYKHhVgYwpqETFzGX/+eu6uOyuye7JVCi6vAJWi4NRwF5UDckGEj4/5wnoAOD1erGwsADT7O+EXFlZwa/92q8hGo3CNE1cv34dpVIJc3NzmJubY6yeZ+mG0dcHz8/PI5lMDgxcQP9wZNpZSaICZtV/uib+t2Pvqt92zFwcSOheoVDAo0ePcHx8jFqtJu1D4nvXqUxkQnWqC8fHzZvXtlot3L9/H81mE6FQSBr/NMqFBPVRdGuyjuUkHlFtI1NP6NQvqv+qQUjG8GXTYF06sjKowgzzrHifH1xV4K0b2MYlhmHA7/fj1q1bDHBrtRqzxul0OkgkElhfX8eNGzcQCoWwsLCAk5MT1Go15sTLNPvrBPF4HAsLCwOzMVp4rdfrCAaDFhUD1YcdkDoBXifArbonGgSI60ikciE3uoeHh6hUKtJ3JQNy/r9qYLNrk3bthYSOzDs8PGT7Ay7lAu4oJRmFAYqdghcRvGX3TwtOqumsE1ami4s+YhlO89GlowrLPyOz/DhL8Xg8WFxcZIvmpVIJJycnrF7C4TBOTk7QbDbh9/uxtLSEcrmMUqlkqbter4dQKGRxF0D5J9/qpGt3Ar6iBZbq3jCATs+KH/5eu91Gq9Vii9kE5t1uF5VKBXfv3sXBwQHK5fLAuxP/y/Kmmo066SN27YFPr9FoYG1t7dJjIycXEtRNU82YdSJjmuJvWTxiQ3aanioPTpiMmL7IlMR7IpCq4tLla1TwFfOmmr2clRhGfyFzfn4eoVAIbrcbrVYLmUwG3W4XLpeLmSESg7969SoajQay2SwAqwrL6/XiypUrCAQClvr1eDxoNBrMbFLmwlZVLzKgFkU3mOpENkgsLi7ixo0bCIfD7F6320UkEkEikWD1wdch/81fd/JOVQ7ldHGoysen0el08ODBg0uPjZxcWPWLk+mb7v442aNOT8izwLOS08TP529YENapXkTVxFkK5cPr9WJlZQXlchntdhtHR0d47rnn4PV64fF4EA6HUSgUMDs7i6WlJbhcLhwcHOB973ufpdxkAROPx5HJZJhZIx2Ykc/nsby8LAVe3X/ZLEgWxuk1GXsnNdTKygqCwSAODg6wvb2N4+NjxONxvPTSS3jhhRewsbGBL3/5y3jzzTextbXF1Fa69uqkb427X/V6Pdy/fx/VahWzs7Nji/vdLBcS1IHzW4CbVBkViMeZPj+DEVUtKuZ31nm6du0aVldX0ev1cHh4yCxhgP5u0WKxCK/Xi5mZGYRCIWxsbEjzmUgkMDMzw0wk+TDHx8d43/veB0AP4uJ/JwBNIguvcyZGG6WeeuopfOhDH2Iby27duoUrV65gf38fTz31FF544QX4fD4sLS3hwx/+MF577TX85V/+Jba3ty07SPk6HfYdjDNsp9NhG6JWVlaGystFlalRvwwrOnZNadhNDZ3EbRfeCZsVZxfit+oZ1UKW6r4qDtXU24k6S+c0bdzicrnw1FNPMVVAPp9nDLTX6yGVSqFcLsMwDMRiMcRiMXZyvVgXwWAQCwsLlp3JFIaOySMZZWBVvUNZuxNVO6p6npubwzPPPAPDMLC1tYWvfe1reP3112EYBj7wgQ/gueeeQy6Xw1//9V/js5/9LDKZDD7+8Y/jz/7sz5BKpQYcu+nEMNTn/optReUNUgynKvvBwQFOTk7YmsC0E7oLCerjmubpQOk89cFO9JWnzQt1Qt0xdWcl59UJXS4XZmZmmEOuk5MTVKtVGIbBrFqI1ZK/mOPjY6avpToyDIP5VhfVSIZhIJ/PW84r1S1Yyu6pvkUWrnOhy/8noCP/R4VCAffu3cPh4SHeeecd/OAHP2DeSr/+9a/ji1/8Ir7+9a/jz//8z7G+vo6f/dmfxcc//nEkEgnLAOekTcjAe1SRkQw6a5ZmXdMO6MAFBfWzENUC0ZNIW8XexiEytnRWchbrFzpxuVxIpVKIx+NsUbRUKjErlmAwyPTiXq8Xs7OzqNVqUl8n5FudvDvy5ajX65aDkWW6bZ3eWzYAiGoWXTgxHXqOnJql02kcHx+j3W4jn8/jq1/9Kl599VXcuXMHf//3f4/d3V1UKhV885vfxBe+8AXU63V85jOfYSxfHMTs+gLdPw35kBEbKmOtVsPm5iaazeZIcV80uZA6dSfTQ1HsVA0URja1PWtwp/JQerKdrjK1h7gYO0w+nZRtmDCyPIrAc9bicrkQj8cRi8XQ6/XQ6XRQKBTYQckejwfRaBS5XA4zMzNIJpNwu904PDxkh2MAj90ekNvgQqHA9M0ejweGYSCXyyEWi1l2XvJl1+06FeuIxG7wVsVF1xqNBkzTRCgUgsfjQbPZxOrqKg4PD/Ho0SN85StfQalUYsy+0WgwRn/r1i0sLy9bFktl713V92QqFIqDty+nM05p4FTVCR8HAGxvbzNvm9MuF5Kpj3uV3alc1KnfOFQ7KhA474XSQCDAOr5pmsxTpNvthtvtRiwWQ6FQgN/vRzKZRDweZ64FRJCZnZ1lO1L5NIgNi+fi6pg65Uf2H4CW3dsxfvpfLpfR6XQQCoXQ7XYtJxc1Gg02IwEemyAWCgUcHBwgGo1iZWVFe7iJ0/UkHWt3wvwpHK8qfPjwITuwY9rlQoL6k5KzBqjzVleMS1QM0mkHHqf4/X7Gug3DQDabRbPZZABBpxr5/X4kEgnMzc1hd3eXnT/Kz4LIAobXGZNpIx3ELJZf9tGF4e+p1DF8GFVcAFCpVNiW+kqlgsPDQ7b9nwdafibY7XaxtbUFj8eDlZUV2wPDnbxL3XGHfB50aYiHsBwdHWFzc9M27WmQCwnqo6hf6DlA3TDt9Ooq5uEUhHXTWZlKRfaMaoruZOouLsiNA2xFHSif3nkLgQFtKXe73cjn8ygWiwxEPB4PSqUSvF4v852+v79v2VlJZYpEIpifn0cgEGBqA4qjWCyi2WxafIKrWLhs0BMZt3hdxfhV9WoYBqrVKorFIhYWFvDpT3+a+cKRgSjFFYvFcOvWLQBgLocpPlXeZXlVvXtZ2xD7lTiAya6Vy2Vsbm6+6wjPWciFBPUnpX45CxllbWAURv8kWDPweDA5T5mfn4fH44HL5UKxWMTJyQkDNZ/Ph1qtBpfLhUgkgqtXryKfz7MFVcoz+Vafm5uD3+9n2+2JPdLZuLK1A/7bqVpFtijK16EsnLiTtVKp4D/+4z9QqVRw8+ZN/NIv/RJbPKXn6f3zM5fl5WV0Oh3cvn3bUiZATWRGbUd8WVTALt4zDAP1eh1vvvnmhen3p5ELCepnJU+KXQ6Ttmo24VRPed4iMtjzkEQigWAwCJfLhXq9jnQ6zeqHjuGr1WoIBAJYXl5GrVZDoVAYUE+4XC4sLS0hHA4zl81AHxAbjQZqtRoAe/ULX3YnVi0qhq+Lv9vtIp1O44033sC3vvUtNJtN/OZv/iY+8YlPIB6Pw+PxDMQXCoXw0Y9+FMvLy6jX66hUKgzU6d2p2hY/w7Rre3Y6dt7Ulq8bum+afY+Nq6urzO/ONMuFBHU7gFCBiMw6Q3b9vMBPBtCAM/USH8ZJnkW1i6juUeXPblZkpxYQ1QvnIclkEgsLC+xIOvKbTnWWSqVwdHQEt9uNVCqFXq/HFlTFelleXkYikRhg3TU0fpIAACAASURBVN1uV+rYS8W0df5hZPVnB+gk9H6q1Sq2traQTqfxF3/xF3j11VcRCATwp3/6p/jUpz6FUCjE/L/QjOOll17Cr//6ryOVSuGNN97Ad77zHSVTtiMTpyUWYtvk2x7VX6FQQD6fvwT1J52BsxA7oHlSqobzEL7TDcOCRbWNHRjL0nUav+7aeYjP58MzzzzDNgiRpQoAZp9+dHTEVDCxWMxiGcID9NzcHBKJhNR0sVarDTBvel4H5HZqFtlGI9UGpU6ng0ajgQcPHiCbzaLb7aJer+Nf/uVf8Fd/9VdoNpv47d/+bfzO7/wOU8W43W4kEgn84R/+IW7cuIFMJoMvfOEL2N3dHWhbvIj9apTZl6pv0jWetYt1U61W8ejRI7ZAPa1yIUEdcMYwL7KMWr5ROiQPNKo4ZZ1Vp5c9S/H5fOyYOgDMBzrpw1OpFDKZDEzTRDgcxpUrV5DL5Sw7S4G+ZUgsFmO+1XnxeDzMhNBO7cIDs8rCRRZeFScfV71ex6NHj5DJZCyeDE9OTvCVr3wFf/d3f4der4ff+I3fwGc+8xnMzs4ilUrhV3/1V/FzP/dzaDabePXVV/H666+zg8N5gFXJadRqqvagakf0u9FoYGNjY+rd8F7YzUfvNhGnzKMAHXUksUM5iYvCjDp1VQ0GurRl7PasxTAM+Hw+3Lp1i6VPViGhUAgulwvRaJRZr5AJJJn/0eEXVK5QKIS5uTlLnZNZY6lUYnHw952oTegeH0b2W7ZrFXjM9vf29rCzs4NqtQrgcZ2Tm4R/+Id/gGma+L3f+z189rOfhWmaSKfT+PSnP41AIIDvfOc7+MpXvsJ2a6oAlc+v7J543cnMThYn377F8M1mE48ePZr6naUXEtSdNJpJE36RbZzxncezo6Yl6mbPQ0hfHIlE4Pf70Ww20e12kclkMD8/D6/Xi2AwCKDP/CKRCBYXF7G+vo5CoYBUKmXJs8fjYRYwxMp7vR48Hg/b1OP3+wfYNZVfBvK86Ni9Kh4aWLa3t7G1tcX82wDWgb/X66HZbOKf/umfUCqV8Cd/8if4oz/6I3i9Xni9XhwcHOCrX/0q9vf3R3pXokMv1WCgCmMXt2ym8+jRI7ZAPa0yleqXSRWnedaxIzHcaVj/sOnI8ifKeTNzUUgn6/F4cP36dWb1wR8iTWy9VqsxN7SmaWJvb4+pH/idl3Nzc8yfDAETHcRB9u12KhX+mp2Zo92O1Ha7jb29PTx69IgxdD4NKicBfKVSwX/913/h85//PNt41el08K//+q9444032HrDaR3HqQYuyo/quvg8f49XBbVaLTYreRIL8JMiFxbUR5FhwOk0aQxznZdhVBvic2Jn5q8PC7QqRsXHLbuvYqHnKS6XC263mx1v5/F4LBYw5Ep3dnYWlUoFPp+P2bWvr68PMF7TNBGPx5FIJKTp8f7WSXSArWPfTp7v9XooFot4+PAhisUi874oW3jkFx3z+Ty++MUv4vOf/zwePXqEN954A//4j/+IfD4/cp+QtTvV+9axdL7OVe0O6HtspI1i0+yx8UKqX4B3j159VCZNnUDV4FUMh+9kqvzIBoBR2b4u/09SyMbc5XIx962tVovZnM/MzDBAo+Pdtra2AIAxcaqfWCyGmZkZALAweADI5XIA9KoWO9AWw+gGgGKxiPv37zMnY+I75NMhYO/1enC73eh0Onjttddw7949tFot5HI5pubgQVnVtsTrqvcvG+TE50VxMms0TRPlchlra2t48cUXp/Yg6gvJ1EfR/8ni0E0XRRkXq1d1EqdMnu98vJ5Sx3Dot0pdM+4ZizhbeBLidrsxPz8Pv9+PXq+HbDbLrCaIfRPbC4fDiMVi2N/fR7PZHGgbkUgES0tLlp2ZdF8EdZJhGDmvbhGtjOh/t9tFqVTC6uoq8vm88r3L6p7fVNVsNvH222/j0aNHLG4awOh5lYht1242xz8zrjbW6/WwtraGarX6RGaCkyAXEtTHCUI6ViBLz6leUKYCUcUt61A6FqRjeU5Fl2c7QHaiXhDDnbe43W4sLCww/XGlUkG9XmfMlA5kbjabCAQCiMViKJVKKJVKA2Xw+XwWVQ7pc10uFyqVClqtlhbEZSoUXb3x8QBgboTX19dxfHzMdOB2ayr8+xTtv2lAo2t2fYrPu5iGbmAR86GKW5d/sW7X1tam+iDqCwnqwHgYoNjIVNNnWRgZu5IBmirvBAw8SMg2ndB9MZxsuzn/TeHFuPh4dGAj/nayuCd7/kktaLndbszNzcHn86HX66HRaLDNOQCYz/FyuQyfz4eFhQV2WDUBNr0rj8dj8fzIp9Hr9VCpVJTvR1VHwyyWtlotrK+vY3t7m+nQ7cQJ0PMMXQeso6rpdICvi9NuFrC1tYVcLjeyavPdLhdSp05TT919/lvGSnnWQZ1H1sB1C4IqnbfqW+w4onmjTk+u6wA6sSuTSh/L589uABXv87rZTqdj8XB4XkIWLmS+2Ov1kMlkmN90t9sNn8+HcrmMmZkZzM3NIRKJYHd3F7du3YLX62Vx0QARi8VQLBYt7cXtduPk5ATBYJCpZwB7axjVzIb/7vV6aLfb2N7eZmepksjaAf88f1/cKUv3+Phk71D8L/P0aNfGVcRJ1u5k/VoMZxgGMpkMDg4O8OKLL2Ia5UKCuqyhyKZqFJbXQRNb4vWjFF7H0HX50DVEMZ98GBUbsesYTu+JacvyRdd1oM7nXex4fGcT0yMztCdhqWAYfVv12dlZtlh6fHyMZrPJDtEIBoM4OTnBrVu3kEwmEY1Gsbu7y5g6vyg6MzODeDyOvb09S9vy+Xw4OTlhh1TLWLcosvuy5zqdDjKZDHZ2dphnST4OWZn5AYFmEjTD4J8h//G02EqHY3S7XYt6R4yfT99p+xXLrnrGbnZBv+v1OtbX19l7mja2fiFBHZB3AnGqL7ILkamIz+v04MPmTQbaqgZtF0YVVnVNlyencfP5t5uai8/TdQKIJ6F+IRadSqVY2dPpNOr1OjvuLhQKMcdeiUQCCwsLODg4QL1eRzQaZeWgY/Lm5+fx8OFDlobL5YLP52NHxBGIiuRAB9yyD9VdPp/HO++8M2CL7lRM00QymcTzzz+PYDDIALxarWJzcxPHx8cMGJ955hkEg0HUajXcvXvXUo+q+h3nQO10MDAMA41GA1tbW+dOFCZFLhyoy9iNqNOmDk2nphjG480k/CKX+Iyqk1FaYvp2oOdU7Bq0nQpIdl18ViwnX16dGkh2TaZe4hkTxelyuRAMBpnHxPMW0zSxsrICr9cLw+ifglQqlbC4uAgACIfDqFQq8Hg8SCaTuHHjBn70ox8xPzF8XUYiEczMzMDn87Ft6vzO0k6nY9G5i+9BNgtUEYdOp4NsNov79++z3ZN26kZRDUjXYrEYfv7nfx7JZJK1/XA4jEePHuFv/uZv4Pf78eyzz+IP/uAPAPQPo3jttdfw5ptvsnqQlYfSks3gnDyjUrXoZoR0vdVqYXNzE/V6nZ0ZO01y4UCddguSv2wCb/LcRtcoHIEJLWTRtFocEHQLV4BcPTMMqKsano4FjyoqwJddczIj0amZCNAJyOndxONxRCIRfPSjH8UHPvCBJ2ZTnEwmLRYwZJtuGAaCwSC8Xi8qlQq8Xi9WVlbwv//7v2wxkq9Hv9+P+fl5+Hw+1Ot1pt5wu92oVqsDR9uR6NoU3QdgIR3VahUbGxsoFouMXetEd39/fx9/+7d/C5/Px9L+wAc+gF/5lV+B1+vF3NwcPvWpT+FrX/saHj58CI/Hg49+9KO4e/cu6vW6JY1hVSc6VaKu3dvNKsmvTSaTYf58pkkuJKhfu3YNL7/8MrxeL7rdLprNJu7cucNOSe92u2i322g0Gqwxi6oA0+xvt6Zn6JqMUYk6Z5ENOQFgXTi7RizGc5owKmZPHUPVQWTqFfFer9dDIBDAe97zHvy///f/8P73vx/PPfcclpaW4PGcf1M0DANLS0tIJpOMTZONN62p7O/v49vf/jba7TbW1tbgcrng9/vZIETv2e12Y3l5GaFQCPl8Hl6v19KuZOeViv91wE7Eotls4v79+2ynqpP3IWO+lO92u23xQU6z2MPDQxiGgYWFBSwuLuJ73/seSqUSDMPA2tqaxbe8k3oeZrbqZJDSzXRMs78J6+DgAFevXrUsak+DXDhQD4fDeOWVV/Cxj30M3W4XtVoNuVwOv//7v4+joyOL2Z5pmpiZmUEgEIDH40EgEGCARMxNpe+VqSdUwKYCOdV/WRwqEQcTFQsX1wNU+eHD8QMTX0aVrlyVL0qz3W4z88AbN27gIx/5CCKRyBObItMgMzMzg93dXXS7XRQKBYRCIQQCAWQyGWxubuLtt99GMBjE7du38eEPf5j5eeHrp9frYWlpCbFYzFJuslDhWS3d4+tGB+aURr1ex8OHD5HNZgEMkgk+Xl5074hmrdQn/H4/ACCdTqPb7eLWrVt444034HK52IEhxWKR1Z/YLnR5cJI3sS3LZr1iuUXVTq/XQ6lUwubmJl566SV2ruq0yIUDdVKp0MJPLBZDIBBAIBBgL5/sbwmQqSEDVjbOsyA7gFWBuO6anRrEjqHL4pE1ehLRBFE2mzAMg7EwVd6dTGdlHY7YLTFXn8/3RFmUYRjswIwf//jHCIVCKJfLKJfL7Pi297///fj+97+P+/fvY35+Hp/85CcRiUQYeFAZASCVSlkcexGoG4aBWq024FudnhWv8fHS70ajgb29PcuBHuMaCPn2cO3aNdy8eRPf//732WC0sLCAD3/4w3j55ZfR7Xbx3//933jw4AHq9frQs8izYOwyAtNsNrG/v/9EzGWftFw4UAesIOTz+RAOh+H3+y2gRrpzHqT4xi36zdClJfuWhRHzxqcpil1nEdmZKn1Vo5flh77FmYeMvcvil02JRfCi3Y8ECE9aAoEAOzDDNPs7SL/5zW8iHA5jb28PX/va11Aul/Gxj30Mr7zyCl544QUAgwviptl3LZBMJln7obUEj8fDNiCJDFTGssX7vV4Pu7u72N7ePtNTfbrdLj74wQ/C4/Hg9u3baLVaKJVK+OAHP4hkMon/+Z//QbFYxC/+4i+i2+3i3r170vzowFvH5kcJr0qr1Wphd3eXDYDTJBcS1EkIsMi0jKaZPHiJ6ggVsPG/7Rqk3UCg2yTiNA6V+oQHXhq8xIYvK4eqHsR0xHCiysAuz6b5WM/8pEGdNhjRyUXdbhdra2s4Pj7G/Pw8tra28OKLL+J3f/d3kUqlAAwuXPL1Q5Y84iHObrcb5XIZ7XbbMjNRgTh/rdVqIZ1OY2tri/mm0anWRBFnYuL74tuGz+fDU089xXTspmni8PAQoVAIb731Fl5//XV0Oh14vV788i//MtLpNI6OjizpyPIk3lORAvG+rO3JRHav2WzirbfeQrPZRKfTsbhBuOhyoUv5GNSNgS3cdE+1hV/G0mUN9DT5Gtf0mURs2DwI24HvKHkaBtD5ZzqdzoAPlSclbrcboVCInc9ZLpeRTqfx9ttvo16v48UXX2RWLTxY8/VFdeb3+zE7O2uxJCGmXq1W0Wq1BsBO5Y4B6DPnk5MTbGxsDJw8pJoRivdlA4AsjNvtRiQSwTPPPIO9vT10u124XC6USiWcnJzg4cOHaLVazGd5PB7H7OysoxmtjFQ4yZ8qLqo/1XPUxtLpNBqNxkS0s/OUCw3qJIbhQigUspjN8Q1Ax1zHqQO083MyKtDLOoKMveviH7a8FCfNBGQfFXO0W4Q+L6G6CAQCSKVSzOSS/OCQZQjw2BsiD0bibkWPx4PZ2VlEIhHLfgeXy4V6vW45Zk0EcRmwl8tlrK6uKgdAnapP9a5lBAYA22DUbDaxubnJylatVnFwcIBnnnkGXq8XvV4PR0dHaDabWFxctGym0gnfTvi86sog5ltsw3bMvVwuM+OIaQL2KQF1AzMzM5ZOKNuQpGINqg6lYhuqOFVblnWArBIVANt1EhE8ZGAuC696ViciwNB/MjOVzZLOWwyjb2O+sLDArJ9ILddut3FwcGCxEZeVh6+fZDKJWCxmmQnStJ9OQXLirKtareLhw4colUosTZmo3p+owtC1c7qfyWQQiUTY4qJh9HdnvvXWW3jve9+LRCKBbreLRqOBQqGAa9euWcqi60Oy/NrNHPnwYhy6OuHPnn348OHUnVk6NaAei8UGTkKnTifTcY9TPTLOeGTTZ/EeMGjhYhefjEmpniH2acfKVQMf78RrEhiU1+tFPB632OKTnXo2m0WtVmPlBgaBlNfXJhIJxONxBs7UxgzDQLlcVvp/oXbY7XbRarWwtrbGTAftVBt2YOpEnQH0T2ny+/1sRy35xPnud7+Ld955B7/wC7+AGzduYG5ujh2qYTcDdCJ2ZbAjQjpy8/bbb0+dG96pAHUAzPpFbCCq6eM4Qf0sRAbiIoNxAtCqQUIVfpj4VWE6nQ4ajcbAgRNPSrxeL65du8YGGl5PXCgUGFsm4duRWP+RSAQLCwssHp5pFgqFgev8s7S5aH19HUdHR2i327bvxe7dyYBd9bter+Pg4ICdyUp5rVQq+O53v4tOp4NPfOIT+OQnPwnDMPCtb31rpJ3Aw/QrO0C3A/b19XU2Q5oWmTpQl3UkERxF5qmaro4KRjLdvZOwsgFI9Z9n0rLBbJSOxdedKCoPgfwzFE+n00GtVkOtVnO0zf2shfyh0wyCzz/p1WnhUKUGoOvhcBhXrlwZqA+Xy8Vs1eka/+6Jqe/s7GBvb4/FS6IDLz4dXkcvPivmlb9Gz37hC1/Am2++ydoNrYHk83n827/9G7a2thAKhfDv//7vSKfTFp/rYhqqmaOKjIh5lZVd1d5VfXRvb29iFuXPSy60SSOJYfTdrMpMmvhOwAM6D4Zn2SD4+J0ya/E5mditF5yl8B2X10MTEyadOuk6RZ3peQuBOqlc+Py3221kMhnmy0UHkLQjM5VKwev1Wo7H83g8aLVaFisWHti73S729vawv79vAWWRbOhk2IFa1kY2NjZYnVB8VO5Op4NvfetbzGmZ0wFZB9SniUN1ne8XhUIBOzs7U+VbfWqYeiqVkvoX0bFPu2mvExlmQdGpnPVAMy4RAZJn6mQ/PAnlINe5oVDIAp40sB8eHqLdbg8wdZkKw+v1Yn5+HpFIxEIYeGsSUfXSbreRzWaxsbFhsUVXpaWSYdRisnC0IY/fy8HP9sgiqFwuo9lsDmX3PQwoDxNWdZ3qt1KpIJ1OO83mhZCpAHXDMDA/P28BdZVeUXZfFy8wODA4mSqTOGXpqnhFpi+b7o6aN12edesQdp1v0naVulwuRCIR5n5WrN90Oo1ms+noHbndbszOziKRSLCZCl/31Wp1wKf6yckJ1tbW2MEUdF0UmepHFsaJ2kO8xn/ERXN+cOafFQdtXb5UeRXPRrUrq9N+SWGq1Sq2t7cnYu3mvGQqQB3oMyj+ODES3vqF30V6Xg3grNQOMoY8KUJ6Wjo+bhLy5/V62W5Q0fdNJpNhh1ID+sHL5XIhmUwiHo8PgJ3L5UK5XLZ4C61UKtjY2GCbZEZl2Wct/ODAn0Mg5mmc+Rpm5iEbmID+rPDw8BC1Wu0S1C+a8L7TSegl8/4h7BZtxi3jaGg8cMhYzWnTEJ8/Tefl89pqtZ74BiQS0zRx48YNVl/8xqFisYhqtaqc0fFxGIbBjr5zu92WA6fpIGsa1CqVClZXVwf8wojxiuJksLYDRCfvT/be+XKqVCfjaBvjXA8qFArM9/w0yFSAumEYCAQC7JxFmfUJP53kLUj48KdtYDqVxThlGJWO0/hUHXzYeEgl0ev10Gg0HO9IPA+5cuWKxWMnMb5qtcoOlKbrwCC4UfhIJIJUKjVw0LRhGOwAjXq9js3NTRQKBQugy2ZYsoF6GPZKIuZfpnpxEo/qt/iMTuwIiF17c5pnt9uNXC6HXC53CeoXTWKxGGKx2MB1wzCU7jll5lqTLnznmCTAJKG8dbtd5HK5ifKid+XKFUSjUabzJ5BtNpsoFosD4A1Y3QfQNa/Xi6WlJfj9/gGb9EajwVQCR0dHA7tUh5WzVLGNO27ZIKIC73ESknw+zyyYpkGmAtQNw4DX60UwGBywbiBQd7qoOS6QlM0WhlkcU+VDjEc1KxHjdZoHu/SdPAv0wTCTyThegDwPoWP2xL0LdHiGaH6nAiiXy4WlpSWEQiELkPR6PbRaLRwfHzNA5+NUvWunDJp/Vva8E3XJqGoZlWrKjsmLwK4bSIatB5JqtcqclE2DTAWoA332RN7zeCF1gHhN1lB0lglO5bQDgx2wn0b1claMj4+f2Cz5EJkEZ0uUr3A4jOvXrw/otwGwDUgUnr7FOqO2tLi4iGg0aomDQP3g4EB5HJydmkE3mDsFb93AfRZtYFgwVqmNdHGp7pmmiUajgcPDw0umfpGEdGuqY61UagqVA653s/CMXLbJ5SyFt2smn+qTxJ5o41Cn07Hs/HS5XCgUCraOoXjGnkwmEYlEWBy810YxnrNYiKZ8jGvAlOnexxn3WZkcut1uNBoN3L179xLUL5qQe1WZyBbAxrn6zsu49ZO8yFQtds/InpX9d/KMLI8qoSPtqtWqbTrnJbRxiF/gpDorFAqoVCra82h5UI/H48xbI19PdBi66BBNFFlbFNOVpa8KI4ZVxa2b/Yl5GJeKRKe+kcXphK1T2Yg8bG5uotlsMmukiyxTAeqGYbBj7WT3RF/Z4n1gvKaHpxEZWMv06E7ya6fvPE2ZdXGQSV+z2WQn1E+C0IEZ5IIXeOyBsVKpIJ/Pw+12W7x9kvDldblciEajSKVSFqA0zb67ANnuVJkMo+8epg51qpZxvItR8jlsuroZAz9I0E7YbDaLcrk8kcYD45apAHWg/6JVp9bTiD4u073zFpmOV8fIZZ/zFKpv2nY+CZ2M6mtmZoa54eUtU2q1Go6PjwHIN+KIcQWDQSQSCQYqANghHLxljd1McNSZol3cTtI8Tds/C938KOlT+65UKtjb25uYzW5nKVMD6m63G8FgUOoTm3SeslN8eNE1hmGsZ0ZlwrpnZVNV2W+xfLqyDtv4ZeWT6expdkQueCcF1GmxlJy/Uf5JL3t4eGgJz3/zcRCBmJmZYXbv/K5lUgEMozLR/RfvOYlTDKtKk8pEIlNVDisqli1rj7L2KbYrlYdQ/l6r1cLq6urEtLezlKkAdepkiUQCfr9/oNETwKieHVbOq9HI0lHpC1VqEJ0OddhyqDqqGMY0TTSbTbTbbeZjfBLEMAx2XilvlWMYfbNXOgVJB5r0jNvtxvz8PLOAodkJqXPoN5+2LB7xvlPAVsU7TnE60zirdGXp6AbAzc1N5jDtIstUgDoAxsJkh2UQU5fpMCf5BPJhOpNM1eJETTNsfmQHSMg6GrnfJa+FkyJ+vx9zc3MArHVgmibS6bTl8GhRRAaZTCaRSCQG9Lh0opDotsLJ7MhpXdnNxEaN4zTxqOIel+hmHYZh4OjoaCpOQZpcxBqzmKYJv99vORGeFrVo4c5u5X9c4KOK08l0mb7tGrDqWTFN1TXdgCZbmOV/q2YLfJzk4nUSzinlJRAI4Pnnn7dsDKK6KxQKbJu/E6BKJBKYnZ21hCcfMKIFjCweUcR3YvdOedHdH0aVQjMtUdXmBJxlahc7YJdZoonxyPqQ2A673S7W19fZQeIXWaYG1AEgEokgFApJ7xGoi+xMZsJ2VjKq2kMVz3k8p1ITqCx0+Ovtdhu1Wo0dazcJ4vF4MDc3h06nM3B+bbValR4ELQMm0zQRDocxMzPDwJzK7/V62RrOac3rnOrknYKu0zTHzbJHTceO4PDfJycnl6B+kcQ0++dHRiIRy8smMOE3wfBshG80Z92Ih2GsKsuVUQeGUS1hiD3KGCS/CC2Lt9VqoVqtToxfdeCxP3S/388sdIC+yqTdbjPHUDrdLdAveygUGrB7J6ZOYXRxqGQUlYhdeCezRCdxjNpH7IB52GdkeSmXyzg5ORkpf+8mmRpQd7lc8Pl8Fp26bDoogtMwU1w+jFO1jcj4KLyOwemAXJdfmSWKk/idhCfglh0ywZeL/99qtdDpdCZq8crlciEWi2Fubo6BL7UXckLmlF2HQiEsLCxYvIOapmkBdSdqE7u2ILY1VZyyWZQT1YVKhlXpOY3Pbu1HVMmo4uLJGB2gXSgUJoZAnJVMDagD/U5GG5BEINQtJA67WDpMoxlVnzzKFNiJLn4csxEnLJKYb6PRmCj1i2EYDIwp//yAf3R0xGydRRASr/l8PotZI4XjF0j5+Om/+D1OtYhTvfl5qnPOUvg81Go1djThpLS3s5CpAnXyc00iMhZxsfQ8dIfnsUjIl8PprIGXceeP8kIHRUzSqTSGYTC9Oum8CbDpvNJWq8XYu2pnKMUzOzvLXD7z75oO0FDlgb5HGbh1YreTdRhV41kQhHH3OT6udruNk5OTC28BMzWgTgtUdCCw7L6OMdnFbQfOw4Cpk0atmlk4SVM2ZR8mHV1cOl2reI9UL5PgqVGUp59+GoFAwGK5YhgG8vk8M2vkB0lZ3btcLiQSCUSjUXaNVBtutxudTkc7KMhEVk9i3dqpRfjyyCxwhgFWsZ/IVHey9u0kf2Lbc6Jq0bUjj8eDdDo9UWs4ZyFTA+rA40Uwld5cpkcUdXOTLKrO4wQIdHGOMt3mO6ROx16r1SbOVp38oZOrZl61cnJygnq9DsC6RiDWEYH6zMwMotEoM50l8Xq9aLVa8Hq9ynzIVDAqAjAJbXNYVRH/rQsjS0N3TyfpdBqVSuVCO/WaGlA3jL6fjqWlJaUeU+fYa1SxA6vTpCUDEqfPOE3XjqnrWJhdPsineiaTmShQB4B4PI5IJGLZ0m+aJorFIiqVipIZk5BPmHA4jNnZ2YFDz6n8OlDn4x4VvHXs9jTPq8KNU1WkKrMdsPPCs3zDMJDJZJDNZieuvY1TpgbUaYEqGo1KG6BpmlIdp9OpHR+P7LeT54ZtaE6tMVcsOQAAIABJREFUWcT47ab2TqfidkxK9uHLSA69Js0fh2EYiEaj7Gg7vu7q9TpzF8ybcvKLqXw5/X4/5ufn4fV6LYvzAJi3RjEOWX5k33YqPbtBX3wfurjs0nEShw6gRxU7xi7GX6lUkE6nJ6q9jVumCtQ9Hg9SqdRAxyPhD0bgZZSGx3fgi9yARhHDeKzLbbVaqFQqE1VHhmEgFothaWlpQN/farUsh1Dz71emn3a73VhYWGCgbhgG23hEaY3LFcUkqWImUQyj721zY2NjotrbuGVqQJ3UL8vLy2zKK2OO4vXTdBKx4Zx3Q5Ll28nCppN4qY6GLZOYXrPZZOd1TsoAaBgGO1SFbwuUv3w+j3a7zcKqmDOB+NzcHNvMRGF4lc4oqothwztVn41DdHGeZT6cLOaTt8ZJam/jlqkBdaDPpEKhEHPBK75QlbOmURaAxGdFYDiLxiSCtcq3iEqc6Mft8q2zLBLzZ5om2u02KpUK011PygKWx+NBNBplflr4vGcyGUtbEdm2CNSzs7OW/RH8Aqtqdmgndu91mHcu++jCObk3rEqQf0ZUFTopq6ja4p/l/7fbbWxsbKDVal3YAzOmBtSp43m9XiQSCXZ6Dd0DYHG/yzcG2QDwbhNRt3qWg4tTIW+F5XIZ7XZ7YgCd2sr8/DxCoRCrO9J/53I51Go19p/C8795SSQSiMfjlnhojYe8NZ6l2mSS1DI6fTd/bZRZi27QoTrvdrtIp9MTt44zTpkaUCfxer1YXFy0TH2pIfCgIjY8cYo9LCCOOsV2KnaqHtl/JwunKubNy6gzAZ6pk576SQMPvWuXy4VkMolQKGQZAN1uN/L5PKrVqqVNqKbzpJ+nQ6jJn4xh9Dcn0SHUTtvHMPUzLHMmGRfY2bFr1f1hrzuJjz69Xg/FYhGFQoGp0C6aTA2o82wqkUgwF7z8fd58jReZGkM23eP/q1iI6p4sv6IMax6pA0mnbIgHKlWZVfnVpUVxdDodZto4KcyJ8huLxRCPxxloG0Z/XaZcLiOfzytZIX2b5uPzSsPhMAMVuk+26qo4dPkDnFlayYBdF1Zk0nZxiumr1DCjrr3IVDSnHfgbjQb29vYmctPbOGRqQJ3E5XLh6tWrAwcUAI8Zl6gGmOSDMkh4vSL9H1e8YicfZ9xk1nh8fKw8fepJCZkjkhCoNxoN5HI5C6vXAXwwGEQqlWKbmUjIVYBusFTJMOA2LBBOmqpm3G3ZNE3s7++j3W5PRDnHLZOPVmMWwzBw5cqVgU0fvFWCDPDtWLdOhSH+HlWXrcqDKl0n6djlX1ZO2SB3GiZGPjkmDdRDoRCuX7/OBnoqY7PZRDqdHmCk4n+aGZJjL36HKqlyeOauGhzsmDX91smw1lxO240qrF3blIWzi0fG2GV9QvzI8ryzs3MJ6hdFXC4XIpEIc38KWBs86TtVDW8YFQovTtnYMIBvZ54oqk6cTq91ItaNXZ5UcVBYYuqFQmHipsN+vx83btxgahNSwbRarYENLKr1CcMw2P4Iv98/AOoALCq/UQd7O3CUhR/2/ave7ajqRCf3+PujArD4fLfbRalUmpiF+XHL1IG6YRhIpVIWEzO+UZKpEy92nu3s0jsr88VhwNPpM05ENsiNEj/VK9mqN5vNiWJOPp+P2ZgDj61fTNNkMwtqP6KPfloQpfpIpVJsh6q4IN/tdhnAy5jlWajSVCIOTk5mpHbxDhOHboZ52nqgd2WaJjY2NlAulyeKRIxLpg7U+YUr2mzEN2S+o/JgOCywy6wg7NQcw6hyxOmvrCOIU24xnG4hVWX1wlt6iGmrFu5k9/m8N5tNNBqNiTosA+jrvCORCILBIGPrQD/vxWKRefsTiYFYp263G4lEQnoINR/vsCoSXsSZmN0sTnadbw+q8sjaNV1XLWrqVDV2M2LVf11fcCK5XM5iwXSRZOpA3TD6fj34s0qpUbhcroFj7UiGAXVVw7JTW4j/R2ERImjz/2Wd02meZOF4Mz7VoKKLn8Cn1WqhXq+z8z8nRcjL4tzc3MBgVi6XUS6XAThTz0WjUWZJAzyuG5/Pxw6hHkV0IOy0vQ4DbHaM/LQgydv7D5u+U+l2uygUCsyHz0WTqQN1MmmkwzLETkEmdmLnG6XTiQDLf+vCqz5O0xTT4QFJxnic5kmWjpMy2MXdbDZRq9WYS9tJEZfLBY/Hg0QiwdQk1E6azSazrRfPaAWsLNU0++fjzszMsPu9Xo+B+bDvWBQZ0J2FxdZp9OJiuNOA82nVQL1eD6VS6cL6VZ86UDeMvn1wIBCw7BQVQZ06oziFdKqTtLtG14cFVTvg1zF1Xf5kKhVd+mL+VP/FOER2D/S9FZbL5Yk7P9I0+4uZV69eZdZSBOKtVgsnJydK1YnYTngXvBQOAHPJKz4jPq9yQqcKLxvA+bCy9GQDgRjWCVPXAa4Yl5PBZ5g2oVLFiPk/OTlBoVC4kIulUwnqfr8f8Xjc4vJUBB5VpyKhcDKQkoGcqEt1ynzFME6YsG6g4Bs85V/8iHE7ZUA8M1XtsJRd6/V6qFarqNVqA0cKPkkhArCysmJxnUuDfz6fl87EZGquYDCIaDRq8atumv3TuMhrowgwsnjeTTrgSXmPJDxTp8X5i7irdCpBPRAIYHZ2Fh6PZ4BBmKbVr7poraBinCrGqmPLOkZrx3jtQF0Gzvw9VXyqQcouX3z96oSPg6/zarXKHGVNkpAPmGAwaFlY7/V6SKfTbFYHPF4jEOvDMAz4fD7E43HG+KmeRb9CYt3aMfgnIU5nrU9SZPnjB1zTNFEqlS5B/aKIYfS3gMtOnSFQVwGYzLObrCPzv3nwOg17kamC+HhVzFpk5+LMQZwSqwYdGZOXDWR8eqqw4nS4Vqvh+Ph44nyrA/1FTgJ1fkDM5XJsw5RYfyKgkG6efMnwQmFVqghRpeBEBcL7a9eJSr0iewcy1Yadiuc0aYplEdN1MoPUqWKOjo4mjkSMQ6YS1AEw9kXCA1m73YZpmky/Lls4VYmT+7LwqmdGBTgd+9axc3HQkg0CKjB3kheZuFwuNBoN7OzsYH9/f6L0nG63G8FgkDnkAh6Dby6XG2DqIqASyLtcLqRSKcRiMctATGFo0dQp+x2FJU/aYCnKeTF/qvNcLsccql0kmVpQTyQSDNRFlkt6XZ6Z8jbKdqJTi9ixfF18w3zEuFVpq5i3blCQ5Uml7pGVgRfqYO12G7lcDj/+8Y8namcpmTUmk8mBgU1k6jyoi+DudruZt0axDVGbO2tQm1R1yXmrcmiQPT4+vpBmjVMJ6r1eD/F4nHnOA2DpjOKiIW8OqAI1EhmD1TFb1RRxFCDXDRo6QFWlJ+ZJDKubAYgiTpdFNk62wz/5yU+QzWbRbDalZ8aetxiGgWAwyPyqUzsAgFKpxJieOLvhr9Ez4XCYmUfyYWhQszuE+jRlGDY8P2vQtRvZf/G6nYpEloYsTf57mHTE8tD/XC6HXC6nzNu7VaYS1IHHBxcAct2xDKh0jVPFYnVhZeFOexrLsAONLJ9O2LuOpdsBvCpfjUYD1WoVb7311sRMiw2jbwETiUQs5en1eqhUKqjVapa2oStvIBBAIpFg4fh2pTp161LOThqNBiqVypPOxthlKkHdMPpOlpaXlwcAm1iUbDqsYgN2TFklMuA9DUNXsXQnogJwXTnEulDlRTdToPuG0d/Q0263cfv2bZRKpVMNbuMQvnzhcJjZmFO+6vU6KpWK1JpIjMcwDOatkTdfNE2TueA9bzXEJMl5l5tIRDqdPtd0z0OmEtRN00QgEMB73vMeAFaLD/rd6XQGXK6SblTVacVOqQNdnuXSR6Vu4Nmw0/LZsXOd6AYvWTqiWsZJmvw1mg53Oh3kcjlsbGwMuLZ9EkL5c7lcmJubg8fjscxKyLukbGGXLxuJ1+tlprSy2Y4TNcKodaJS8+nC6NoJvwgsK+tp88jH7aTN8ved1mGj0cDGxobjNN4tMpWgTlPqpaUl9p//0MuVmTYOe16pjv3qwss+KpPCYRvlWTbg03QQcolaKpXw4MED1Gq1M8ihc+EBIJlMWg65oHZCi6WizlY2i3G73UilUpaNTCS0AYlvf5Mq/Ds+j4FXRZpk+XIifP+mDWSTXufDyFSCOtB3q/r0008zv+riS+V3m4rXnXY8lfrCDpSdPDeqTELjleWBylWr1VCtVnH37t2J6XAulwvhcBiBQGAgL+l0mtk68/d4x1R0nWzV+cMygMcDBE8iRHnSsxaZ8DPIs3hPOude4ixXvKfKC5/XTqeDo6OjiTuc5bQytaDu8XgwMzNjObgAGNw49P/Z+47muNLr7Od2up1zowNCo5EBAiQ4JGcozkiambItWy65ymXLG6/t8s5/Qb/Bay9c3sr2wlVySbasGc+MSDANiJxz7pxz+BZd5/Dty24QzCLxnaouoLtv33zPe97nPOc54ucEvyix1U7OuFPEdh6UoozKxX15Hlul0yDRLjfwOq2TE+rkvNvth/h5JpPBwcEBHj9+/AwE9raNoCGz2cy0RnF/qAr2vMiV1qHRaGC1WqHX61tYQHRdlZXLorVznOflNC5iL7Nsp3u904xS3Nfzou12MhUESYr5h05Ql/gb5cxY+SzQYFGtVnlQ/kOqjXhVu5ROnS6sxWJhkaV2zlyM4sWb5VUVG1/mdxd9YC8yTf1DNPFhy2azyGazuHfvHneoedfRularhcViaXEOarUayWSSmSv0aqfYSA7farUylVYcCNRq9TMMmFdx5BdxvkpcvJ3jPm/dyuN73qxS6ajF13kEBOVsoB0MqVQhpW1Q8SC9xILCWq2GQqHwQTl0ANA8f5EP04gB4/V6uYpRjJiq1SoMBgMqlQpqtVpL+7tOEEynG1P5oCpZH52W7WTtlnse1ijivS9qF92vFzXxYVae+0KhgFgshqWlJVy9ehWyLD9z3mkwfhsDmNFohM/nYwdAA1Amk0GhUOjozOk46b3NZuMCJPH+ociR8HblMSm578rPldZuRie+f14ivNN22t1LSjJBJ5nn522/07VUBlziINluBtDu2VCuQ61WQ5ZlOJ1OxGIxaDSalhnU+2yX0qnThdNoNPB4PC1REo361Wr1mQgeeJrwEqfLz7sRznOK5z1InRx3O4dw3vqVN/R51u54X+RGV0JE4ueNRmddemXUlclkUCwWcf/+fbhcLsajCf4iJ0oSym/auet0Ovj9fo4SaT/EZhmdTITujEYjDAbDMzkbSZL4nqP1K+EzpeMUvxO/p/+V0Xq76FkcWJW/Ud5n7WYMkiRxLqDTfan8XCk/rNFooNVqodVqOd9AQRSdB/qNWq2GTqfj6y9JTdIDwVsajQY6nQ46nY4/o2tF66V9om3827/9G/72b/8WXq/33Ov4vtildOpkarUawWCQKWZEKaQbVYweiZ1A35Nk6nmO5E2P+i/qoF/WlM7lIsu3g4HaDRid1pvP55HJZPDo0SN89dVXKBQKmJiYwD/+4z/CarXyg16r1WCxWF720C5sBoMBgUCgBWogXfVMJtPx2ESTpGZ1KnHVxQRdvV5n6WH6vFNUKw6MoiQB/aV9o4GEHCL9ThxQ6H+dTseOlZwh7TPNStRqdUvSWFyGvhP3i9oBKnn4ojOmY6T9rNVq7NjpHNGzKQ6OdB2KxWLLDI9yZKVSqeVcAuBnlgIHKh6jAOJDiNKBS+7USWRJr9ejVqvB5/MhnU4jmUwCAN9QYgRJNy5FDCTdeZFo/XnLvWxE/Lzl/hCs0/4qzws99PV6sztNPp/H/v4+arUadnZ2oNFo8Hd/93fw+Xx87svlMkdvb8rIQSnFusipK02MfqvVKsrlMvL5PLa3t7G9vY1KpdICW8iyjFAoBLfb3XZ2Jc4Q1Wo1R5zkcCkwIS49OUG9Xg9Zlvl3IjRCy5BDJqdHeLRyBkQzWtomtX8kB07XQsS4C4UCQxvFYpGPR8SyqbUk/S6fz6NSqfBxUTVvrVZDsVjk51Oj0XBOjGDS4+NjjsrtdjvMZjM7/LW1NT5uq9UKh8MBAJwXaTcQv492qZ26Wq2Gz+eD3W7HxMQEHA4HDg8PcXJygmQyye2uJKlZ7UjTOzEKOk986nk3yfPglvOwx07vLzJoPA8Oare+iw4iL4r3t3Ne9DeTyXBeg6Lh3/zmNxgbG8Of/umfolAoQKVSoVQqwev1vlEIhhLrsiy3iHjVajWWCxYVPck5lkolHB0dYWtrC0tLS5idncXq6ioAMIZbr9eh0Wjg9/sxNjYGWZZbnF6j0exlSs5KpVKhUCiwU6bomRxhrVZraTgiRscUwNC5A5psI3LiXV1dyOVyDAVRg21JkuBwOOBwOPhaJJNJnJ6e8gxkaGiIz0GpVMLCwgLno4LBIPr7+3lbc3Nz7OQNBgNu3rzJ525rawvJZJIHzZGREYRCIW5scXR0BK1Wi1wuB7PZjB//+MdoNBqIRqOIx+MwGAwol8vY3NzEl19+CZVKxXIOFMnPz89jYmICbrcb8Xj8g5LgvfRO3e1244c//CHfiI1Gg5sZxGIxqFQqGI1GxONxlEqlFjwVaEYLSmleMiXe+TLRdTsH+SLO63nrOu+9cr/Pi7TF3190IFAur/y80Wg2pVar1ahWq6hUKqhUKnj48CEkSeImB9evX4fT6eRr8iZMrVbDYrHAYrEglUrxfkqShGw2i0qlgmw2i9PTUxweHmJrawuzs7NYX1/H6ekpF1IRPEIOSzz2dDqN3d1d5HI5eDweGI1GjoxXVlaYt6/RaDAxMcEOOp1OY2VlhdkdPp8PV69eRblcRrlcxvLyMrfeq1aruHbtGnw+H0MPW1tbPAipVCp88sknkGUZ5XIZ0WgUxWIRarUaa2trCIVCuHLlClKpFGq1GkwmEwwGA6LRKL755hv80R/9EcrlMkqlEoLBIAwGA0qlElZWVgAAfX19SKVSCAaDDOMsLy9jYWEBN27cQK1WQzAYRCgUgsViQTgcxvr6OrRaLXw+H7xeLxwOB4xGI2q1GpaWlnD37l1MT0/D5XLxAKPT6XB0dIT/+Z//waeffgqbzcYzO7PZDLvdjsePH6NSqcBoNLbNn72vpv7FL37xi3e9E+/KKGLZ3d1FJpOBLMtcDm42m9HV1YVQKIRQKASv14uTkxPWhBGnpJ0gBPq/k1Ns951yHeL3F00IKtfbaTviesXP2u27cl+Un3X6X/lZp/W2+w3wFL4gh6VSqTAyMoKxsTGYTCaYTCaUSiX09vZy0vRNWT6fx1dffYVsNgu1Ws2YcCaTwfLyMn75y1/i3//93/GrX/0K3377LdbX19kpKuUglMdI0bbJZEK9XsfW1hZkWWZufDabhclkgsPhgEqlwt7eHlwuF4xGI4rFInQ6HbxeLwKBAOLxOMLhMPr6+jjidjgcCAQC8Hq9WF9f5+5f1WoVZrMZPp8P3d3dKJVKOD4+ZlhDrVbDZDLB5/PB7XZjc3MTlUqFK2MlSYLFYoHL5UKtVsPy8jJ8Ph/0ej0/K2azGR6Ph+EPYhGRaFtXVxey2Sx2d3fR3d0NSZKQy+VQKpW4DeDm5iaMRiM750wmA7VaDb/fj0gkgnQ6ja6uLuj1eqbBOhwOaLVa7O3twel0wmKxoFAo8HqNRiOWlpag0WjwxRdfwO/3v9H7523ZpXbq1WoVGxsbWFhY4BtQpVLBbrejUqnA4XCgq6sLNpsNPp8P+/v7iMfjLRAM0CodcJ6TVkbNnV5K593J6SmdcLvttxsIOg0QnZYRK/uU22336rTc8waJdoMOOXXCaKvVKq5cuYI/+ZM/wcTEBHp7e2EymSDLMifl3oRR8u2bb75BMpmETqcD0BT1Ojg4wO9//3usrq7i5OQE6XQaxWKxBf5od08or5lGo0Fvby8sFgv0ej1WV1dhtVqZ9UMOtKurC6VSCUtLSxgeHm7B0w0GA9xuN7a3tzki1mq1KBQKHFVbLBasrKzA5XLBbrejVCqhVCpBr9dzXml/fx+Tk5OoVCrI5XJoNBqwWCzo6enB7OwsnE4n7HY7yuUy0uk0DAYDuru7EYvFcHx8jJGREQBNaKfRaMBsNsPpdGJ5eRl2ux12u50HK61WC4/Hg0gkgrOzM/T19fEMqNFosAOenZ2F1+uFzWZDsVjkWYzX68XOzg6SySRCoRAqlQry+TwkSYLT6US1WsXKygqGh4chSRLi8ThUKhUMBgPi8TiSyST+/M//HL29vW90tve27FI79UKhgP/7v//DwcEBgKcPm06ng8fjwfr6OuOTWq0W8Xgch4eHzBAgZ043gpJmpozmRbaB6Iw7OcWXcZBKLncnmpvS2g0+lEBT/m3n7JX70G4/RSrbRQYCSZI4sqV9r1QqGBsbw82bN+H1epm1US6XYbPZ3rhTf/jwIc7Ozpj5RMlTgjdoWaUjv4jJsgyr1Qq1Wg2n0wmtVou1tTV21NVqFel0GipVs3EHADx58gQ+nw8WiwXJZJIZIIFAABsbG8hms+jr62MHCoAbYD958gRutxsWi4XhI9p2MpnE1tYWAoEADAYDMpkM8+i7urowNzcHWZbh9XrZidbrdQSDQaRSKSwvL6O/vx86nY4xesLkHzx4AKfTCbPZjFqthlwuB1mWEQwGcXp6ilQqxTOBXC4HSZLg8Xig1+uxsbEBq9XK0FQ+n4fFYoHT6cTR0RGSySTDMPl8npuTpNNpbG1twePxwGq18kwgFoshkUjgpz/9Kfr7+1vqUd5Xu5ROnaK+bDaL3/72t8jlcuy0yPH29/ejUCigr68PPT09CAQCiEQiWF9f50hdGe2KVDKRJdMpsm3npDs57E7OE3g26m/XpEHJQVa+RMcpFtiInPCLwi3tHLxyfzvBLrQ8DSAUndN+lUolDA4O4vr16+jq6mIHWq/X2SG+KatUKjg+Psbh4SEAcFOLarXKGLN4PV7EKFL3+Xx8vIThr62twWq1wmq1tkS3brcb9Xode3t7CAQC0Ol0KBaLqFQq0Ov16Ovrw/HxMSKRCPr7+1Gr1Zip43a7Ybfbsbi4CIfDwQ6WktM+nw+xWAyRSARerxcajQaFQgGVSgVmsxk2mw3Ly8vQ6XSwWCzMWqnVarDZbEgkEjg9PYXL5YIsyygWi3yO1Go1lpeXOW+gUqkQj8c5gj45OWHteY1Gg1QqhcPDQ1SrVY7QfT4fBy80g6Zkr91uZzbP6ekpzs7OmDHkcDggSRJkWUY2m0WpVIJOp8OdO3cwMDAAWZZf4x3zbuz9H5Ze0ur1OiqVCtLpNICnzAvCPfV6PQYHBzE6Ogqn0wmDwYCjoyP87//+b4tEruiMlLzidlNuMVEmrqPd/8ptKJdTRuT0MplMbTFsJUSk3C86Do1Gg3K5zAwgvV7fVlnwvP2lfep0jMrfdWLNtFt/tVpFqVTi/RULkt6k0fZEBgwAxtdflRZHOQOr1crsD5vNhp6eHjx48AA3btyAzWbj4iwA6O7uRjabxbfffovPP/8cQBPySCaTsNlsCIVCuH//PrxeL6xWKwAglUqhWCxClmXodDpsbm7i1q1bTC0k2WOz2YxwOIxSqdSyX9vb25w4zufzLRpKx8fHKJfL/J7uO4vFgpOTE2SzWeh0Ou5lUKvVoNfrUS6XEY/HATSTqQTt0KyEHLbD4YDJZEKhUOAoXKfTMa1Vp9NxzkKr1WJgYIBZQWq1mskQFP3bbDbs7Ox8UM0yLqVTpxuNpoyiU5AkiXnFHo8Hfr8fgUAAWq0WoVAIZrMZiUSibQRNkb7oXNolUUVn1Q6yod8oI/FOTBMxyjYajfjrv/5rBIPBZ46NohVy3GK1nU6ngyzL/KAfHBzgX/7lX/Bf//VfsFqtbQt8zotIld+JD3g7B94uJyEeG1Hl6JyJdFNxpvEmrVarYW9vj+lv4jW5qGTBefRXCjSAZlOOo6Mj5nkDTT41acdUKhVsb29zEtlms/E6DAYDEokENjc3IUkSenp62PEBza5f8Xgc2WwWPp8PJpOJGTzUt7dQKECn02F8fJwZXhQFWywWnlHJsoxSqcQ8fioME+FJoHnNent7W2aqwNOBzOl0MoOp3b2h1+v5nItFT+JAS9eB+PiUyCUOO7FyaPtms5lhpVQq9cGoNV5Kp044bSKRaKuFTU6CKtvoRjObzfyZspQbeBbuAJ7ViVE6Zrrx21Wn0mfK3yodJDk0WZbx93//9/jJT34Co9HYdp3KCL1TxG42m/E3f/M3+PWvf41UKtVyjs6baXR6/7z9EE3EpAl+IUqjStWsMtzf34fX60WhUEChUEAoFHpmPa/T6NwbDAYudmk383metRvwyYhySJFmKBRCtVqFXq/HxMQEKpUKJ43JgYozqHK5zA7Y4/HA5XLxdmRZZkgrn8+jq6uLWTNUnk/OkKALCgQMBgMnYilxSvcucexVKhUPHASTqNVqHnyJyZPNZvl8EZuMKrslSeLKTsoH1Go19Pf3IxQKIZfLoVwuY2trC4lEApVKBVarFT/4wQ84At/c3MTp6Sk/U7dv34bFYmH8/ODgABqNBplMBr29vRgfH0csFkMul2Pe/Ptul9KpA0850OVyuSUKEJ11NptFLpdrUXzrJI/azvGKUanyAVZCFMqIXrl+4Nn+paJTB4Dx8XHcvn2bYSW6sdvh5+L6lap39B0VbFAvx4vi1ec5ODEKF49FZPDQOaMBj2oIaIqt0WhwdnaG+fl5ZleMjY29UfiFHJzf78fi4uIz31GF56sY3WPEyydHSnx2onWKTpoGF8o3UABC9E46x7FYjK+xyIKpVquIRqNIp9P8W7/fz5TEYrGI9fV1vl4ulwuBQIArYjc2NlAsFvmaUWSv1+uxv7+Ps7MzAM18RE9PD/r7+7nDFQULtA+Tk5MwmUxIJpNMw5QkCXt7e1CpVOjp6UGtVuPZgizLCIfDePjwIa5du8YRPzU0SaVSePToEaanp2G1WmGz2WCxWKDT6VAqlbC2toalpSXYbDak0+n/H6m/71ar1ZBKpdoyFgiOODq2p+UGAAAgAElEQVQ6gizLrHMRDoc58qDpqBhpi0lGpYMUtyF+Ji7b6XuyTk690WhWHFqtViwsLHCyjCJc2i+CMJSMEooOxRJytVqNaDTKXGJa33nHoTyPZJ1wd3HAE526uIxKpWKnTkk6s9kMg8HA/G9ZlmGz2dqu43UZ7SMxbJQQ2cskaJUzn3q9jnK5jPX1deTzeUxMTMBisSCXywEAVldXufDJarVienoaWq0WtVoNp6en2N/f50jd4XDg5s2byGQyKJfL2N/fZ+x/ZWUFU1NT6OvrQyaT4cFbpVIhGo3i7OwMd+7cAdC85ywWC8xmM7d/q9fr6O/vRzabhc1mQyAQQL1eRywWw8OHD/Hxxx9Dp9PBbrfDarXCYDCgVqthbm4OpVIJV69eRa1W44bekiRhe3sbMzMz+Pzzz2E2m9Hd3c1yx+l0GjMzM0xgAJrwkMViQXd3N2ZnZ7GysoLbt2+j0WggHo9DkiSGexYWFnDr1i1YLBZEo1EUCgW43W6Mjo5idnYWqVSKK5I/BLuUTp1wc6rQo8/oL005V1ZWsL+/j7W1NRiNRmxsbCCXy/FDLSZMaVoMnK+Qp7R233fCXZUyq+LyGo0Gu7u7+I//+A+Uy2V2wuIyYgm7MoJvt10qNSfH+rJ4sXIA6DQgiIOB6OhF6qjdbofRaGS4gKb9JM37Jk2lUjG1jpwrQVxKKO5FTDxmogWm02ncv38fn3zyCdxuN3OwqVpyfX0d33zzDX76059ystJqtTJX/+HDh5idncW1a9cgyzJ6e3tZITIQCGBxcRE2mw12u52Lf6xWK/r7+7G2toZvv/0WP/vZzwCAk9IejwdutxszMzMwGo3o6elBo9Fs6We32zE4OIharYaFhQV8+umnsFgsjN2bTCZcv34dDx8+hNFoRG9vL+r1OiKRCCwWC0NN9+7dw2effQar1cpBhU6nw40bN3D37l1IkoRgMIhSqYREIgGDwYCJiQk8efIEv/vd7/Dll18CAFeD04Dz3Xff4Sc/+QncbjcikQiSySQsFgump6fx3//93xgdHf1gdNUvJaWx0Wggl8vhyZMnODs7Y5lOMnoIvvrqK46g6vU6dnZ2WFRKpPpR+TpFxqIgv1KUv9NLhHc6vZQwChkp/xFklMlkWIGuUCggn88jn8+jWCxyoQlFvjQAiLolNADE43EUi8VnoJGLvIDna9mIxyAeIzlKcth0vhuNBgYGBtDb2wuPx8Pr6unpwfDw8BtlwNCMJpPJYHZ2lllTdLwk7PU85c7nmcPh4OpHk8mElZUV6PV6OJ1O5pJrtVpYrVbUajVsbm5yslPUi3G73Tg6OkIul4Pb7YYkNfWLKKmq1+vx5MkTGI1GOBwOhtnUajVsNhvy+Tw2Nzfh9Xq5apfyTHa7HRsbG+zoAfCMzuPxoFAoYGNjAz6fjxOplUqF9cu3trag1+s5+U51IF6vF+VyGScnJyy0R2QGqlrd3d1laIZYUAaDAR6PB+l0Gqenp1wVTowWq9UKjUaDpaUlOBwOWK1WFItFDsq2t7dhs9nw5Zdf8vG8z/b+18S+pBUKBS7kEI0iRMIrqdCIcDglTAOgxTGSIxcd+kUduxhFd3LqtF1ishD0QI6P1iNS/USNaYKTjEYj/yUNDqrco/ckYkbHKw4s5w0y4rkUj0lpdCyyLMNgMPB2ic1gsVg4MUmOkopS6NxTNeLbMIJfiK4n2usqWiHHXSqV4HK5MDExgcePH3NxlUqlQjKZRKPRwNDQELRaLZaWlmA2m2GxWFAsFpHP56HX6zE1NYVoNIqNjQ10d3dzCX2xWHxm3WazGRqNhmevV65cQbVaxeLiIsxmM0wmE8rlMgqFApxOJ0ZGRrCysoJwOMz3EpXnB4NB6PV61ugxm82oVqtcKDQ+Po7vv/8ex8fHTElMpVIol8sYGxtDpVLBvXv3mANfKpWQyWTgcrkQDAbx6NEjVKtV1myJxWIAgOHhYRwdHSEajUKr1cJoNCISifBsoFgsYnd3F5LU1IfJ5/PY2tqCStUUSPtQaI2XEn4B0KKDrcR/SWKUHA4tQzxkSk4R5EJCX+1MxEufZ51gkHZMEfqfaHC9vb1cjKLknNP/5OTpRcuVy2VEIhEcHx8jk8lAr9dz/oCc53n71Om78/YfaM6IJiYm8MMf/pC1yhOJBP71X/+VB1AxupckiTn4dI2o1+ybhl7ovqCBBmg9J69z+yaTCel0mhkuV69exddff42bN2/C4/EwLixJEq5fv475+Xn85je/wZ07d2C325FMJpFKpWC32zE1NYXvv/8e8/PzCAQCTGekyHdkZATffPMNbt68CYvFws9FrVbD9PQ0Zmdnce/ePXz00UeMVxeLRVitVvT29uLu3bv42c9+Bp1OB4PBwNK3gUAA9+7dw8HBAUsfxGIxRKNRjtLPzs4QCAQgyzLq9Trj9WQkE2A2m3F8fIyNjQ2mVRL1kzjuNHOgJG+lUoFGo0EgEGBqaDAYhNvt5lmF2+2GXq+H3+/nwinlbPJ9tEvp1Im7msvlnmEtEHacyWQYtyXL5/M8laQkqTIKbQcvvCzWqsTbRalVctgGgwHj4+MYHx9nPWxlRalyfSKG22g0uDkCOfpUKsXMBOXy9F6csbSjRSpNuU1aV3d3N+7cuYMbN24AANbW1vDP//zPbaEcrVYLk8nEUAwlSUlv+02bSqVq0ScXoZbX5dSpFN9oNHKrPL1eD4fDgfn5eXz88ccMacTjccRiMZhMJpyenuLg4ABut5t553t7ewCag8T+/j4cDgcX7CSTSRwdHfFsL5lMwmg0ckn9yckJJEni/AXlZxwOB+LxOFdpDg4OcrCj0+lgs9lQKBRQLBYxOTkJh8PRwo+nwXpgYIBllVUqFePsFCzJsgytVss5nd7eXnR1dUGSJM6f0Dkn3XQKUsRnutFooLu7m1ltyqpmo9HIsGU7IsD7aJfSqQPNqjsqRBCdUr1eh06nQzKZhF6vb0mKEmZJWJyoZUKmZKcov3+eiYwQJdRB26T9NBgMjBEeHx+3MFiAp813ab3i+pSfEe6u0WiYDknQk2jK2YLSwbc7XnFWQX8JlkqlUkin06xOeHh4yJWEtG4631TZSnxq4ki/6QYZwNNrSUqBygH9deH5BNtRsn5/f5/vOyo6AsCyu4eHh5wQJCYJYdAAUCwWEQgEeIZDuLjX6+Uiot7eXgDgbkEmk4mLiAhWIm46SfvS8atUKo58G43GM+eHrh/NrGiWQ4MXzYBIUE+j0fDxE2RIv61Wqy35FVovYe90HdLpNMrlMur1OgKBAIAmrKVWq1n4S6VSwefzoa+vj2c9hUKh5Xq/r479Ujp1SgrRTQG0tvrS6XRIJBKwWq1801FSsZ2TUzrvdo7vvO+U+0bficlTsaKS5FC7u7uRy+Wwvb3dgsuL0Tz9T8dB0AW9J6coYpuiaFm741Ie83k3v5LNQn8J9onH49jf3+dk4/7+PoCnMybxt+S0yBnU63VOqL1pEyNDUmgkpyYe06s6ArHC2Gw2Y3JysoX9QwVKjUazs4/L5Wph3tBgUKvVuMqSBmi6N0jHRazPoPUT/71Wqz2T/CcsWqPRtCQa0+k0SqUSi30REUGj0eDg4IAHpe7ubng8HtZa2tvbw+npKRdTjY6O8rZPT0+xvr7OxzQ0NIShoSGWQFhaWmopfrp9+zaA5uBD95AkSZibm8Mnn3zC6pME15E8QjQaxfT0NBKJBA9O77tdWqdOF1DpcGmKvbe31yLuI0p9dopIxfXRgyIOAs9z6MrvKaqmB0zcR7fbjRs3bmBwcJAb5pLjIWdNUQ1BNeL3Yrk2LVupVPDrX/8ac3Nz/JCL+/o8+EV5jsVjIidML/o8nU6zXkipVEIkEmmBNsT1kHAUTcsB8DG+Tevu7oYsyy1VpeKxvopR/QNFvVRVqVarkc/nGSYgPfRKpcIJ7YODA3a2lFQkrZXDw0OEw2E+/8SBp9Zxq6urDI04HA5MTU1xoHB0dMSkgnw+j76+PvT397M+UDQahcFgYCXE27dvM9YtQntLS0vo6enByMgI8vk8TCYTBgcHodfrcXJygtnZWXz66acMK9I+VioVLC8vQ6PRoKenB5VKBUNDQ1xEtbGxgcXFRXz88ccAAL/fz1BdX18fVlZWmM5JEJDVaoXT6cSjR4+wtLTE5+J9jtDJLp1TJ0dJDAIR6qDoVZZlpNNpZmKo1WruY6iMyDo56vOWOc8htouGRQdHv5VlGZOTk/jjP/5jOJ1OdoTiIPI8nFe5f9QeTMQylfvzvMHoPBP3h44pl8vh+PgY8Xicp86kD67E1E0mU8vsimCG11HN+SJG5fmi0WD7qtZoNJBKpbCxsQG9Xo9r167xgBuLxZhSW683m0BMT08DAN/TBK+sra1x5EzRNjFcstks5ubm8Nlnn/HgRI5QrVZjf38fi4uLmJ6eRjabhcPhgMfjgSzLyOVyLdRAo9GI7u5uGAwG6PV6zM7OYnFxEbdu3eLZhphgXlxchN1uZ+yfKIkDAwOoVqt4/PgxPvroI9jtdiQSCTQaTT31kZERzM/PM9uJZhGVSgUjIyNYXFzEw4cPcfPmTc4LFAoF2Gw2BINBzMzM4Ec/+hEsFgtqtWavU4PBgNu3b+O3v/0tenp6kEwmW4gG76tdSkpjvV5nDE6JgVPkR8wPeliz2ewzTXfbvdpBH8oIWck+UX4mLi9CJKLzogSTyLEXHT9N00XdFHE63e6lTLCSAxfhG+U+vuhL5PgTDHB2dsYKfsRZVg5qKpWKH0jS35EkqQVnf1sPIkEQnQa3l03aSpLEg9bVq1chyzJmZmb4vFMEffv2bVy/fh3FYhGPHz/m+2BgYABTU1OYnp7GzZs3sbS0hMPDQ+485HK54Pf7MT09Da/Xi9/85jeoVqvscDUaDWw2G8bGxpBOp1kz3W63c5WyzWbD1atXsbCwgHg8zhx4ahI+OTkJjUaD7777jqUISHaX2DiPHz9GMplkidxIJIJKpYIrV65wizqz2QyHw8H1FU6nExMTE1hbW0MsFuPOTFRtOzw8jEqlgrm5OWYN5XI5ZLNZeDwehEIhfPfddyiVStygg7RePB4Pkskk9yp934uQLp1TJ0qi2NlchBdIfpQa+5LzEAtLlK+LOLN2v7vIS4RTRCyZ+mGKg5MIbyiPuR0TR4yG6XNKnrU7rk7HfNHzIUb95IhrtRqi0Sg3G6aBVblvhOfSAEYwjNlsfoN3S3vr6elhkSvxJXL6X9ZoMJYkCaOjo/B6vfj6669hs9lgNBpZN0WSJNy8eRP5fB7b29vcCi+VSiEWi3Ez562tLRwcHHBrN6rw7O3txcjICH7/+99DlmW4XC6eDUiShFu3bvF1ocQp1WPY7XYMDQ1heXkZsViMaxwIKhofH4darcbdu3cZ8igUCshkMrBYLLh+/Tru37+P09NT2O12Zuvk83kerJS/LRQKcLlcGBoawuPHj5FIJDgnEIvFoNVqcfPmTUSjUayvr0On0zE1tFgsIhQKoauri9vXEU89Go0yLTkWi12ocvoP3S6dUweaWX5yhsBTWKBWq/HDSglKgjrC4TDjnUrnBTwrGauEV5RJS+U6Ojl0+q2IkRNbhaIj8SZUOprznLjyO0mS4PV6n3HAyv0+z8Gfdz7azUKAJhPpwYMHjP/SwyoWONFvDAYDJEliJoQSBnkb1g7Hp5mMOMN4WZMkiRtS9Pf3w26349tvv4VKpWLlRSqWmZqaQjKZxPLyMmRZZoYM9dydnJzE2toa4vE4DAYDy/JWq1X09fXB6/Xi/v37HIVTkrNer+PGjRsM+RgMBsiyjFQqxbIE/f39mJ2d5UEaaEJ4hUIBH330EbLZLJaXl7mwrFAocITe09OD1dVV1l5XqVRIp9PI5XLcZ3Vvb49ho1QqxYO+0WjEzs4OGo0GN0Y5OzvD7u4u0zXpOplMJkQiESwsLPBvKcFLODrQhNSIF/++26Vz6hSpE3wBtDoPs9nMCSMRXyOVO9GpkXVy5OL34l+lgxfXoYxqxWVFp060L1F/phPmrdxH5fmg7zUaDVdstsP9261DnOWcdz7aHR8dT6lUwubmJve6FHngdF3IiVKHHrHxwds2KqVXCqy9LkydzhHNFq9duwZJkvD48WNuii7qqI+NjWF3dxfb29tcEZzNZlGv1+HxeHDlyhU8ePAAyWSSMW5yzmNjY6hWq3j06BEPCtVqFWdnZyiXy3A6nSyLoNPpYDabEYvFsL+/j3K5zFWaanVTT50YTIuLi9DpdDzD1Wg0MBqNSCQSmJ+fR6lU4mpRADxD3t7eRiQSgd/vZ5YR0HS6mUwGmUwGgUCAm2wQfGQymbjYaGxsjOmZer0eXq8X3d3dCAaDGBwcbJFT8Pl8mJiYgM1mYzXM990uZaKUNFHEaJjMYDAgEonwRVepmtxeKiFu59Qu+nmn78XPyEEqby7RqdOMAQDfiO2ORTxm5frF70RHQpS2dvt5EabH8x4KkXJJkEWtVsPJyQkODg444SYmQwHwdLq3txcGgwHlchkul4udwds0nU6Hvr4+PH78uOV4X5dTr1arLAdLzJJgMIiVlRVsbm7C7/ezcz08POSeuvv7++jq6mL8fXNzE4VCgQdpSoSbzWbkcjmsra0xw4WCGaDpYKPRKPfuHRoaYilelarZfYi0b0ZHR+HxeBiLttls3HYPaPLpRf31np4ehtckSWIJX6Cpe+N2u3mwploGMuLHi0bsmnq9zjM8upeJm0+CZCKlk5anZ5vySsDrYTG9S7uUTj2TybQIVYkXkTQs6MLTRRe73bT7K1q7aPgijr3TwEDrEGULyClSU4FOEXq7/em07+JDRPBIp/1R7ttFHwRaThxIarUaYrEY1tfX4XQ6OeoCngp9kWjZ1NQU/0av178VjrrSxGSv8tjOuw4XMXEANpvNyGazSKVSkKRmByPRYTocDnaQRqORk5ZUPdnd3c2Dfk9PDzdOAZqOe2BggK8D3VcEo/h8vpa6CNoO0HSkJAJG14LgJ3L+tB9EsaTqX+LaU10CRc0ajYaPrVKpQJIk5rBTkpxa3AHAyckJDySyLKOvr4+JDIeHh8yFr1arGBwcZO7+2dkZotEokyF6e3vh9Xp5BtwpqHqf7FI6dRLfEqEN8eZOp9N8czcajRau8Ju66J0cpvieGDBk1E1dFA2j/VPSNelYRHaMGH1T1HR2dsbl6cS6EQtiLnoMFz1ecuz5fB6Hh4dwuVzs1MX9J6fV19fHDoP42W/biKJHRuewXZCgtOdhthSp03LUSlAcROja1Wo1prMCYCYUnR8AnCMCnkJXdL9T5TCdQ/qOqjmTyST3/BRnr4FAgKtAa7UadnZ22KESP54kqre3t7nnqcFgwLVr11geIJlMYmtri6+z2+3GrVu3OFdERXC1Wg35fB5ffvklC+uR2J4sy1hcXIQkSZiamkI4HIZOp4Pb7YZWq8X29jaWlpbw+eeft8xUaKazsLDA63nVAfkPxS6lUyfBIjJlRJLP57lYgQoj6EG4qEM/L5J/UZMkiW/mdDqNWq3GhSl7e3twuVxcRi2yYEQpXVHeQPmdOACsra2xZAAlqUgNj9bTCR46zzo5M4rwJEni5gYUgYtwkclkgsfj4TJz6lr1LhJbRB8k50n7KIqfXWTW1G7f6XyQIBXBU9Q3N5VK8fqtVmuLngp1GiKhs1u3bnFEXCwW8eTJE8ba/X4/rl27hnw+D5VKhfX1dZahrtVqGBwcRDAYRLFY5MYZWq2W8x8//vGPodFokMvlWL5Xo9FgZWUF5XIZIyMjyOVy3OfXaDTi9PQUc3NzmJ6eZp2YGzduMLb+5MkTzM7OYnh4mFUmjUYjF1b97ne/ww9+8AOmaNJA8cUXX+D+/ftQqVQYHx9ndphKpWLBM9Jar9ebGu40iExPT+P7779HX1/fO5n1vQm7lE6dMt7KB4+iD7Vajf7+flgsFmi1WmxsbPBvL7oNcf3nQTSdMHdxXZL0lO2h1+vRaDR4RkG4Keldi3ovIr1RTOqJ8gMipi5JEra2tnj6THKpKpWKWSftoCVxP88zEXoRP6PokFgXYrKUXiQ2pZx1vAsTZ3ftciIvsh4y8biq1SqOj4+Zjz06OsrRKeHDkiRhdXUVwWAQXq+X7w+/3w+1Wo1MJoOZmRlMT0+zbG4gEGAtlaOjI8zPz+Pq1avIZDLcAIMqQYkW6PF4YLPZIEnN4i+tVouDgwPMzc3h+vXrsFqtDNmZTCbcuHEDq6ur2NnZwdDQEBf61Go1VmRcXFzEnTt3IElNVU6ip05NTWFhYQFnZ2fo7e3laF6v1yMQCKBcLmN1dZWj/Xw+j1wuB5PJhPHxcaytrUGWZXR1dXF0Tw3jS6USHjx4gCtXrsDtdnMDDofDga6uLuzs7GB4eLjlWryvdumcOoBnEiL0V6PRoFQqwWazcXKI6I0iFPCyCbHz8PjzHDrBD2QkC5xMJjnCpWhOLMNX0hfFz2g5keVDgloA+D31vSS89GVNCfWIx0fJK6Lpka47DbIEi5lMppZz8y6dOkXU4mD5qolScSY0NDSEQCCAx48fw2azsZOjXpsEAS0uLnITCGo5Z7fb4ff7US6Xsby8jDt37nDlqErV1NAZGxvDvXv3sL29jVAoBJVKhUQiwYHD4OAgFhcXcfPmTaZJVqtV6HQ6DA8PY35+Ht9//z3u3LkDvV7P/XwNBgMGBwcxOzsLk8nELKFMJgOn0wm3241EIoHvvvsOn332Gex2O87OznhWPDIyguXlZZjNZsbQM5kMAGBwcBCrq6t48uQJvvjiC8bHiVkzOjqKR48e4YsvvoDRaGRZBeLGf/XVV9jZ2eEOUgQRGQwG1Ov1dzbze9126SiNZPRgirAKJUedTicGBwdZo5xgi9flSERHe5FlKVFEDwlNkZPJJNLpNMLhMKLRKGKxGOLxOBKJBKLRKKLRKL+Px+P8mbic+N3Z2RkPFCKtkiigdB5eF+4oOne1Wo1iscjyDFThSOeIksTiAPWu8E+VSsViWsocxuvYr1qthlwuB71ej48++ghzc3M4Pj6GzWaDwWBgTXOPx8Ml8ipVs+myWq1GPB5HqVTClStXYDAY8NVXX8Fut3P3JFLj/Oyzz7CxsYHj42PuQxqPx1EoFOD3+zEwMIDV1VXU63XY7XbUajVWQJyYmIBKpcL9+/eZRpnL5Tj6vXnzJubm5pDJZGA2m6HT6biJxtWrV6HVavHo0SOoVM3GI6VSiZt3DA8P4/HjxwiHwyzBm0wmUSgUuGXe73//ewBgXjrBQP39/bh//z6KxSI31g6Hwzg+Psbg4CAODw+Rz+eh0+mg1Wp5YKAB+UNw6pcyUqcMunIKTbix2+1myc5wOMzZ+IvYRbD0dtBLJ2s0GrDZbPjiiy9QqVQwOzuLXC6HYrGIXC4HWZZbFByBZ6EWcWovRufAU3leelFiSrk+SoqJioCdItR2UbnymMRlCX6hZh2hUOiZZCnwbHPntykNoDSVSsUVvq/DlFBMsVhEo9HUKJ+ensbc3BzK5TJrg1N5vNvtRrlcxv3793Hz5k0YjUYUi0Ukk0nYbDYMDw9jZWUFd+/exeTkJOx2O1eNGo1G3Lp1C3NzcygUCujv70e1WuUkeV9fH1QqFWZmZvDRRx/BYrFwAw7qYDQ3N4f19XX09vYyP570XIiGeevWLej1ehQKBe4P2tXVhf39fdaDNxgMSCaTCIfDAJostFgsht7eXk7Wb25utihj0ozUZrMhEokwW4ZonbVaDSaTiSN2rVaL8fFxhhbV6mbPW8oNiAnm9zlheimdupgkVEIgGo0Gdrudp41UOizCF6/DLhrR0czh5z//OWOdGo2G2QbUfoxucGVBjJL9ImpcizAM0eCIVkZOnPaB+MR0Hi5y87/IQEjnlpLSZrOZlf+IsdRO2OxdGM2exFne694fgg8oAh8cHMTGxgZMJhNkWUa5XGY2B3XuEZOQ1JuWII27d+/i8PCQJQ6INWWxWOD1erG3t8eYe7VaRSQSYZ36RqOBaDQKj8cDq9WKRCKB/f19brBRLpdZ6leSJJydneHg4AB6vR42m40T+NSRKBaLodFowOfzMcdco9HA4XDwd319fdyJie4HShrTewrOKJdA61GpVAylEF+dhN9EyiRRHq1Wa4uW+vvs0IFL6tQp2myXdBM5u2JDCnG5t+lQJElCNptFOBzmG5yiELpxlc6O9lV0lkrIR8TfKTFK0TEl3USMUTxmMQp/lfMg/pai/Xg8jkqlwhAM7T85jk6/f5umlCxQwi+vcn/Q70gbJxKJsMOUZRm7u7vcNSifz2NnZwcAeKZDzaOtVitXfkqSBLvdDr1ez7xuAEilUqyOSZx1ws0tFgsX3A0NDbEELsn6kuaO2+3m9dVqNWg0GnR3d/OsShSBazQacDqdrAEv0i8lSeJkKp1fuicotwKAgw+C7Or1Og9EdD9ns1l20kajkQXJisUiMpkMB0KkMEnH9a6Dhddll9Kpi3ix6OhoaidGKJ3YHuL/Sr2T50XzSvihE2RDyyWTSXzzzTc8TaUbkPZZ/KuMHjsldykRSlH72NgY/uEf/gG//OUvcXR0xBENRezKkvznOfROjB/lORUHCHJMpAFDLcoAsFofrYP2X+no35ZRb0tqZCzaqzp0MsorUCHN8PAwK1Q2Gk2aJzE21Go1hoeHOXptNBqsykgFQiJ0QZIQBLlRhEtJQ8Kc6fxT4RCRCYD2Usomk4nZLpIkMT1WpVJxg2oKSMrlMk5OTjgZHgqFuLK1WCxifn6eNc67u7tx/fp1pvQuLi4yZFKpVPD5559Dq9WiUqmw4qdOp0MsFsPAwECLPADtx+HhIU5OTvCjH/0I4XCYzwPt+/vq3C+lU6ebVWTB0IMidqoH8Iwze1GHrbQXpbzRVPJXv/oVJiYm0Gg0+CEXIRCR1QKgZXZB75UDGH2m0+nwl3/5l/jss88QiUTwn//5n8x8Ifa0ReIAACAASURBVOxRluUW9URa94ve+J3wdtFRR6NReL1e1nYvFovIZrNcX0DnhaicxF1/mybeF+I5eVVHoMy3EO4LPA06xIYpNLBRuzb6DmhGqSIMQc6WsGYqOmo0GkgkEhzdarVauFwuzmkUCgXs7u7ycRL9kda9sbHRQpEdGxvjc3N6eopEIgFZllEsFuH1ehEMBlGtVpmGS3rxjx8/xscff8wDj81mQ1dXF1QqFc7OzrC+vs7ceZ/Px82uj46OsLCwgOnpaajVani9Xvj9fhgMBpRKJayvr3NimxhCJGewubmJubk5eDwe6PX6ljzO/3fq74lRYkV8eERIQhnFU0KM3pPjvEixjRKvP+99u/2kfavVaojH45ifn4fNZkMul+PPRW2MdjciRVDiMuJLo9HA5/PhRz/6Eex2O0ZGRrgJQTQaBdDkH4uUyld1YO1mSSLjhgSdyKlT159UKtXS21JsqfYuTGRMiOf+ouelU4Cg0+kQj8dRrVbh9/tZsREAdzcCAJvNhomJCS5IOjw8xOHhIc+spqamuH1coVDAxsZGC/798ccfs2RuMplEsViETqfD8fExTk5O8Omnn3IvX1mWeZawsLCA69evw+fzcUKWMOv19XUsLS3hxz/+MRKJBNMYiR1DapI9PT18Dil/tbu7i8ePH+MHP/gBVCoVurq6eLtutxszMzNQqVTo7+9nKWCVSoWBgQGsrKzg3r17+Pzzz2G325nFY7Va0dvbi9nZWdy+fZux+FQqBZvNxvmGer2Oqakpvn7vq0MHAPUvfvGLX7zrnXibRpHg+vo63xSic+nv74dOp+PO5fl8Ht999x22t7dbEmSiUxdvAnEZ+o4+Fx2X0sGLf5Wf0e9Ih4ammWJjCzFBSsvTgEQvekD0ej1XzBIuvLq6ivv37+PRo0dYXFzk5rxWqxUGg6GtGmKnm/9lHghxXRqNBsFgkLU6qN/l4OAgxsbGODLPZrPcfedtWz6fx9LSEnZ2dtjhiuJQFzkHdMzisWu1WjidTiSTSRwdHeH09BSDg4Oso1KpVFgf5+TkBMlkEj6fj6//4OAgQqEQrFYrc8VJK93pdKKnpwdDQ0MoFApYXl5GMBjkgi/ihgcCAYTDYaRSKXi9Xo6kTSYTUyMXFxdhsVjgcDhQqzWbsqtUzSbW8Xgcm5ubGB4eRqPRYKVGo9EIl8uFxcVFeDweVoQkHnpPTw/i8ThisRj6+voANGWZG42meqrT6cTm5iYsFgurKtKg3tXVhXg8jnA4DK/XC0mSeEZLlEraLjGE6JypVE3Z3xs3buCzzz5r+4y+T3YpeeqihK148ag4Q5mUIachwg5AewGnTk7uVXiwtE5y4FRoYrPZmKljt9vhcDhgt9thtVpZ34JweCruoL/E/6Uk1MbGBmZmZrC8vMxMBXoY2kXWr8OU54/OE3GhxSIk6l9KSS7aj3fRLJhgOo/H00LxfB1Gs7Oenh5MTk5Cp9Nhfn6eryN1KbLb7RgdHUUqlcLJyQmfK9LtsVqtmJiYwO7uLlKpFCc2qZdAT08Purq68OTJExgMBk42ktzE4OAgKzXSvVCpVFpaxK2uriKbzbKsAyVq+/v7AQBzc3MsB1Aqlbg59dDQEB49eoREIsEyAJVKBblcDsPDwyiVSpidnYVWq2VFznQ6DZvNhr6+PiwuLjLXnHj39XodV65cQSaTwd7eHv+W6L9+vx9erxebm5uc5CbsnrqcvQsZ5zdhl86pUzKHIBXR4RLOTEkcmsaSeJOSSXJelPq6HnRlFE/wDyWtlC9K9ohNp0WmQad1U/KKMHRKnInbvMgxvQzGrnzRg6jX67kfaKVSQTweRzweb4mwRPGrt2WEdZO0K/D6rjcdG9HuxsfHEY/Hsb6+DofDAYPBwJAIzV52d3cRj8dhtVpZw7xYLMLtdqO7uxvff/89ZFnmdoAkxzAyMoJCocA9RylyLpfL0Ol0GB0dxe7uLuuwq1Qq5HI55HI5dHd3w+Vy4cGDB7xditi1Wi2uXLmCo6Mj7O7u8uyQmlAEg0F0dXVhZWWFhbnq9ToKhQL3Iw2Hw9jf34dOp4Msy8hms8hmswz1rKysMIOF9N8jkQhsNhtOT085QNNoNDg+Psby8jI3CiflSmoYQo073oU43JuwD+MoXsDISVPRjoiPk7YG0KR7kUyAqIQHvNwD/DoSL8+LmNvRDsXfnbcOEU5qx/C56L5d1MRchnIbxIDp6upih5HL5RAOh5FOp5lySVEcCVi1G7jetCnvi9dxjSnhqdPpUCwW8dFHH2FmZgZAk14INOEfoi6Stvsnn3zC7ChKenZ1daFUKuHrr7/GxMQELBYLYrEY3+sff/wxZmZmWBeF5HCBpqpjb28vHjx4gE8++YSjfUpYezweRCIRPHnyBP39/TCbzUgmk1yx2tPTg7OzM3R3dzOn/eTkBIeHhzxTzGazPAuJx+M4OTlBo9GAw+Hg4wfAbBWiMhI8Sk0yGo0GSqUS0xQpiWw0GhEIBJiqSXkB4rT39fWxqqSYn3qf7dI5dUlqVtKJ2tL0eaPxtJIvHA7z1N/pdAJo1WJ5XWyHl7VOTvtFnH2n9Z233Jsy8Xw2Gg3E43GEQiFYLBaOPuPxOHK5HDtxnU6HbDbLzI+3vb/KfMzrMqL/pVIpyLIMvV6Pa9euYW1tjaEXtVrNktBWqxX9/f1YWFjAlStXGM6Ix+Mtg188HmdMOZfLIRqNchRNJf5iBBuNRlGr1VgigKLqarWKVCrF1Zv0PWHfhUIB1Wq1Bc8nfrzD4WDtIpI1oPuToEMa2MTvtFot/H4/f0fnnuSGrVYrnzu615X67QA4LwGgpbVdsVj8YOR3L6VTp0Sh+EDSzUCiRJFIBB6PBxqNhpsPiJHleRDM2zqOdtbOwbzoPr6L46Lt0QNL7QMtFgvL8CaTSYYWiBkjdqx5W0YOnehv9NnrMEpwU2Qbi8VYKpbklgmSAoC9vT2GEKkICAD3BI1EIlCr1XC5XMz60mg0sFgsHOn6fD5WWySn2dXVxTAF7RM5Q4vFwpAkOVdy6iQ0puzXSvkbcsTi9ZYkiaNyek+/pXNMNQwEK1Kld73ebNlHssCSJGF3d5cHPMo9UCJ3Z2cHZ2dnkKRm7+EbN27wOaGuS8D7XVV66Zw60L7HJN28+XyeEzviDU7ypbQs/b3oxe+0rDKKfl0QzZteh5Lx8zLbF8+jOGBSwU0+n4fJZGrBc2OxGHK5HNxuN0fnxWKxRcHxTRsdOzU9bpdAf9V1U1UtwSfEZKIonKLXoaEhvk9pkKN9cbvd8Pl87Cgp+iXcnJ4BWi/RX4nTLnK2aR9UKhX0ej3LDEiSxJCYJEnc45bUPQ8PD5FOpyFJEidYiYobjUZxeHjIxU59fX3o7e1FPp9HIpHA6uoqVzgbDAZ8/vnnSKVSyGQyrM6oVqvx3Xff4ZNPPoHNZkMqlWL2mk6nw9bWFhqNBqamphCPx+H1etHT0wOtVou9vT3MzMzg008/hSRJsFgsr6y0+Ydgl86ptxuV6WGkKS0lU2h5q9UKl8vFOiTA04TW6x7R36eih9ctfkTnVKvV8oPd39/PypTZbBZnZ2dIp9NcqCRJEg/Ab9NEVUTg9SbGiX0EoIWXT7MYek/nhH5TKBRQLpdRKpVgMpngdDqRy+VYW/z09JSLj/r7+2EymThBvrGxwVi5xWLB5OQkV3OenJwgFouxdITH48Hg4CBKpRLDODRz2NnZwfT0NLNLSJNdlmXs7Owgl8thamqKG72MjIxAq9Uik8lgY2ODqbaUqKVCwb29PTx48ABTU1N8bES1NZlMWF5exvT0dEvTEK1Wixs3bmBhYYElhgnzr9fr6OvrQ6PRwIMHDzAxMfFOqLFvwt7/YeklzeVycVJJLLEnpy4WImk0GvT29rZIwQK4MCPkPHvVBOy7stcB8yhNrAGoVCqIRCIMFVBiOxqNcvceAAxRvG0T4ZfXed2oendnZwe7u7tcW0AduRYXF7G4uIjZ2Vmsr6/DZDJxdL+3t4etrS0cHx9jYWEB0WgURqORI28iAdTrdaysrPC2CP/u6upCKBRCpVLB4uIibDYbC2L19/ejv78fo6OjOD4+Rjwe533z+/3w+/0IhUJwuVxMGyQ6MM22xsbGkM1mcXJywslROpdOpxOBQACrq6sAwPksOrZgMIhEIoG9vT3W1ic2i9PphM1mw+zsLCdHSeaiUqkgGAxia2uLcwgqlYqrpUOhENLpNGKx2AfT+ejSOnWr1Yqurq4W9UG6+UUhK2LHkFMnOy/h+LykY6fkWid45m04+3YQyvO2S1P158FQynW3e4nfU/QbDodRr9dZsVGSmp1yUqkUY7gEG7zNAVF53K8TVyeHAzSbKz958qRFA8fn8zFMEYlEsLe3x0JdgUAAk5OTmJqawuDgIObm5rhFndlsRigUQigUwtTUFGw2G7799ltuMGGz2eBwOGA2mzEwMIBsNsvdjwg/J4iHmlUQjZJmCfl8HoODg9BoNHjw4AETEqiXrk6nw9DQEJaXl5HJZHi9dLzUUm59fR1msxmyLLOUgCzLGBsbw/HxMSKRCHcloyK87u5uWK1WzM3NtTj9arUKo9HI5yOdTnM+jXSN9Ho9F+h9CHYpnTpl2vv7+1v46ECT1kg0KtGxUysu5ecfion49rvavuggVSoVMpkMJ67pISY9bsJwCYJ4V3IBb2LQpapS0jKZnZ2FzWbjSJK6UF29ehV7e3sckWs0GuZz2+12jI+PY2dnh5kdVPGaz+cRCoXgcDhw//59jl6pL60kSZicnMTe3h5OT085MUusFpfLhUAgwFXZBoOBHWyxWOT+rUtLSwyPlEollMtlGI1GTE5OYmZmBuFwGDabDY1Gg/drfHwc1WqVm28YjUaGlWRZRm9vLwt9UQ6BioeGhoaQy+VwfHzM2H86nUahUIDdbucuSyTaR8uWSiVYLBZm0LzvdimdOmXgh4aGWjqpk1OhNlelUokdNzXPFZkvf8hwiXL/XmRfX/dxvWjiFQAnyFKpFDQaDfPVk8kkotEoN4kg+h+Vfb8NI56zGKG/TkydIshyucxR8+bmJoxGI1MGiWkyNDSEra0trholjju1vuvq6sLS0hIX8ZDcQKlUwsjICCSpKRFhMBiYMUPPwvj4OA4PDxGJRJhXThK2Pp8PDoeDI2NqrlIul1GpVLiAiNg3siyzBo1er4fL5cLe3h5THSnapwieBNxIwiCdTiOVSqFcLrMSJDGCyuUywuEwjo6OYLPZeAAjx55MJnF2dgaj0QiPx8PQqtFohFarxcDAAMxm83uTy3qeXUqnDjSdhtfrhcvlAtAaqVJVHEl7AoDT6eSppvgQn/cwv8zD/rwbqxO8026wafd5u98rcX0xam4HnSj/fxF73jlRUt2I5WAymZj2Rrg6OTZqafY2Z07ieWp3bttBS+3W0e5akPMklsjIyAg2Nzext7fHMg/UiNpiscDn8+HRo0fI5/MwGAysYClJEvx+P3Q6HR49esQsErGf7ZUrVxCLxbC1tcWcdXLcBMvMzc0xxVKlUnH7Q71ej0wmw3pEVJZ/cnKC09NThoWI365SqRCJRHB0dAS9Xs9Kj7VajWUKYrEYywxrtVq+xnT9TSYTRkZGuIKVFCcdDgccDgc3AaFzS0wYn8/H1E0a4Ahaouf6Q2C+AJeQ/UJGQj9+v7+lSpEiHRrhnU4ndDodHA4HV64p1fneNWOlU7KuHWVQfE/YsNJEvFhJuVQqVL6J2YrIfQ6HwxgdHWVhsWw2i3g8jnQ6jb6+PqbkibOqt2EvUr36ojTPRqMBWZbZSVssFvT39+Po6AgOh4OTyclkEkajEVarFXa7HXt7e+ju7uZiItLFJxiCpBeoevPo6IiLk6gxNREDotFoi0gYDTKio1ar1ZiYmOCBgBpo0HeBQIBnwpSMJWkFelGLxGq1ynpGdF9SNE3bA8CVoFRUBOCZWbVYZex2u1EoFHh2s7e3x+yYgYEB1lwfGxtjjP99t0vp1Mlh6XQ6BINBbG9vt2iIEI2MKGD1ep0V6pRR7UWiTlq23ecvs+/trJ0yZLtIUZmUVH4vOnElf1wZiSr/f95xXXQ5Oh5KjFYqFXZuJOoViUR4nXq9HolE4q0nS5WFMi+zDjKRVkuOTpZlpFIpJBIJAOAm6BTNExZN3xHmTo4cAK9rdHSUHSxxxok5Q0lCioppfeJzQlxyACwQJ5ILSBddPAbKi5CzpQInogynUilmsNjtdhgMBubZk3QuRds9PT28DWqQDjSf1WAwCKvVikqlgmQyyc3Ti8UiTk9PMTY2BkmSkMlkGJKRJAnr6+sYHh7mWcOHkii9tE4daCakKLIh7JaiB8Ieq9UqtxIjDRglPPE8h6186MmxKf++7LFQouu8/qRikwyKuMkoySh+Ts0XxGOkBBNR7JT2KsehHEyAp8lSwlmtVis0Gg0ymQxXWQJoYUG8TRMrI0V7lUGbBjNi9lAgQYM2XZdGo8FRN81s6HfibFPktouNukk7hoqnSMyNoK58Ps/rOz4+5vvHbDajq6uLB5NIJMIt9zQaDWuSA0AikcDR0RHPujweD0ZGRriLFckQ1Ot1hMNhXLlyBUajkWfOBJOcnp6iWCzi+vXriMVinEBVq9WsE3/z5k2o1WrodDr4fD6+P+fn53FwcIBgMMjNP+jaVSoVzM/P82zjQ1FpvJROnYxEh6iTOTk16ttJKoAUlTmdTm53Bbw9umE7Iyer1WpZAIumlZ0cu/L3nfB5pVMSBwBiXhDljBzKqxxHJ6OkITVbsNlsUKvVyGQyiMViKBQKMJlMz3R7elum7Hz0KtRKMdDQ6XRcuCPq5pP+ColYGQwG1jKp1WqIRCJcau/z+VguFwBWVlZYnVGn02F4eBhGoxGlUokTmpIkoVwuw+FwYGJigtUyaQCo1WosuOV0OhnioKrVTCaDJ0+e4OrVqwzJUMWrVqvFwsICJ3crlQp6enpY3uDo6Ajz8/O4ffs2ZFmG3W7nezwYDGJlZQX7+/uc6CwWi1CpVLDb7Uin01hZWcHExATMZjNyuVwLPLS5ucm4ezqd5q5egUAAmUwGy8vL+Ku/+iueibzv9mFkBl7SJEmC2WxGd3c3sxkkqSlDm8lkmIpFERJVxpEpI94XidA6JVo7JTTbRfrE1MlkMpxwUrata7fdTglV+q34l5JRpLFCXeyz2SwzTjrBTO2s3bLtICJ6qVQqRKNRNBoNhgwKhQJPs8XtlctlHpTfpNH5p/J6Mecg/n1Ro/UcHh5ibW2NZWtpBklNIFKpFNbX17G3t8d0QxLJImdPXY4IOrHZbAgEAtxAY3t7m0XRzGYzenp60N/fj/HxcRSLRWxtbbGYmt1uh9vthtfrRSgUws7ODs9gRZ3+7u5uGI1G7OzsQKvV8oBL99LAwACi0Shz5wkXLxQKcLvdzDMnRy8GTwMDA1hfX0csFmPdH/ptV1cX6vU6FhcXW/qMUkDm8/mwsbHBXHnxviZIiLTxPwS79E6d9DNERbhGo4F0Os04HTl1r9cLk8l0oej2Ve15ESxFsc0E0VMJYXGqTi9RV72dxrr4G9o2TZnpRc6SHoh8Ps/c45c1pfNWMkbo+sTjceTzeU4IUvROjBeCKsTq4Dc5g6L9Ex062atsl47dZDLB7/dzByGSgLZarQgEAvD5fPD7/Tg4OOCqW9KeJz622+3GwsICwxhU2QmAZWsfPXrE39Gx1Go19PX1cdcls9kMvV7fomzodDqxtLQEWZY5kVmr1VAqldDX14dSqcSDAvHbqZdsX18fVldXeZs0C6GEbKFQwOHhITfdppoRg8GAQCCAra0tFItFzgFQNB8IBJDL5bCzs8P9AIhV43Q64XQ6sb6+zhRJ6htA76kd34dgl96pk2AXSYIC4ASU2WxucWgOhwNut5uXUUZob5oBI0bR5HQBoF5vsJOmRhnUDZ4iF3pPmDh9R7il+DuCVZrrrrdsn/aBqgQpOn7Z4xH/ip/TIEPU0mQyCYPBwNKs4XCYi2UAcDEJ4c1v2iRJ4iiV9vlVt0vME4piu7u7kUwmcXJywteIZmR6vR6hUAiLi4t8rxJs2Gg04PP5YDAYsLa21hL5kiP1+/2o1+vY2Njgay5KY4RCISwvLyMajcJkMrVI2Pr9fq4apTwL8LQfLrXDIwdLjBkiHPj9fty9e5cLl8ixVyoVTE5OIhaLcYMMlUrFeD/1Ol1fX+fcQblc5pkqOXY6DgA4OztDOByGVqtlTjvNYIg+2d3dzayiD8E+jKN4BZMkCW63G8FgkDPx9XoduVyOp3jiVM3v95+LR7d7fx4U8iImDh40oyDHRw8mFYIQ7Yu6IIk3rPhbKsjw+XzchZ10cUQZWCXMQMk1cupihH3R4+0Eu5DRjKJarSIej7NuNlHuKKFGx6GEw96U0YCudAKvMriLs0TimJNy4e7uLldj0vmoVqscuW9ubrLDpHNQKpUwODgIlUqFlZUV5mXTIKjVajE6OopIJIJoNMr3Cs1MXS4XBgYGsL+/z23oqCiq0WggFApBpVLh8PCQE7BUfKRWq+HxeBCNRlGpVPj+SyQS7Eg1Gg1LAJDq4/HxMU5PT2EymXiQoWAjm80ikUhwSzsaYEhGm9rm9fX1teQnqM2j2+1mdUYaLKjfKs1GPhT7MOYbr2A03R0cHMSjR4+YAkaaMHSzEhUqGAwCaI3M6P8XfZhf5uFX/oamxaJ1Sowq1yFJzXLwn//851wcQoUr8/Pz+Prrr7G/v8+OW1RGBJ4yZIg7fJ4zf5FjFZ27yMkuFAo800in04jH4+zsdDoda8K8LVPmOUTo52XuBRrEqMiKBmaPx4PFxUVuup1OpwE0cwhOpxOFQgGPHj3C9PQ0O0uq8Ozu7sbq6iqzRkhbhhpCuFwunJ2dwW638yBFLesI1iFddZoNUTRMmDvdG5QsJTjM7/cDeEoRpkhZq9XyoEDnixw5DS40E6UBg/aPnkfahgjB0KAo0ivF60NcdoJcAHC/0nZQ2vtql96pNxpNic5AIMDYJV144skSo4B6QgLPJvxe9EF+VRxedMDk2JWUQJFLDaAFUxe1bv7iL/6iRUa2Wq0inU7jz/7sz/BP//RPmJmZQT6f5wdHLEB6HYwPpYkRL0V1mUwGJycn3Gotl8sx24OOrVqtMqf9TRqdA5FeSJ+9yrkQjxcAR70OhwPxeBxnZ2f4f+x9WWxc93X+d2c4+05yuIiUREmRZNmyI9txvKR2YNeO5TpBGgdpGqSLi6RomyZFiyJvBZqHom2APqR97UNf2v6LoinauG3QuM6CBIlj2U5sy7YkauNOzpCz7+v/YfIdnvvTHZJaLUtzAILkzF1+986d73d+3/nOOXv27IHP55N6KHwuGSwFelx/oVAQrzuZTEoMRt9Pcs6xWAzValUSuQDIttPT00L7dLtdaWnHiZyTB5+NRCIBwF7FEoCoUcLhsE06DEAKdxGcWcag2+0lYcViMaGd2PhDf2+pzKnX6zh79qx8Bqw6SRXPwsICut2u0D1s7D0+Pn7LKF+AAajLF4mV3SqVCoBNXp1fFs7mzJLTHqEGoe2oB3MyMPfZCuj1tvwCBoNBScTQYGvSIZoi0TLEXC6H5eVlRKNReZ00x6OPPoqZmRl87Wtfw7e//W1pfKBXKbqjTb9rMCcbp+vZytxuN2q1GmZnZwEA1WoVtVoNKysrKJVKcs0E9hthnOwJdnqSNmmknQI97z8pC/YLtSwL09PTIkHsdrui1QYgnYb0cdjAg+Ph3+SuCc6c6PX75Ku5MtONmlmeAOhVV8xms1K/JZFIyAqj0Wjg7NmzAsa7du0SOWK1WsX58+elOiNXjPS8M5kMisUihoaGkMvlMDk5iQMHDkjZjlgshqGhIWSzWbz55pt48MEHxQvft2+ffB4XLlxAJBKRdpRTU1NStfH8+fO4ePEijh07dksFSYEBqAPY/BLqjDuXq9dpZ2RkRMCM/HssFhMg1cB8JV7alXrs3I+SLH75terF4/EI58jlLflDfokDgQBeffVVnD59WqgUfsk9Hg98Ph8OHTqEl156SRJaCAxUP+jkl8sxUw5J0yoYLrM7nY6oXdinNJ1Oo1gsyn7MwKS3eL2Mn7NW2+jXna5nu20A2Jpnkw6jB8mJi965PhYDpAySUgbJsemG6pbVk/Hy82o2m5I5DUD03Ew8S6VSQsW0Wi3MzMzA7/dLnZZCoSAKJabbs5ojG150Oh2srKzIc9hsNjExMSGOydraGhYWFnDgwAF0uz0NPJOuYrEYUqkUMpmM6O79fr+UJKjX63j33Xexf/9++Hw+Wa10Or3+qWfOnMGRI0cki5RqnImJCczPz+Ps2bN47LHHrvvq7kbaANR/YfSQtLyuWCwikUhIaU/y78lkEoVCQZbe9IR3qnM1OcCrMZer12CgWCxKjRoGTAm6GsjJOdbrdRQKBRQKBfzd3/0d8vm86M4ZGPX5fBgdHbW1T6OUjBMEu7Pzui7HnFYvTl49J1wmwpDjT6VS4ikCkDK8N8IYjNTt43YSpHWaxHgfdGVK1pBnsDCTycikxhUj8yhqtRqWlpbkvvj9fhw5ckSe6Ww2i1qtBsuyRCmzZ88eqeZID9ntdmN+fh7dbhdjY2OoVqvSj9SyLGxsbEiHIRbSouy33W5jYWEBFy5cwNTUlJQP1vz3uXPncPjwYakWyZ/du3djcXERs7OzOHr0qGRyd7tdBAIBJJNJzM7O4r777oPP57N1e9q7dy/OnDmDVCqFvXv3IpPJAOh9LyKRCBqNBi5evIijR48KH08lkMfjQS6Xk0bet4oNQB2bX1ACIz1PdthhEgMA4fEuXrxoo2CcgEmbpkL4QJrL9H7b0Mz/6enyASZnSdkfufFMJiPKHn4BKRPTyUV6tdJut4XiAGD7cuumwjsB8n7X04+m4T5ad09g4NiAHnVEUOfYyblfT+M4Sb2Y2vgrjZXQiyyVSlhcXMRdd90l+aWvtgAAIABJREFUWaMsTgX04gnz8/M4fPiwKFpmZmaE206lUnj33Xdx7733CognEgm0Wi3s2rULp0+fRj6fx8TEBPL5vE01MzU1hdXVVcTjcSmJS9FAMplEvV7H7OysZJxWKhVZFRBgqZdn28FWq4V4PI5KpYJz587h6NGjwoNbVq8d4fDwMObn56VomX5WWbTsjTfewKFDh+D3+4UaZWej+fl5uN29Btvlclmelz179uDChQs4efIkjhw5IjEoeu6hUAjj4+OXUIjvZ7vtJY38IJnIQ2PAhsEwbttutzE5OWlLfthOyne143MCT+0dE1RarRbS6TTOnz8vnOHi4iJWVlZEusbGveQgCYbMCqT2WrdR20oeeaVeOnBpF6St7oEeByeIXC6HdDotHC/pCk5g18v06kx751crp6TCig2jz549i2q1Kp8L9etcjZ06dUoKfxEg2+22gP/Zs2fh9Xql3C4D69PT01hZWUEqlZKOUkDv8/D5fIhGo6JvJ9i5XL0Wg7t27UKr1cL8/LyoVejlszLjwsICCoWCxJ4YFGUZ4LNnz9oqLbL70v79+yVOws+YVOLU1JQU82KQlPw/pYusQQPAtholZ87notvtigM3NjYmnvpAp36LGD9kpyJV5I7pqQC4pKTolQTErpU5TSaaXzVLGOgMU/1DpYJT5qkZcAU2uWQN6FcaU9jpNQKb7dSA3gRWqVSwtrYmIMDJKZ/P3xBQ1/Sbk8d+Ocb7TKBjp6PZ2VkBTQJgo9HA6OgoOp2OJPjo6o6NRgNTU1NIp9NYXl4W8NWTeDgcxuzsrC07k8fgiuzUqVPyus7AnJqawvr6OpaWloRKATZXsbFYTCYFeupMQtq9e7fQSKSumO/ASYXAzGthD1E28uAERscrn8+Lpl/HFfiZ+Hw+TE5O2pRibrcbo6OjiEQimJqaGtAvt5LxCxGLxTA5OSk6WwBSQMntdoukr9vtZdQFAgEp92qCmlPQ0Ilu2Sppx1TGOHmzTnSG07m384Qvx0MxvVEnykG/djkAZypI9GtapWRZPflgrVbDxsYG1tfXMTo6aitwdjkxjss1U0FkTmhb3W+n+6ED9eTE6/U6kskkVlZWcOrUKSllQS4YgDRUHhoawvDwsEw0TBybmZnB6uqqJKRxUnC73ZienobP58Pc3Bymp6cFQFlSd2ZmBmfPnpWengyq0jMmuPIZplKHgDw5OSmrQbfbjVKphFwuB5fLhT179ogUlfeSQM1sVd4nv98Pv99vc0gI1uT1zc8kGAzakp4A2CYCUlakdpjUdavYbQ/qtEAggP379+PEiRPyMLjdveL7IyMjUuDLsiyMjY3Jw3+z2ZXyuf3sStU53Pdqz6PBXZc7YMA0n89LliK9MgZ2r5fx2E70y3bXvFWglOBerValLMD+/ftx9uxZafJMR4Oxn4mJCRQKBQwPD8s90D12g8GgTAQEX3rIQ0NDiMViAngsZUuPn3QJpbKcvFqtllQsJUXCTkR6RciJivVntKJH1yqi99ztdqX8BABRb3HyIIdPY24F39vY2JBYUjKZRCKRQL1eR71el6xZVr/ct2+frGjoKNwqNgD1Xxh7lv74xz+WBxyAFCLK5XIYHR2VgBVlYVobfivblYD75cQatgqaaiPvzBKqhUJBSsrqYOr1nnCdVmdXw6nrZ25oaEiuCegV0aKMkKBYKBTkepPJpI2yILABwMjIiPxPBZMOCrIgF1c/uvYMJy1+9tpTBuwrTZ0dCkBEBpZlSWkHjnFpaUl6jIZCIczMzIgGna0KefwjR47Iiq9SqUgZYFJsu3btEhljJBKR2NjKyopo9XmPGCBlPZhkMimrlFvJBqD+C/N4PJiZmZGIOpe49IrS6bQsJaPRKGKxmHga2rhNP+qhn0JiO+WEGZS9UZ7FdtQNsP3YdzpmvZ1JZ9DIm1PimM1mkUqlbDTN1RQZ24k5BUmvxujREljJLQObklW+xzR/8t6aYtBBfwIwaQpN8RDw2+02MpmM3LtEIiHnaTabtiD00NAQxsbGxGNfX18X+WCz2cTU1BTGxsZQr9dRKpUEdOv1OpaXlwWcCaykmjY2NqR5RbvdxsTEhMSDMpkMZmdnceDAAXg8HsRiMckujcViWFlZgWX1Coh1u12pFxONRpHJZHDmzBlp2tErjeCVHgoXL15EIpHA0aNHbzmnbADqvzC3u9cEY2pqCmfOnBFVAOupa9kfa0w7gfqV2NVQHLe6mYFILsnZnDmfz2N5eVloAOD6N8vgpMOCVHqMV/o5EoT5tw7E5vN58dxZVZTAV6lUsL6+LvLKRCKB8fFxGdv6+rp4wY1GA5OTkxgfH0epVJIAJdCbCNbX13Hs2DEJKDLZx+12S07Anj17UCgUEI/HEQqFJDC5traGQCAgqwqm/rvdbqTTaZw7dw533HGHxAxcrl71Rb/fj8XFReG2q9WqqHRYvmB+fl6abXA8rVYLiUQCq6urtpUMv7PhcBjFYhGzs7NS5KvTsZef8Hg8GBsbuzYPxU1kt9YUdRVGL+bw4cPirXS7Pa0sO7wAkCxLzTfqZbgZuNypl/t+tp0A2U6us18QUVun05Gu8pZlSVs0vf2N8LzorWo++Eo/S8uyRLVDOSpfB3plEdgCbmNjAwsLC+LZ00MNBoOIRCJYX1/H+vq6PJuRSAQjIyOIxWIIh8NYXFxEqVSSwmGJREKySF0uF9555x0JprJ0hmX1Mqmz2SzW1tZs2ZlUtcRiMczNzYlaptvtSi2l0dFRoUR04TiqmeLxOJaXl0X+yCJtnU4Hk5OTaLfbWFtbk8+WVBXln0tLS2j/AtD5fDAmUCgUpOY8j8/s0V27diEajV6Dp+HmsgGoG7Z//35EIhHxktgFiV13RkZGpN0XHzwdIDNBfTvrFxy8HPXEtbZ+k9RWpvnzfuDcT/q4U/qG23EpTjUIS/ByAiZwXE8jx0tP1awOyc/Q/HG6Nr7O1WK328X8/Ly8TtldMpnEnj17kM/nbXXOE4mElJAdHh7G6uqqBBRdrl5ZYp/PJwlkFy9eFCqHqx8CKD1jUhnk7YeGev1SFxcXJTuVAdharSaS4PPnz9uknVTVjI2NYWVlBaurq0JxEqDHx8cRDAYxOzsrEwqllZFIBLt378bKyorIHnneaDSKPXv29AqYFYs2Z4wTErNaeT6W1IhGozh06NAtVR6ANgD1XxjBJplMysMNQNQE0WhUUu/dbjf27NkjBZXML+3VeG3vd9vJ6sS0fmDvtB055+HhYeGdq9Uq3njjDfzwhz/ED3/4Q6RSqRvCqZslAnYyETo9K1wlklYaGxtDpVLBxsaGeMWkXur1Onbv3i3JZGzkQorQ7/djeHgYZ8+eFWkjS/HSa261WlhaWrJ1LeJKdHp6GrlczqZBZ31+FseanZ0VqoMcdiKRwKFDh4SL1/LL6elpTE9PS9MP3jcCLSXFBHtasViUZLnR0VHbc1KpVJBKpbC8vIzh4WFxxHT54Gq1ing8LsFiYLO6aSwWw/j4uK095a1iA07dsEgkIi23aCy9q5UAoVBIlpdXAmSmaT52K3C4kQHSrayfHp7vXc6xdWXJ7fYjgAYCAQGoWq2GF154QbIEWR75eprmvK92AufzQ1CiZHB9fV1khyzYRtolkUhgeXlZ+GlK9ejh1mo1nD9/HhMTE5JNSZCenp7G6uoqFhcXMTw8LJ43ZboTExNIp9MYHR0VmSNrByWTSalOSYqnWq3KuOLxuLwO9L475XJZPuOxsTGbmoYVN10uF8bHx+XeArDROFSb6UlQJwDys+DkpuvLMB7BPAcAUkKAgohbyQagroyqg927d9sq4ZFbp/5Xqwu4nwb2ywFeExxNgNgJDeOkFumnHtnuuJf7njmhmROS+f/VKGS0uqPZbGLfvn3wer1YXV3F//3f/6Fer2NmZkYSka6X8f7qcgRXszJgRi+BmUFDj8dj46E7nY68zvo+S0tLokpptVoCvtPT0zh37hzK5bKANYOMrBXEFQDQU8KUSiW5nvHxcTSbTfHIa7WaACfLEOgVAhU24XD4EvUXz0mtOgDRu+skLgC2nqSkf1wuF4rFomR2h0IhhMNhqVjJuvqkinbt2iXjYX9boKeAYeu6eDyOWCx2SwoUBqD+C9PAPDw8LHwlrVwuY3l5WZI4UqmUPEg62eJmekj0KsJp4jEnFDPIaAKt/qLq/fil1ue7FvTTVhNaq9XC3r17sXfvXvzjP/6jdPY5ePCgNE64XkaAXFtb68up78QIqgRsetykLTweDyKRiC1uQ30+nzvdM5fvE9ympqZsx+Y4LatX0pb7sGStWR6CxwFg48AByMrVBGUmN5G2YfKTZVnI5/NSsrrZbGJyclIqKdZqNaTTaTkGE4TIh3NSoUqHGbZUupBe2tjYQDqdxuTkJGq1msQaWFYinU5jZGRESmjfanJGYADqNmNUPZFIYGpqCouLiyKhW1tbw9LSEmZnZ2FZlhQtIhBqUN9OxWGC1XZUxk48badtKNvSy1OOTY9Rv8bzmduaP+a+HAPPyeX4lQK808pHH6/VaqFcLuPUqVNSeG1iYgKf+tSnxFO8ntbpdFAqlVTzb+fa8DsxPj/M5NSBvUQiIRMU28JpD1iDqwYoeu663gtfJyWhC6HpjkasWEqqiwFLyiYzmYytttDu3bvl+eLnYlkWstksotGo0GScpFhsK51OS5Nzr9eLiYkJ8arz+TzW1taQTCbR7XYRj8cl29XlcmF+fh67d++W3qnBYBCVSkW6RHm9XgwPD9v6q/r9flSrVczNzeHxxx9HNBq9JWNfA1BXxi9lKBTCoUOH8O6772J0dBSBQABnz57FiRMnpFBQOp2WXpHmF+pKvtzaA94K9PuBvNO1UNVA3lLv6wRC5nt6eb7VeXj9BHymhbOZ707vx0624zVQlcRzjY+P43Of+xzuv//+G/JFbbVatq5HV2KaH+ZzxZokGuhJO7A0AMGf4EtQTyaTktTTaDSwuroq3rnf78fU1JR8tuVyGcViEW53r6vUyMiI6N9JuTAYzAYWpIhisZgAdz6fx9LSEqamptBsNiXWxNK4uVxOlDcMqlYqFcmKnZ+fxx133CFlevn+yMgIFhcXEY1GpfxwNBqV43JS2L17t0yAoVBIasCn02lp4ELaqlwuA+hRPIcOHZIJ5VazAag7mM/nw8GDB20Py9mzZ7G0tCTeEWV09O6d6IzLte148J3sR6Pel00U9FLZnIR4Pu0B0raiMXhM7ZWTKiDgBYPBywY9cwIzC5/xd7VaxdTUFCYmJvD444/jE5/4hGRfXk/j9WhQv5JYCLfrdrtYWFhApVJBMplEPB6XtnEbGxu24leTk5NSyZCrBH7WFy5cwMzMjLw2NTUlnm86nUY6ncauXbsExGOxGCqVCoLBIPL5vAQkGTQtFosSWFxaWpLAYrfbRTQaRblcRjweF5kig6jUkDM4u7i4iAMHDsjqgefz+Xyo1WqiYNHfp0ajgWg0ioWFBezevRtDQ0MyGdRqNYyNjSGdTmNhYQETExNSwCsSiSAajSKbzWJubg579+6VDFlmq1qWhYMHD0ow9VYD9lvraq6RMcrPgkGRSETKhTKCzmJGBJydZpfuNAjpBIT9aI9+QKFldwRyTROZPDv33ckYtZdJ/ldzsfRkd9oz1Ika2g4Y2Xz58ccfxyc/+Un5vK43/WJZlnjCmn7R72+1r56cCCherxfhcBgbGxuoVCqyykomk0gmkxgdHYXf78fq6qrs6/V6MTIyIp6w2+3GxsaGre48VSOjo6NS9IoadCYYsZ758vKyjK/ZbCISiQDYrA+TSqVkJcDMUAAYHR2VLlqkOlgZMh6PIx6PY2lpyRboprZ+ZmYGxWIRxV/ozOv1uiQV7du3D/F4HJlMRp6tdruNeDxuo3VY8IuZsMxUjcfjtucqm81iaGgIe/fulfrstxqgAwNQdzRyjIcPHxbdb7PZRKVSkSUcu6JrmeNWtlNvdacUxE721YExp0CuE/1iAo75W2+rAd3shkTagI2Sr/a6nXh+8tpMFdc9Pq+3tdttWyGxK6FhuGpi4g5rojAzkyViudphv8+FhQX5PFhqt9lsIhaLoVQqSQYlwZd8ejgcxtraGur1OiyrVw3S6/XCsiwBdyYPsTsWn/NEIiH165mdSX351NQUdu3ahfX1dXneKpUKhoeHMTY2hpmZGbhcLln5UjUUCATg8/kQi8XkngI9lUq5XJbVAytJ8p7p1n4sZsagbrValZK/4XBYnC4+k4FAAIcOHbqkWfetZAP6pY+53W4cPnwYy8vL8Hq9UkOj0WhgZmYGQ0NDWF5eFrUCcPPVcOl2u7Z6Ijuxrbxjkx5iY2ECBLchKAA9lQO32Q70tgoY99u+WCxibm5O+NUb8UUlQLBw2JUU9+L94GQYiUSEkmg0Gpibm5NenwSjSqWCeDyOVCqF9fV1JJNJUYqw0FU0GhV+mpOA3++XBtaBQADz8/OYmJiwlZYeGhrC+Pg4zp07h0KhIElNQM8T5yReqVQkwMo2e7ruDAEWgBTcsixLKpwy0alcLtscJE5Q3IaTA58dFtmjBp3nMKtIkh5iMJgTJ4OiXq8XDzzwwA0Jpr9XNgD1PkbeLRQK4fTp0/KF8nq9mJ6exsLCgtTOIKdsyruAywtsal7eyeveal9zGwKsLpXqpG7Zyus3+WwdDKWXTtPNC0zv1RxXv/th0k/6fpj3hf+3Wi1ks1lJtLkRySScTDY2NmzXeiUgoYvFxeNxdDodJBIJCcTrTj9jY2NS0Gt+fl5WQb0KhD2PN5FIwO/3S0IRZZIEYsuypPY6J6dsNiuTvq6TzmPTs2fwW1OOnMyofSdFqZu462MBsFF1ltVr8E4KhTp9Guko3l/eA+7HgG2tVhNKh5MtJwcGlKenpzE8PIy77rprAOq3o/Hh39jYwOuvv45QKGSTN2azWcko5fbaS9mOH3eyy1W5aMDT49Z/j4yMSF1pei06sKkbgmiahXWo+UXmT7fbxdLSEtLptDS0ZiBWB0q1lM7J+3a6J5f7JeP5crkczpw5g2PHjtkA4XoZgYLXfaWJR7w/ACS4zEShSCQiNAWBnx44A5X6GWGtcR4zFArJuOjp8rMlMPPY5n3XoK2fMapwGMzk/QcgDUu4P2uoM6bCBuGUFo6Pj4uHz3tpWT01DbsftdttoaCAXq5ILpfDyMiIBOGpyLGsnoSSSVVM0CoWi3C5XMhms8hkMnj44Ydl5TEA9dvM+PBTosUWWe12W5bJlKG53W6hZrRUUHvE29Ef2pveivd2sn7buFwu3H333fjsZz8rKwpqyAnWDGiZQSOzj6nmcEulEi5cuIDvfOc7eOGFFyQTkV92epBsenwlwajt9tFfykqlglOnTiGTyUgyzvW2crlsq/1yJabBEehxybrrDzlhbssyufz8NGgSYHnfNGgzbZ+OR6VSkfcZDOVzqjXojCfRSqWSyCAbjYZkZtKZIUgT4Pfu3SurqXg8jkKhALfbjVwuJwXCms0mEokEarWaPDfpdFroIQZzC4UCYrEYisUiCoUCEomEcP46gWtpaQnT09PyWjAYRKlUQiAQQCaTwcTEhKxUblUbgLqDETAsy8KePXvwpS99CU888QR+9rOfYW5uDsViEQAkwu7z+ZDNZvFf//VfkvFnAjttOw/8Sr0HJ2/Y7XbjjTfewNGjR/HpT38a4+PjonXW16jHyi87PVCm5PNv/kSjUXzsYx9DJBLBN77xDQEfThzhcFjkcea4+k1g2vpNbvp1/m61Wjh//jxWV1cxMzMjYHC9rFar4cyZM+LJ6mJeTtYvTsDVEz8rfW26rRsAKRFLZRGbtrTbbcRiMXm/0+lI/XVOwiMjI6ITp/yRtEw+n8f09LQ8BxMTE8jlcrAsS9rDjY+Po1arIRaLwefzSfehXC4nwV0qxrLZLDweD0qlElZWVqT2TLfbRTgcFhkkg7mhUAi1Wg0+n0/a+JVKJSwvL2P37t1Skz0UCqFYLMLj8WB9fV2qK5bLZYTDYRQKBQQCAalgyZo27K8K9PJP9u3bd8u1rzNtAOpbmGVtqgLuv/9+HD16FLVazVZciQkMp0+fxttvv4233nrL1pDXCcD60SXXw5rNJv793/8d58+fx0c+8hHR/FKZQgkYx8zGCfScuA2rVVarVZEStlotScACNgGd9UecYgw7NScaS5u+ly6XC7lcDu+88w7uueceRCKR6xq0bjabwuXqz3qnqyod2KtUKlLfnDVryHWTS2YNlkQiIecKBoOiCc/n83C73RLcjMVi8Hq98tlms1nbBDs8PIxisYhgMIhGo4FMJoPx8XHx0JmoEw6HUalUkM/npSEG5Y18Jqh9532hfp1AWyqVhEqiLrzdbktAlzGQVquFWCwmgfV8Po9MJiMp/pQ5dru9UgiZTEZyEprNprxHWSgnsHK5jGg0CpfLhZGREezbt++WBnRgAOo7MoK7ll9p63Q62Lt3L+68806cPHlSgMYpcKmB/no/XASHTCaDl156CT/60Y+EXyd4EzC4hKbX6TQxmR4+SxDomiG8Lk09Xe517uT+6G3Iy548eRKZTEYohetl7XZbWuhdDafucrkEmCuVigAV5XherxelUglerxe5XE7KBpCzZi3zbreLlZUVWaUQNLPZrFRuXFlZwdjYmNyvUCiEXC4nHYLS6TSSySTq9bpMzpQtplIp0XVXq1UEg0EUCgUZXyqVwsjIiOjTCc7BYFDK8DJ4y74E3W4v4SqXy0mAmMIDgjMzYi2rp1/nfixpQOButVrI5/Py/PEeAb3ng2M9cuSI1MO5lW0A6tsYQWsr44P26KOP4pvf/KZNEaC32Qm4mduZANdPFdJv7PxNbjObzQpgO52T2zo9+BrQtyti5gTM5t9bKW/0+fpto9/vdDpYXFzEW2+9hd27d1/XL26tVsPKysolK66dfr40ZkCWy2VEIhEUCgX4fD6pQEhJYrVaRSgUEt02E3zC4bA0qPD5fJKuT0+a3nAwGEQul8PGxgYSiYR4zSMjI2g0GkIfEvzIlzOIu7GxgWw2i3g8Ltewd+9eKct74cIF0aATfKPRqI3KY+mDTCYjtA67iPH+VatVSUIaGhqShiF0Mkh7ko7h65o25Pj4fHOSa7fbOHbs2HWf8G8GG4D6NTDL6rUju/vuu5FMJkWFYNq1Tkm+XC9YywtNXrqfOb1PUN8pmF8Lc5oENJBS4fD666/jox/96HVNLslkMraO95fzOeiJmNUYWduE3jNbzVUqFQQCAenJOTQ0hPX1dUxMTKDT6UiCT7fbyxilDDIajUrG6Pj4OCzLEh6b97BeryMYDIrXa46xWCxKxqjX67WBIeuu8FoSiQSAzeexVCoJPaVXcKYjolc53IbOglZVMTGLunlSgDSWIWbch58NA7SBQACBQAAPPPDALdkUw7QBqF8Do9cxPj6Oe++9V1pvaaP3cDMs/czgKLCzLFUnrbi5zbUc43Zmesr1eh0XLlzA3Nwc7rjjjusG6isrKxLEvJKSu1RMWZYlhaqSyaSk4qdSKUxPT6Pb7XX4mZiYQCAQuMQrbrfbMhm0Wi2RMXJMrVZLJgmtg9eVGmla/cRjEByZyKSPS4kksFkfiJO9pt1Y7bHdbiMYDIpirNPpoFAoiKLM7/cLhQP0+PlSqQTL6ql+ksmkcPIM1jLekMlkkEwmpbibjjdsbGxgfHwcR44cwfT09C3ZFMO0AahfA6NH4vF48Mwzz+DHP/4xlpeXZflK0/LGnerQefx+25vAZgLv5VyD/t1vm36KFKdjOb233Tidjr9VHMKcZDY2NvCzn/3M1tXmWkykemmfz+dtweXtPksnJY8GvlKpJHLYoaEhG7gBwOLiolwntdmcGKjTp4RUN6HQfXbNMg48HuMmlCNy9UAuHuh5xrr2kaZFWq2WLb4QjUYlUM3jUapYrVYxPDws2a0MqgI9WSqzZFntkRp0l8uFVCqFPXv2yJhHR0eRz+d7/Ul/EZANh8NoNptS74Y12JvNJn7pl35JqKtb3d57t/EWMrfbjTvvvBMzMzOXyNz0Q36lipD3q5n89/WybreLUqmEn//851KS9lofHwDm5uYk4cWUr/b74fs0XWCNAMSGG8y4JBDrXIFmsyn0A8GaCWXlchmZTAbr6+vIZrO28zcaDXk9nU6L5JFjomdOAGeLOVKLTEZjkwpOlENDQ0gmkwgEAvD7/cjn8+Ild7u9OuhM3LMsSyYgTkrUmQ8NDaFUKiGfzws1xRwHjmNtbc3WF4CJZgzclstlW4XHWCwm5Q+OHTt2WwA6MAD1a2oulwtjY2M4evSoeOmaxwZ2xsHeqqBvBlqvtVEJMTs7i/n5efF+r5VRZZPNZuXYO/2szEA3A4NaYUS6JZvNYn19Hel0Wrh0AEJZMNi4sbEhAUiCJGWJrJfOiYeVGDlpFAoFAe5Op9ciLhgMCudMrTrvK5t1UMVSLBZtWZ+hUEgCtvTqyXFHIhHhxTudjuzLawsEAqJZz+fzUpCLwV72o2WwlKohtp7ct28fksmkBFKp7GJZgH379klg93awAahfQ2P9i7vuuuuSRrk0E+T72eWChfm/liduta+TR7nVdv3Oq8etfy7nWvT+/fbrR0FpFUw+n8dPfvITG2d8tcZVFj1d7TE6jdN8T38uLpdLwHl5eRmNRkOqKnq9XqFVyBfzGB6PR/h1v98vaiZgk/emaiUcDiOfz4skkp5vKBSSVUA6nRZunACqa7esr6/bniO/349GowGPxyOVEtlkg9nXDEyurq6Kx91oNDA5OYnp6WnMzMxI5iyDvYlEAocOHcIdd9whtVsAyNjGx8elEiRLVXBflu31eDwYGRmR1Uuj0cD58+clq3pycvK2AfUBp36NzbIsHDlyBPv27RPNOk1TMNe6ROz1DFpejhH8nVQ2Zmygn2xSb7+dESS5D4Nnb775Js6dOyedkK72vhCgstmsTBbknHcRXOE/AAAgAElEQVQSG9Agz7IMVHQUCgVJpLGsXtGqtbU16fCTSqUwNjYmE8nw8LB40uwExHZzTA4qFovSXYhlBViel5pul8uF9fV1Ka1Qq9UwOTkp1NLa2hpKpZJkfUYiEezduxfdbhfr6+tYXV2VlRD5cgLq2tqaTAbNZhO5XM7WYEN/ZuxdyhUc69/w+qgmoyAB2OyRytUGsFnTXtc5ikQiOHbs2C27+nWyAahfY7MsC9PT03jooYfwzjvviLehQY7BKNrVgk6//a8FwF9JwNUJmHkP9GRmBu6AK78XeqJot9tYW1vDK6+8gqNHj16TinycjFOplCgvNJ/ebzzmMQAIJcFaKLVaTQpVNRoNVKtVaRnHrNNisSh10wlW1WoVHo8HlUpFEobK5bKNRimVSigUCqIOKRaLmJiYkPFduHBBaJBWq4V6vY5EIiHlIHSdGPY15TNMPpzXtbGxIXQO0/j5efJ4/Iw07aTjTOZ95bbUwJPS8Xq9oqTh2Pg+67y7XC584AMfwMGDB29Ynf2bwQagfh0sGo3i6aefxj/90z/ZKttpioAPn9MS3TR+MfqpTPp5tVs9xP2218E/kzZyGoN5LKfgoOmhO9E4TtttZU7b6WMVCgWcOXMGa2tr2LNnz1Vz+FR6LC8vC6ibyqOt9tXbsdQuQTwcDksVQSo4/H4/pqenAfQmgXPnzsGyLGnnFo/HMTExIRMYKQgmK8ViMVuAlUFYoAe+NNZG0Z4xSz+w6Bsn43a7LXXznVo4cuXC7YDNwni6/EEul5P7wpr83Jd9Z3kOXSaYaf8E8Xg8jmAwaCtfwFIXuVwOiUQCx48fvyEtDm8mG4D6NTYuEQ8fPozDhw/j5MmTspzV29DjuloPnce70rGa/1vWZuVA/aXVf5sAqb0s0+vWsjr2hyQdoI/jBPh6TPpcO4kBAMD8/Dxee+21a1JnnWC8srIiwLbTIKy5IjGBncFGarqBnsRPPzfxeNxWvzybzUpmJlsu6kqMuVxOmk7oaptmSQitK9cNVSzLEgURteF+v18+/2KxKDWQOp2ONNrg/6ydzvoz0WhU+O5IJCIBz3w+LxLHdruNsbExiSMww5TJVEyUYmITVzr8bEdGRqTlXre7meXNRhu3iw1A/TqY2+1GMBjEk08+iXPnzskDDmwCIL8sppb9RhtXC6bmWoNQv4CgDqL124YgpAGNlQLZkccsp6C33c5MwNcTZaVSwY9//GM89thjUqr2ar7cnU4Hp0+ftnU82uk4OT7t4eoa6Axe6olaJ/gQrLvdrjwzPDcbjDPQSlUK7zPrwwC9SoXc1+12o1QqiWJmaGhI6rQDvSqkpVIJnU5HEpFYuoD10lk/qFAoSBmBoaEhjI6OiqySHZKovmGQl3x4JpMRuqTRaNi6QFWrVeHZK5WKLVDK5hfsRVqv15FMJlGtVtFqtfDYY48hGo3eFlmk2gagfo2NXzSfz4cHH3wQ//Ef/4FMJnPJF59ASq/CXMpu54VvR9WYf3MfAh9/U/5GUABwSTGy7ca0kyCUST+x+mMoFOrb7s6kbC4ndkCwm52dxVtvvYWHHnoIwWDwqhQQtVoNFy9eFBA0z70VdaR54larJVQJ32NKPHApZdFqtcQ7JWVBrxmAADfQm8hisZjUh/F4PLKyYOErFg3rdnsp/nw+q9WqSAtJaWiPuFKpSFXSTqeDWCwmwN1oNFAsFqWfry6XS7XP0NAQhoaGJIuWnzfBmYXAvF4vdu3aJQoXNozmRDc5OSmlFShd5f3UNfw/8pGP2Erv3i42APXrZB6PB0eOHMHBgwfx9ttvX+KNArAV1tIUBnD9VCwEBqoU6Kn148qd+O9+fzsdw6RLdB0QfmmZwbhThYLJ2evzAJv0AT3MF198EQcPHryqrkgEVt1EYqcTLsdGnTnrfLPGOUs4EyB1CVwAUv+FXD4bVVBimEgkUC6XxUPVXjOpEVZLZKldvs/0/VKpJNmZQI9rZ2PqUCiEer1u21dPCsxGZfIQ941EIkgmkwCAQqGA9fV1qSFTq9UwMzMjHvj8/LysLlgpMhAIiHfP7wopMN5jTm58P5vNotvt4t5778X9999/23npwADUr5u5XC7EYjHce++9eOmll2wFiEzOmd66+b6T9fPCL9fo9Wj1gslVXw61YI6NvzUPT7AloDOuoD1ATeFsFZztd26aBtJz587hzTffxMTExBXHMRqNBt544w2p+OfEp293XE5orGPOMrYMmo+MjKBQKMCyLFG0UPZI2oRZk4VCAd1uTx7JYGu325XEm3w+j1gsJmoRNo3w+/2oVquoVCoyjkAgIKn9BG7GP5rNpqT2dzodrK2t2dQynU5HQJ5ZoZzwdEC50+lITXeOaWlpyabP16ufcrks++vPU3++1MDzPXLrXq8X9957722lTdc2APXrZOQsH3zwQUxMTODcuXOXyPkIbLpex1bUhhNFc7kAxfOa1MZ2wcedmsmvE9D1sfklJ0CS892OythuwjHvC681nU7j9ddfx4MPPojR0dEr+qJXq1WcOHHCdo39zu90TxgMZalddvihFJEla/1+v42yAHreaLlcRiAQQKvVkrozbG7RbrdRLpelXjoALC0toVqtSiGwUCiE/fv3Y2hoCJlMBqurq3L/y+UyhoeHpQ8tFSS8RtIf5PNN8GXhLcuyRMpI/p9Zrfwx1TL6h5Sg9q5ZFoH3PBwO22r6MIuUMspgMIjR0VE8+eSTt3yHo342APXrZHwI9+3bh6eeegrnzp1zpFb4he8nuevnpV7pw6q9X6cgLb9YV3psM2BKpYueTAjq/N/0ek3gdooNbDcBabqn0+ngzJkzeOedd/DII49cEahnMhnMz8/LuM2xbnVPCFgsd+vz+USrnk6nEQ6H4fP5BFynpqYAAKlUSrhoAi0LldXrdSwsLNjKBLCbEQOZ5OmpX+czyHK/Or6SyWREDcM6L/oaSdFRwUJvnH8DkBVAt9sVOSTvP7tm0RKJhJybzTd0sJ4BUVJQLM7F8gCMFySTSWQyGVnxdTodPPzwwzhw4MA1cVLejzYoE3CdjIASiUTwzDPPSHQfuLT64nac9rV+MDWvTq/HDEjqcW5lBGUN5DQG/EKhECKRiNTnNj0zcsb6nE6cvdP96PeaOf6NjQ28+OKLqFQqUu71cq5tYWEB6XQaAGye6k5Mj0MHIwOBgNQCZ7OHQqGAbDaLbDYrNVn05LS2tobFxUWk02lbsBSA0C7FYlECp2apCAY1S6WSFPDSYN7t9trF5fN5ZLNZW/Ic1SmFQgGFQsHWQ9Xlcklzdqfgezgctn3O7OXLfSORiFB0pVIJtVpN6J9AICBFzqhB53vdblc0+VwJffzjH5dJ43a02/Oqb5AR1A4ePIj77ruvr2esE5T6gbv++2q5dP13JBKxdZ/hmExe3PwhfULPVWufdbo2ddKsJMi63fTyIpGIKCH6BYt3er1OdAj12fV6HW+99Rbefvttm8R0O+Oke/78efEEdzomHT/Q18aCXdlsVsCU96TVakkVRu7DSZ/3mZmfTKGvVCqyDb1pFvQqFovSKFqvwmq1mvRaJX9uWZaU7+W5SqWSTDiW1Wu2wXtaq9VQLpdFQunz+QScWTWS90sX9mItGk4KzWZT6tUwU5TXxBXK8PAwYrEYRkZG0O12BfQrlQrC4TBmZmYQjUbxoQ99CAcOHLhkwrudbEC/XGejB/Pkk0/i5MmTSKfTtroX/OI7BUz72dUGSWk8RjQaRbVaRb1eF3DYLkBpvqfHwy81m3bz+gDYalr7fD4bNaOPc62uT9/jSqWC//3f/8Xk5CT27NmzozaFDMYtLi5KEFC/77RC4N8ERmCzn6bZjIIJR6QadG/QSqUilAVBT6fYM/WedAezUZkmn8lkAED04GwyEQwGhY9mliYTjJjkw8Qjev9U6jAwSrqG+nXSRwTmZrMpkwabdwCQolxUsVDpQhVPLBaTLFnGHLi6YB13n88n43O73cL5h0IhHD9+XDox3a42APXraPzyBgIBPProo/iXf/kXW0sxbbr+hUkf6O13EkzdyvptGwgE5Eutsw51oJPXxP/1bw2Q+m8nkDZf28kk1S9outXrToG5kydP4syZM9JIebvzdjodrK6uYnFxUY7B+2CaE3VETT7pkHA4LBw51S30ykulkni69GwtyxIao1qtioKE5XBZ5pbBZgIoaQkGWwuFAiKRCLxeL6rVqnDW9Nh1/XSgl53JFSRpGoKxx+PBHXfcIRPl0tKSUDilUgmjo6MS1E2lUqJyYlVJeupmqzuuXoDeM8QVJOMR+rtj3uN2uy0BUgZrb1cbgPoNMI/HgwMHDuCDH/wgTp8+Ld1ctNErupG6WhNM6c2R+9YZkyaIbgXW+vhOr283jn52pTEGDfDZbBY//elPcezYMenfudV+7XYbS0tLWFtbAwCbp76dcYLUfDU79LAhMgObBGUCe7fblfT6YrEoVFepVJJ6J8DmKsvn86Fer6Ner8vfgUBAyhBwVcCM1mq1ing8jvHxcXQ6HWQyGdGlk95hiz2/3y/1YgjkXAVQkaJjFKlUSq6XExCpH5YNMJ8fTT8BkCAvVyGkePR7HBsnx2effRbj4+PveZb2e22399XfIGMw8Pjx4/jud7+LhYWFS8CJoE464r0yDcQ6bd1cXZgUTT8qgttsBdzXik7ayvSq4J133sGJEyfwzDPPbDlJkH556623JHBJj3Src5hcejAYFOUGS+3SY2e5XCYGMXmItVzq9TrGx8dlEkilUqjX6/B4PFL4a/fu3ZLyv76+bmtDF4lEEAqFbDQQry2fz0ucgFpxfp7lcllKDFN2yf0AIJ/Py/+6kiInDU4kun4Nr5MTY7lclhVhKBQSeogaeB3s5QpEN9MAIKWBDxw4gF/5lV+56lIQt4INQP0GWbfbxX333YePfOQj+Od//mfHYlYARLfuxFlr8DOBUAfBdmJOCpF+r5sA3m9fJ+snR3S6NvM1c2XQbwz9aseY71lWr5hYLpfDf//3f+OBBx7A8PCwKCucrNVq4cSJE+IdmvdcH1tTCQywAj1wHR8fl+Dd2toayuWyADMATE9PC7AvLi7aAozZbFaoMSbp8Bqr1SoWFhbkWhnD4E+xWBTO3LzvZnCbx2XrOXrYBF/y7pykCL7UipPy4f0gBaPzEVgSwrIshEIh4eQrlYqMX5f1ZV2bbrdrKwrGfemVP/300yIFvd1tAOo30GKxGI4fP47/+Z//EQ9JgxYfYqoL+i31nQKZ3P9yA43mJOG031a0ylb0i/l6P657u7GZr/WjgZzO43Q/yJN///vfx8c+9jFJmTet2WxiZWUF58+ftyXj9JuYtJmt9FhSFoDQBVrdwubS3e5mQ2n+z6CjPhdBXN9L0iY8Bj1vgjXL1lqWJbQFPWxmonI8WsceDAZFqWIGXX0+n3DzbDdHj7zVakn9FyqQANg8cgZ3eQxq2+v1usQUSEuxMFir1YLP55OYwf79+/Hggw/elnVenGwA6jfQ/H4/7rzzTtx999147bXX5EtEIzDTC3LyYJ1Mg+zlUBnbedD6vZ0EY508aSdQ7XdN2wElAFswrx94OwGvef56vY7vf//7uOuuuxCJRByVMNVqFT/96U9tiTHmMZ2uhXw4AAEhgqaOU+hjaO+eAG5Zlq1eDflsHoOVD/X1kptn3IZqGqqRGJSt1Wqigdf0Br1qBmWZ3ERFDCcHy7JE5cIYDCs2VioVRCIRkSqOjY3JBMf+ruTuY7EYxsbG0Gg0kE6nkc/nbf196bFTDaQnIRYdO378OPbt22ejC29nG4D6DTKCxvj4OI4fP4533nnH1nVde7CUpWlPTHvnOwXvfoHKy/GWTQ/e/M1zmJUd9bl2EjDdahIwAfpy70E/CemFCxfw2muvCSdtrlpyuRxee+018XZ5nU73R/9P6R9VK6zLYlm9OEW1WhXgpidM75z0A49BzhiASBWZuMOAI71l8s2kNMjdE0C5HaWrlCoCkB6lmgsvFAqiJBkaGsKuXbsEUNfX14VDr9VqSCaTIntcXV2VFSe7J8ViMfHcuZrodrvSRJv3hmM0s1BNKo0TUDKZxGc/+1kMDw/f9gFS2uAu3GALhUJ46qmn8I//+I+itdUARc+JHtB2nsfleiZXszx1ojr6bWdu2y+Q6nTsfufYCvj7HddpXLzH3W4XP/zhD3HkyBF86EMfsm3TbrcxNzdno16ceHenSY7ba9pDlxcOh8OoVCpSw6VSqdiyLSORCEqlkmS+svgWjxcOh22t3bTXzMJgvAby4ZbVy8CMRCJSL4YVI8nT03Mm8FMOSUej54S40Ol0pa4KP9dMJoN8Pn9JUJzn3djYuKRtHTX73EcDOAu88Ri6/gsDt5FIBL/5m795TZqg3Eo2APUbbF6vFwcOHMDHPvYx/MM//ANKpdIlKfL09raqCXOldjn0DGCnO4BLwdap6mE/8NOJM/3okX7ncuLxt6JYnP43x9LtdrG2toZvfetbOHz4MILBoHh7jUYDZ86cwerqqiT4bKV64bnIa7OcsAZmXeyKQUSuGsrlsq0sbSwWs+nTWfOEmZt79+4Vr395edkW9AyFQkKd6EkGgC3oycAkP5Nms4l0Oi1es66cyFWD6Xzw2eW5SDXRzFr5uvKi3++3ZTO7XC6b4oWdjngcxgRILd1zzz149tlnJbA7sJ4NQP09MJfLhU9+8pP4wQ9+gDfeeEO+YPrhp+fEVl/aTE9I/9bbbGVOx9gqWMrt+nHYJug6cfCaNnGiZLSXx2Cxro2uJz2nazbHyb+1KoXv8bVWq4XZ2Vm8/PLLePjhh6VBRCaTwdtvv23jwZ3urfk6t2dmJj1IlpL1+XyicJqenhYFzPr6unjaHFcikUCn05FKizxfrVbD0tKSXAefEYI6+53q8Wkg5rF08JV1gPgZ1Go1mXRYAExPHDroSt29liMS2Bn8tCxLOitxhcp2eLxHrJ2uuymR93e73RJUbTabCAaDePrpp6XA2cA2bQDq74FZloV9+/bhySefxKlTp2zaYb4P9LxF1k6hmcCmt9fbXInnYoKh+Zo+vjlpmOPZLhiqg4P6mnS9cgIWqxgC9g5CTpOL0yqA1m9VUavV8O1vfxuHDx8W8Lpw4QJOnTplm2i2o3sY5ORrrE/S7W6qUXjOdrstTTG09p3b1+t1rK+vyzXz/ugSAwRY3i+eQ99/TVuwRAO35aqC59UlktnKDoBsw/F7PB5phNHtdiUhSmdQ87oYdOXKhH0GOHYCO+Wc8XhcgJyae64iOCmUy2Xcd999ePTRRx2dntvdBqD+HpjL5UI8Hsdjjz2G//zP/8TCwoIAu/YqGQzbKu3ZKYAKXD53rsHRTLDR1IIJxHoc2jQQ6d96OW8Cu/bGaUw9j8fjfVUqepw7XWVoj73T6eDs2bP4yU9+guPHj8Pr9eI73/mO1Dfpd6/MsZpePXlr/fnwmvi+bszNY+pYCgGe23k8HptnSsDjbwC2BDav1yuUBuWInFQoW+Tnyo5MWvGiW+F1u12hZJjlyVUJM1g55rGxMZlAWLud9zoYDErgNJvN2nIAuELgfWLQGOg9f7lcDpFIBL/zO7+D6enpAe3iYANQv8GmqYU77rgDTzzxBP7f//t/thKn2rgk77fENAGDZoL9TscGbCpZtKKFEwylZCbY6XFr0De324qXJrDrmjIEtXQ6jVqtJt2LCAJOpQz0MXdC0VCB9L3vfQ+7d+/G3r178corr9iqDDqZvrfMgCQPTsqB18EkGp7P7HDPYCQBnlREt9sVRUu73RblCFcubHLOsZIzpxaciVUcV7lcht/vh9vtlh6xBGpWfOS+brdbugfV63Wpy8LJNxKJiAdeKBRkUul0OjZpIssa8PPN5XKSEWpOkKRX+LlzEteVID/60Y/i0UcflTo5A7PbANTfQxseHsav/dqv4YUXXpAAkgYbghqb8ZrKgp165TsBePM906ssFAqi19bj3I6S2OmXTnvqJh2h6Qo2RiCHqykD8/z9aBq9j/4pFot46aWXEIlEpKXbVtegX+dkx/tDxQrvO0GeXne5XLZRFgz2ccKsVCqyT7PZRDgcFo+bEwgDpy6XCxMTE/J8sMgXjxcOhzE9PS2eMdP/KRuknJOOA/eldFHHOfTnVSgUbFUmuR9LGvC+UHppWZatcqfm9wHY3tMrCk50Ho8H+/fvxxe+8IUBj76FDUD9PTSv14sjR47g2Wefxb/+67/KF4SmvVddPsAE9q04bJoTPeME8uY2lmVJ+VktSetnJqA6jaPf305esb5+AlY0GhVPVo/TpFXMcfTz5HUw9syZM5ibmxOw2a7OC9ADrkqlIlw0QYwqGPLX9JA1taZjBeSSLatXJ5xARpqGTZxJQ9B4LPLLfr9fpI7kvOmpd7tdW4lnqlr4t67jwr85Xv7NpCaaXkEAPXAmsOuAND9PyiGZmcoVDO8bJw+/3y+aeqAnB/7EJz6Be+6557aul76dDUD9PTQGAj/zmc/g1Vdfxc9+9jMbKJq8aj8+uR/9Yh6H/5v7OHnpprftVE7X/Nvp/E4rC6e/zYCkHrdWXeiGIuY9cpqg+q0ozGsgUGUyGSwvLzv2t3S6bn42DAL6fD4MDw/Dsnr9OwuFgoAjdeCkEkip8NoJ4gBsNV64//r6+iUrKI5BF+DSiVKcRLiKIK8OQCYcfZ+5GmAROn0+TQ9ZliVj5CTBiY2KF2ZFs8wA7wF5dQC2rFiWGdD3PpFISKLUhz/8YXzyk5+87eulb2cDUH+PbWhoCEeOHMGTTz6JM2fOSGDKlDjSW+4ncaSZPK3T6/2sHzC6XC4MDw9jZWXFRr/oL3i/4/FazPFoMNYcvAZrE9TdbjeSyaQAQr9VgdOkxN9OHr3uyZlOp2UC24rS4d9sZMGx1ut1AT967jwX5Ya8bj0e0mz0SslPMziqx886KzyGXgEQwOlZs5QyJx2/3y/AzZK9pPYY6OQ4mDSlVS2UKjIozGxVr9crma/NZtOWfwEAU1NTsuogpQNAxun1euF2u6XxtS4r4HK5MDk5ia9+9avYs2fPpQ/awGw2APX32NxuN6LRKJ544gl8+9vfxqlTp2y1qQki9FLNpsDa+lEj/bjv7Y5BIGKgdmxsDIVCwabG6Mfxm170VmPS4MovN/dnXIEeHb00M56wnUduns+kXtxuN1ZWVlAoFOT8261Iut2uLc5A4+enFS1ac8/XSDsQuHXJCGAT2Bkg5P32er02Dr9er4vihcCt9fKsk85xUPXCc5Amabfb8Pv9kgSlVyD8LNhOjsCtJ15+dgCkHgyvj3SR0ySu6+LoGjukcIaHh/GFL3wB+/fvtx13YM42APX30DSwHDlyBJ/97Gfx13/91+L5mUBEYN+qxsVWXns/Ht4JlLWRYw0EAuLplctl8RjNbkDaAyWYOf3mD9PFqdTQfUw1oPAemJOJE2A7XYf5mgb3RqMhHXx0CrzTfaTVajXUajUBJAKupodYT7zZbMLn84m3yuskcHMVRpkgQZhePzsPmYFVnrdarUqcgVpwnssMnAYCAWnEUSwWbbVY9HWamneqWvgZk3bhOJiQpKWp/Lyp7jILlgUCAZuSiRMdP4ehoSEcO3YMn/nMZwZqlx2a1d0u8jWwG2KNRgPLy8v44he/iJ///OeSCq0BheCql8ymd8y/9Wtb/e+0r/Zg+ZoGah1Eo2dFMOGPblWmAZpGsNgJb22qXLg03+razPH2uwYmdy0vL2NxcdGWWdlvdUOQzmQyjqBOVQoVOjr1neUD6DXzdaA3Seja7jyWZVnSjJrab5atZUZqoVCwjVmDLmkymgZeHVA2JzKWF9AAT2PglefS6f6kCrmvWeaXKwCuAnWZX4I+J7577rkHf/mXf4lHHnlEJvsBsG9tA0/9JjG3241EIoHnn38eX//613HhwoVLwFdLHDVo0rQHvpWXzmNuFSx1+p/7aZWKXjX0myTMJbe5rf5tjs/82wSurY7lZCb1MjQ0hFqthpWVFdtk1I864lhYjwWAjXemzprBUJer10uU1IpWOLEkLr1VqmR4Ds3N6yAqaYl8Pm9TqOgxcrIlBcNj6qxWfQ6eX/cFpWfd7XZFQsnroDKFEztXGjqzlcfRdeS73a7UQud9bLVatvvFFn0jIyP4wz/8Q9xzzz1bNjIZmN0GoH6TmGX1NLyPP/44vve97yGVSkkKtQlW/BI59TPdCsD1MbbbRwc3zSW4Cexbgar2+AkkTpOF6cU7jVVTUuaPeS/7rVL4N2mfbreLpaUl6cqzE/1zo9FAoVAQbxyA1P1mPXF9v3S5AB6fAWYmJXGSIcDyb4Kq9nwJcJoX16V8SdPo7F0ek9fJ9zwej4yPx+DqgBO2bmJBSoQKFq50SqWSgDOpE9Il1WpVygWbxlo4+rliLffnnnsOjz/+OGKx2JaZxAOz2wDUbyJzuVxIJpN47rnn8Morr2Bubk6+5CZ4sUM7s/9oV8qmOQGo+bcGVe0lm+/r7fRxnLJQnUC539j6gXk/CsqJSgI2qQmPx4OlpSWkUil4vV7Han9O94XZk7pCoW7ETE9ZxwH4mgZfr9drA2cdSzGrJDIDVPPrpGJ4HNIWzBqlpJCKEj5LVL3w8yFociXRarXk/1AoJBmh1WpV1C+8HhbwYkVKXlu9XpdtSa3Qi+92N7swaZUPqRWv14sHH3wQX/rSlzAyMjIA9Ms099e+9rWvvdeDGFjPuPyPx+MYGhrCyy+/vGWaOvcxKZR+3qkJoP28XPO3Ew20Ffg5nWen43F6j/dlq2vbLgagx01vuVar4eLFi7ag3FZjsSwLhUIBhUJBeHRzbFpLT09eT3T8nDQtwvHp8xOEtbySdV/oDWuNuGVZiEQiCIfDQo3o1Raljbq5NMely+aany3VNZRq8jUemxMVa7Y0Gg0bnw9sdkTSPLq+J3ydoP7hD38Yf/Znf4ZDhw7JqmS7iX9gmzYgqW4S00CUSCTwqU99CvKNbHUAABjdSURBVA888IBI2cxtAdgCUvp1mslj8zWn953UD6aSYavj9rsm85w73aff/3ytH+g6bafBnYDicrmwtLQk/DebMvSbZIBN2kXz0JQW8jpJR3AftpfjD1cI3E4rQQBIsatoNGpLt+c1hMNhRKNRhMNhmUQIjqRh6EHr+86sVyYBadUSsEnhVKtVAXEdZOWzRrpI13nRnjgpJU4QAGQlwW2ohOHnQJ29y+XCBz7wAfzBH/wB7rjjDpu8dWA7twH9chMag6a//du/jbm5OczNzcl75gPOL48TdbAdmDqBLr/ImuPml5Wgp7e5UV84ApcT966tH51jyinT6TTW1tZEYaI5aKfJgYFJ1kqht68DgaRS6BUDEKDUfTdDoZAoY3TiErCZTg9A6BXNz7O7EMdIqoTn4mtamaKliZyIeAxOMrxO0jg8DgHXsja7K2mqhxUlh4aGRJLJ2jR6BROPx+Watb6dqxGPx4NQKIQ//dM/xUc+8pEtK5MObGsbgPpNaJbV0+8+8cQT+O53v4tsNitKB9N7JC9JzTe/vHobJzPVEv3AUG/j9L8GGL0NgZ/HdVK+mPvr/3cypn7j6uedE8Sy2SzOnTuHoaEhGyXhNMkRqEulEvL5vI0SosKDAEdjpyOamVTE9/RqyLI2a57QS9Z8M5UnWmWjs08ZHCXAkgLi2MihU+HCyYIBW046Pp9PeqY2m81LVoKJREK21Z2QeA1cxejMZwZZgU3PXnvrrVYLo6Oj+L3f+z0888wziEQig36jV2GDO3eT2tDQEOLxOH7rt34LZ86cwauvvgoAlwCl5nFNz9lUrmhzel0fm19SwN5Uuh+I871+r283jqvx+E06xrw+cs8ulwuVSgWLi4sClNpLdwrcWpYl/Tr1+2z+wOPT9GpG6/j5HoOXvC+69RuwyasTgMlfEyxJq/A4WgHD1Rq9aj0B8B7QWCFSK2cA2PT1eqKhsb4LJwMdyNUVFfWzoM9LDp730uv1IpFI4POf/zw+97nPDZQu18AGoH4Tm8vlwt13343nn38es7OztqW36SnTa9ONCmim927SLabU0ARup2Qf8xymOXnQ2nt38tzNMZhe+1bW7/j6mO12GxcvXpSa4azLYt4bfa52u410Oi11ykl18Z4RxDS3TEC1rF5wkxUu+cOJhLQD9yVtQjrE4/GIB25ZljST4FipgOHkwMAr3yeo+3w+kUbyfcoYeTyCtPa29YRjUk4anHkO3VVJJ2SRxuGYGOgFepPYpz71KXz+85/Hrl27BoB+DWyQUXqTW7PZxMrKCv7mb/4G//Zv/ybNB0xgN79cprcNOAcVNTeuAUF76U5esN7HybvVoOK0v/m3eU69PYNsTufaaux8n55nKpVCKpUSikFr0vU91JPAxsYG1tfX0Wq1bHVQGOzkPto7pcxQj19rvsmD8zPSdddNsDU/A64AtKbdnMz4fFAhQ6qD3rpWwHDC4fnM4mAEbnLfOjdCB3Hp4XPVwwCoZVk2qaaelILBII4fP44///M/x9jYmEx2A7s6G3jqN7m5XL0Kib/xG7+BkydP4q233kK1WrVJ3fQXnl9gvu/EWZtmesW0fpQJsJm6b5rTuUzPfzsPXwOU9sDN/ftRSCZd1Ol0kMlkkMlk4PV6EQgEbAWy9Lj5mwG9TCYjQEmQ0sFGGpUa9Ez1fSC4cns9PnrgBEY9Jq1zpwSSZqps9GqBxbV4DI/HIxMSx05gHxoasjkJfH547kAgINdlKmt0ETKOUY+btA/vgb4fkUgEzz77LL785S9jbGxs0Gv0GtrAU7/JTfdnfOGFF/AXf/EXuHDhAoBLPVoNFFQi8HV+aU0QM9UkTh42/3bSguv9eDzT+3by1GnmMbby/vutDvp5d9wnl8tJv9FwOCxp/drL1fsAPe54aWkJ1WpVzqtBlEBG43HMrxOpBr6ngZkUigZjUx5Jz5jv8X1SO7q+ix6XDo7yHhHIK5WKbaXA7FoNxPre0ziRs2QBz6V15lylkGPnmHlMJkUdP34cX/3qV3HXXXfZKJeBp371NgD194l1u73ypX//93+Pv/3bvxXlgVZWmOCkl9L6df33dvSMuZ0JpvpLuB2gb0WbOFE15t/mpNLvbw1w5XJZmksEAgGEw+FLAN28P61WC3Nzc9L3U5fNJTDrsrqaQyfI6brzGlw1pUEzM0tp9Pg1l61XGGycwv10dUuz562+Vr5OANa8Orl3jovHJ4fO+6YnHDMgzHvCei76Xo+OjuLTn/40/uiP/ggTExO2gO7Aro0N6Jf3iVlWL/Hk4x//OGZnZ/Gtb30L1WrV5lVp4OCXnoDSj/ZwomdMQHaiZoDNJbWmLDRHryWW21Ew+jqcxqC3Ma9Hb09PttPp9fksFAqwrB5/y1olTnp0/t1sNrG2toZyuWzLoCRNAWxOQBwPOXK+T+23pjS0qkX34tTgz/cJpHry4Xts+cZJhaonAiiBWat5CPa8VyYtQnBm/EEfm+Ph+fnDczForCc+Tmz6c+l0OhgbG8Pzzz+PX//1X8f4+Pigz+h1soGn/j6yTqdXHGp2dhZf+cpXcPr0aSn6ZQbT9MdqeuwmOBMgnbxsJ4A1PWTzfU1TOAVa+bo+Rj9PXf/v5KlrQOR1dzodFItFlMtlWJYlXe/plfbrtdrtdrG2tobV1VWhGQiuugY6z8vEG34uBDeuoDhmLRnU59V/M4hJwNRUDcdAL52gqakYes4a2LWiRSfz6G5VnHA0jUPvmUFWAr05UZuTuFa7cMLiBOf1evGVr3wFzz//PCYmJhyfhYFdGxuA+vvMut2e1OzFF1/E17/+dbzxxhuOoKiX2ywOZQI/t3cCefP1rcDWCdj1mLZTqJiAbW6jj90P/Hk9zWYTuVwOtVpNao6HQiHxlHXQ0jzH2toa1tbWJKhIkOZ+GgydwFl7xpon1942A5wERZ24ZFmbnLOWQOqx9gvwskKinrw1781VBd/T12VKVjW/r69JK3h0oJhKF04EekIZGhrC7t278ZWvfAWf/vSnMTIyMgDx62wD+uV9ZpbV41gfeeQRfO5zn8P6+jpWVlYuUaPoLyiX3PzSA5eqYJyCqfp1p+2cXjfPzd9alsjtdfkB7VWaHvh2rxM0a7UaSqWSlCXWHjqw6aGa/HWn0+sdura2Jtpsk3fXPDg/A+2xai6aVQvp2Wr6SdcW5+dFVQ335TmoDdfVIPV1829O3Fp9AmxmumqPnxM8JxvqyXksNpvW3rceF7lyc5LVkkauGrrdLj74wQ/ij//4j/Hwww8jFosNAP0G2ADU34fmcvXalR0/fhznzp3DN7/5TeTzeQF2Jw+bwKNBzQnA+dspcKdNb9MP4PXrJq+uj98P0M1JSgdmTR6dxaoo54tGo/D7/RJT0EoVPS7WX1lZWZHeq3xdd5dyuVw2cNT17LV6g+fS0j/NsdM71/dQX7emOjR3rycNHpP70DPWMQdNt9AbJxVED5oTh/baW62WjJWrO04Ymo4ygZ+0EQCRfz7wwAP4kz/5E9xzzz2DVnQ30Ab0y/vU+CVbWFjAX/3VX+HFF19EJpNx9Ii16aAWzaRf+JoGWO0Zmvs5US/6df13Py693376f7P8rtvtRq1WQ7FYFK13IBBANBq1JRdp/ld72y6XC9lsFvPz85L+bvLD+hj00HWA0xyj3pcAyP25n/5cNJ2i67nw3HyfHLo+ri7Dy+Nqj11PSjrOoSso6vtpZsaaNJGeGFmwjPEETkRsUP6rv/qr+P3f/33MzMw4NnMZ2PWzAai/T41f4nq9jnfffRff+MY38N3vfhflchlA/1ZvAESmp0HSKYhqgrqTV96PcjF5dHNM5vF2kqHKv+nls6UcPUUCum4QwXtlPuZMLpqbm5Nmx3osurYJXyPgaRAFYOObdZCSpqWBWv7He6CLcelViwZK7YWbnw1gX2Xx+rQGXWeXap6edAufJa2j93q9Qg3p+8zVhK5EyYnjAx/4AL785S/jySefRDQaleSlgd04G9Av71MjCHi9Xhw5cgSf//znUa/XceLECRSLRVtQz/TECVAAbBx7P3A3AcNpG/06YJc7mh4sx6CPoakjJ49f/2Ztb3qu7PMZiUQE0Dkep7GyiiI9dJ6bnq1OqOF90Vy0BlKCr14BaXmf3o6TA983lTGaFuH/BGJy8AR+s2gWOXztVdPD1ysOnddA6oqetC4xoekUvsdzcX9SOX6/H8PDw/jQhz6E3/3d38Wdd96JWCxm+5wHduNsAOrvUzM93IceekiA4sSJE8jlcpdkBppBRg3sThSM3seJeze343HNbTSwO00MpmfKYxDEtJdML5eBOa/Xi3A4jEgkcklddPOaec5CoYCFhQUUi0WbXps8OqkNU0OuwVUDtwZAvqevV9MmesJxolt0qQHtVet65Xoi5DlqtZqtZ6iOeXA7dk6iB09Kh7EWPalx0tTATQ+dzaLdbjeCwSCmp6fxhS98Ac8++6zozwdg/t7ZANRvAet2e40XHnjgATQaDUQiEfzoRz9COp2+RBHhRK9oCZ8GQA3AJiCbQG+OxzyHSaloL9CJjtFesh43j02FRSQSQSQSETrJBHF93m63i42NDczPz0v9Ey1bNO+DCUz6nvA9gqJWprD2ObMwddMKAqEZrCbIElx16r4Gek4KOnGHk5yZgcpORZonDwQCUm+dfUR1FirvpaZaOJmaSVWJRAK//Mu/jC9/+cuYmJiQ8gsDe29tAOq3gPGLFA6H8cgjj4ik7pVXXpGWbcClmm6+RjNBeqv3nIDdib5x8sydzmMez4mTJ03i8XiEbiFI9eOYeYxGo4H19XW5H51Ox6ZIMSkNygl1EFOvAHRLOvMe6AxTAijHppUo3Ib706Nn1qgO0hKc6TkzK5VetdmkIxgM2tL4eV+obuH4dQNq6s+Z6MQVCFcMbHidTCZx9OhRPPPMM3jiiSekwqLTczKwG28DUL8FTCf5xONxPPbYYwgGg/D7/XjzzTdx+vRpCXRpRUY/EHbykGlONIwT5bIT3t3cjuCja5jo7QhE4XAY8Xjctsx3AhNNMaVSKSnQpScaghcli7p+CekYHXfQXj0nDHYSooerqSKt2ebEoNvfaRWJ7gtKQGWgUv8QzDkpsEsRvXid/BMKheT4bA7NTFufz4dAICCvabrF5/MhHo+LN08lzujoKL74xS/iqaeewvT0NCKRyCX3fWDvrQ1A/RazbreLSCSCBx98UNQg8Xgc77zzDtbX120eHbB9IGsnnle/bUzv2WlbTXWYVRD1cQgqsVgM4XD4kroy/azVamF+fl5K6OoG05oS4Y++H7oUrk5gotesPWoGUentatUM9fKaz9bjI22hi2tpLhwAQqGQTBTkuzkJhEIhqfbI5CtOANTs6zIAOkgK9BqrBAIBSbziNWxsbMDn8yGRSGDv3r14+umn8dxzz2F8fNym+BnYzWWDT+UWM3LCoVAIH/zgByXAFolEpIk1u/iYFIVp/YKnTtuYNAv/dtKhm0FGM6FIb08eNxKJIBwO2xopmAlFfI2AXSgUsLS0hFwuJ/dG68zJQ5t0B4BLpH/sA8rgLGui6Oun58wJgMCsKRV63gTndruNUqkk73EM9Jzr9bqMm4FQp/gErzuRSAjdRv04PfNAIIBEIoFOp1fsrNVqScEzv9+PSCQi3vrQ0BBCoRDuuusuPPXUU3jwwQdx8OBBmSB4Pwd289lAp36LGgNr9XodFy9exHe+8x0sLi5ieXkZJ0+eRKFQuKQpgwniTtSJCbpOPL3eVlM9TpSK0/7czu12IxAIYHh4WKSKZgDX/AE20/4vXrwo18nzEJgBO3BzjLoLERU22qs368GQstFZpPS8a7Wa0F4EXb/fj2AwKJmsphwyGo0C2OzlyftVr9fFy4/FYhInKJVKNvllKBSSY+RyOZkUgF4cYHR0VKSUlUoFLpdLMmkDgYDsPzw8jOeeew5PPPEEJiYmpGTxwG5+G4D6LWoEJYL76uoqvve972F2dlYkffPz80LJaIDt57mbprfTYOe0nTk2/boZHOVKIxqNIhqNXpKVqYOqJqDX63UsLy8jnU7bAJtSx05nsxqiWXhLc+qaC6/VauJVcyVEyoJer35PTw6aY6cShjEDBnlbrRaKxaLQKeTCY7EYut1eUwsmlfFaIpGIePW8Ti01dLvdiEajwven02nR5NOjHx0dRaPRQDabhdvtxvT0NB555BE88cQTePjhh0UJs9VnO7Cbzwagfgub9lxbrRZyuRxef/11nDhxAhsbGygWi9jY2MDS0hIymYytnGu/ui5mcJX/O33xnTx70yPnNgSiYDCIWCwmVITep99vesm5XA4LCws2jT65bNIdOtmH5yOwElSZUerz+YTnNu+l9typRGFSE2uca06b4Fyv122xhng8LtfCCZhyQ64SqPThCqRWq8m5vV4v4vE4vF6vTD6caDqdjqxwqOOv1WpIpVLweDyIRqMYGxvDQw89hIcffhj79u3Drl27JBNUf/Y7meQHdnPYANRvAyNgMJD27rvv4uWXX0YqlZJCWOvr61hcXESxWBSv1FTCOKliNKhvNQHQtFKH3jJpllgshmAweEkQtB/lAmwGLlmtks0t9IqD1IFZylYnE1HlQtmgLu5Fz5ngX6vVbM2cqRQBeisFXYOchb94jdSjl0olW2Evr9eLkZERWJaFfD4vtAnHm0gkbKuiTqdXM143w47FYhgfH0ej0UAqlRKJZKfTa249PDyMRCKBQCCAkZER3Hfffbj//vtx4MABycbdKhFtYO8PG4D6bWAmKLbbbaRSKbz88st47bXXRObXarWQz+exsbGB9fV15PN51Gq1S8C8n/fmRNtob5x/UwMeCoWk3rnWS2sFiAnm+u92uy0rjXw+L545z0M5Hvfz+XwIh8OwLAv1el0CxhxzOBwWFYmufEjPm8lKgUBAvP9sNotqtSrXH4lEMDIyIgFQ8tYMlDLQSDVPp9ORVRPQ471jsRiSySQ6nQ7K5bJ43fTQh4eH5X5Go1G0Wi1ks1nk83lRpSQSCcRiMcTjcfj9fkxOTmJmZgaHDx/GXXfdhV27dsHv9wttxPs6APX3vw1A/TY0AmKxWMTi4iJ+8IMfYHFxUcCDgNZsNoWiKRQKonMGNjNCNdiaQVG+RvUGg4SkApw4fK0Y0cc3J6VyuYzl5WWkUilbWz+32y18Mz1lerb1et3Gp5PTbjQayOfztgbJ5PNZ1pdeNT10cuZcWQBAPp+XCbLT6QjAezwe5HI5afhMcA4GgwB6csVQKAS3241SqSTHcLlcCIfDGBsbg2X1imrF43EJtEajUdx7772STBSNRjEzMyMrArfbLdQQVTn8IVfebyU2sPevDUD9NrZ2u416vY6NjQ288cYbOHPmDNbX1yXwp6V/7XZb1Bzkhrm8N/tR6uCaz+eD3+8XIDG9+e3ULJo6YpLMxsYGNjY2bC3kSKfQI6bXqYGb1RjJwVPtwSAm9+PkxkCk3i6fz8u9IX0Ti8WEViF4UvVCDTs19olEQu47644T1C3LwtjYGEKhkKwMpqam5D1OEqSsuGrgxOlyuQTAtVJloFq5vWwA6rexaa+40WhgdXUV7777Ll599VWRAmrANgOUWl2iKRMntYsG5614cv26Vo5UKhVsbGxgdXUV2WzW1i4tEolIoBLoKVcqlYp4vAS6YDCIaDSKer0u1JKudhkOh2V/9vvM5XJoNBoCoj6fT0CXHje9f5/Phz179mBqakpKGYyOjmJ0dBRAr5Tt8PCwBDaZ2EPOXU9COp5hetPanDzr7aSpA7u1bQDqAwOwSWuQcjlx4gTefvttpNNpCRqaQKMfna34b3MbDdYAHDl0ctnFYhFLS0tIp9NSt4RSPVIaBHOWkQ2Hw3J8ZnFydQFsBj6TySQASFCSqwjKFZnwQ0UINeL79u1DKBSCx+NBMpnE5OSkrTiY1uP30+qbAWOnmMXABnYlNgD1gV1i9XodtVoNmUwGFy9exNzcnJSqpSxQgzIAR69bv67fc/LWyWfX63UUi0X5qVQq0tWI2Z+kOJjMw4CjWeUwFApJjRjSQJwUGKD9/+3dsYrDMBAE0CktUCHZjf//o1y5NsYGgRq7UHPFMWKj5C7pAmIeuDIp0kyU1WrlnIP3vm5gcjXPVkiexuWcGdspw38KNsxFvk2hLk/sfBi2QaaUsK4rlmXBvu812NkhwqC2gQ28HuBlH25i3veNlBJyzjjP8+GmHfZaM0gZtOyzjjHWFfU8z3VQlXMOwzDUh0HNGn87+5zajUP7HdpN3VefE/kmhbq8ZY/Bl1JwHAe2basnUnPOuK6r9l634wcAPBwwYqmHQ7HYdjhNE8ZxBACEEBBjrBdgxBgRQoD3vq68Wcu25Y2/Wi//eyfSE4W6fMyuzHlAhxc/l1LqoRm2ErahzvIGB1/ZYOZ9mCxzsKxhSxt2Vd3WrUXkl0JdPtZ2uLQlFoZrW2+3GNRkWyHbHwG+56USbdlDYS7yTKEuItIRbdeLiHREoS4i0hGFuohIRxTqIiId+QFVT+ifWBDo+gAAAABJRU5ErkJggg==;" vertex="1" parent="1">
          <mxGeometry x="60.87" y="312" width="115.18" height="130" as="geometry" />
        </mxCell>
        <mxCell id="dJKhebVKaJdOoa_LvXo7-8" value="&lt;b&gt;&lt;font style=&quot;font-size: 13px&quot;&gt;Fitbit Charge 2&lt;/font&gt;&lt;/b&gt;" style="text;html=1;strokeColor=none;fillColor=none;align=center;verticalAlign=middle;whiteSpace=wrap;rounded=0;" vertex="1" parent="1">
          <mxGeometry x="67.63000000000001" y="266" width="100" height="45" as="geometry" />
        </mxCell>
        <mxCell id="dJKhebVKaJdOoa_LvXo7-9" value="" style="shape=image;verticalLabelPosition=bottom;labelBackgroundColor=default;verticalAlign=top;aspect=fixed;imageAspect=0;image=data:image/png,iVBORw0KGgoAAAANSUhEUgAAAEIAAABKCAYAAAAPB4KFAAALxklEQVR4nO2bbYwd1XnHf885M3df795dVLzGBBtju0RxUtmBOi6qqqpx1YAbLIQUqyKp6opEaqqSCJy0aRUhtSlIfGjV0FqgRsKhTmI5VkO2alUFQZQXlFhICS9FkCyGsNCYtbNrr2Mve+/MnKcfzszce3fv7n2Ndyvt35r17j1zzj3nP895Xs/IzPzbyjowqz2BtYJ1IlKsE5FinYgU60SkWCciRdDW3fr/wNKKdNStLSIkvdYyXIf92pMIBHSNUyGdSW1bRKgCKhhjcG6tbpPE/0ySdJ4Oa23TXu1tDbEYsRhjsQakw/34q0RMBREw1hJHUU6GMSvbhbaIcE55+qmnOX78ODMzM+gaVJ4JFUZKI9x+4MPsv+02+vr7EWluHKWVoEtVQYXHjx7jbz//BS5evIhznaqlKwABaw0f/eM/4oEHvsBQcYikiRptyY9QVS7MXeDRRx5l7sIc6hSUNXoJOHCx4/hXTvDicy9AC/qsKRGZHoiiiLPTZ3Ni1jpUoVKJuHTpUktbo+kdXtHYfPG1JGQkhWFIqVRaojyNMRhjGB0dzdtEvNUREQqFAiMjI62vrk34rxS8qKyMFreGS4dbOqAxhjvvvJOJiQl27NhR1xaGIXfddRdPPPEEu3btQkRQVZxziAiHDx/m+PHjbN26tZVptA3V1i1bx7FGtijwZAwODtLf379oIsrw8DDFYpFSqZT3y/pmJi1JklU3xU2thnMOYy1vnznDLXt+h7lfXFpyT19hgE2bNjE1NUVSY02sdRQKBTZt2sTp06ezrySz2v39/YyWSpw9ew5Fe6h7FMQBjpP/fpLf+/3fRU28Yo+mfoSxFpd4PeH32lIzFEVl3ph6I11Itd05R7lc5vXXX1/Uw9+zsPAO0+WFdOu1tpebIxsnHUsUaw1xk6FbkghIRToRHvnnIxw9+jhvvz1dvUmXC8ca7byaSf4K4AQGhwY5cGA/hz9zLxs2XI0NLXETv2c9H5FinYgUTbeGaqrERAjUIE45c+YMCwvlmkSNoeHW0LDBiA4k6XriyyFBsNZwzaZxBgYLuCQmdgkmaDSXKloKulRB8PY/NAGDA4MEtoWu2jz87TViIAgshUII6h+kDWxTrdQSESIQBCEXZ+d49F8eYWLiPzh37hxNlZ5e+Z2nNmBgoJ+9e2/m8GfuY8eObThNmqbWWpaIKIr41y99iX/8h4cpl33MnzQLZlYjJDECAm/87A1mZmc4evQxBocGmhLR0iMzxnD50mW++Y0JyuUIgCRZGoEKi/6WTHesfBnjEz6t3Nv0cuKTVArf/94P+PGPnkekRxkqp45KucLU1Jt5nNAY9U6R1m2NRuLh3SjnsgfWi61UdagWLpcpL0S0knJu6ZutMSQaY6xFMKnyrD7t0sgo73vfb2BtQP0TgrHRUXbv2kUQZJxXJzU+Ps57dr4HI9Lj9LjmFk1V/fhN0HJiRhBUHYrDx6EuVaKWQ3/6Jzz55Le46ab3U7s3hob6+Oxf3sd//tcE+/d/CC+zMSIOSHjwwb/jxImvceO7t6Map+29uByo+twlCWhzc91mOn8p4jhmamqKV155hdnZ2bq2crnMqVOn2Lt3L6dPn84TqaqKiPDSSy9RLBaZnZ2ti2ZXAy05VABnz57jlj2/zYVzF6ud08kXCgXGxsaYmZkhjuujvCAIKJVKnD9/Ph9LRHDO5aH7YgK7XBKZPjIWvn7iq+z70D5iWTnWaC4RIqCKEZ9VstaSJF7UsoVVKhWmp6cbdo/jmJmZmbrPsn7z8/PMz883nUI3ECOel27NZ6Zo+vr7eO/O9+ZWY7UTKc0gAiMjRcauuqolRdyUCP/0hNLICHd97KMUiyXvH7ToI1zxSxSMzwz84e23ceO7f71hijFdHDhFVFp3sRXljjvuoD8c5stHj3L+/AVU12Btw/hEzO0H9vORj9zJcGmYKI7SB1cP7wB6xd1SgSeDix19oc9LigimhTT5FYcGiECclImTijfzBrQREZlEmKAVifD+AyIEgeXChVmef+F55i7M9dgJ6hFcgUJfyE037ebqq68icTFO3fJzTY1BUyJ8+l0JQ8tLL77MvZ+6jxde+B+cS9ZkoUedL/dd+65r+JvPf44DBz7sLccyEL/vW/UjhKhS4d5Pf5bjXzmJJm7tnp4xWdIWrr1uAxMTT3D9DddDg2q4pB4zKq252M45Lv7yIt/9znfROMkqJzUjCmJkCfOSxhC5uRXye/zf9WP0BCp5sv3M/57ltVdfwy4TfWY5dyctbA1EfO4hcVy+fIk8iqyVCFVEzJIKuYigThEjeZsxhoSqmy1G0nRgjyxQzYkeTcBgly8V1JDfltqXZTTO9u3bufvuuxkbG6v73BjDzp07OXToEBs3bqzzSoMgYM+ePRw8eJAwDFfdQWtORBrFeU7rWRURgiDg4MGDHDlyhN27d9e19/X1cc8993DkyBFuvfXWOolJkoT777+fhx56aEnNdDXQVfSpqiRJwlNPPcWWLVuYnJysa19YWODYsWMMDAzwzDPP5PXOzNqcOHGCyclJpqenV90CtRx9njt7jt9aFH0Cubhba/NKd4Zs0Y1CbGttfm+jIwedo6oPxMDJk19j3x98sAfRJ1UNHwYhRrKzEn6jJIkDJP0/m4hHdvKufoH+98Xh+uK+nULSf4jDWoM1AeqAJmnLlk7MOOcYHh7i5t+8GUQxVlIaOrlWQvdnh3zuTHEKQ8VhNmy82qfzm6B59AlYGzAwMMgn//yTbN12PY4VXNZVhvdnlLFfK/HxTxzihm1bV/Qs837tBF2h7eMnP5nk209/m7m5uc72tEKQ8v/YY1/mzam38qaBkQE+/om7KRaLHesLEYu1wi23fIA9H/AS7EuWKz/z9qJPB9aGGDEo2pFQiBMKEpK4hH0f3McPf/hs2gCjG0qcevYUG8fHOyZCxYAmOBeTuAhjBZckWFNYsV97J2+NkLiIRDo/1mExLFQiAhv4qDAf3DurcVQhTuKqJckrRy1CBRH1CRpJ0/mm10eQ0dQr1WzubUM1RgJfkMJSp6WMEwKxWCe5vDlJaIvy7FC6gpXWl7e6mRVZ9Lv4kH81FPGylGVmszYG8NLapdOThvVOHVu2bOby5XfIguChoX6szZ5NlnruzSEzSWsqAg3jmobKUlVxqgRBgFt89K/L4EhUcVGEsQGXf7mAqqRFWiVxEcXicH7sUBUk8H5BNzBiSJI493AbEdFQIpxzhGGYn4qLUi9Q6D6NL0BxaBDnICyEaZEWjPEnXUSEhYUy5XKZQqFA7KKuN7CqEoYhYRgCbRBhrMWlzH3xn77It/77yXTAzjdGFsJfc81GHnzg79l2w3b+7J6/YPKnpxGxCNA3UODfjj3O/PwlPvdXf81bb/0claze2jnUOXbcuIOHH344P0mTryQlpSERAjhNCG2Bn795hueefTH3YrsiQuDS9nkqZQeEvPrTn/GjZ58jCwRGx8aIooQ4Tnj55UlefeW1dMLdn7mKyg4SwahFcF4x17R3XQRuFZkDZgOT1oYcJhCqB1R9oAQOEcXY1Bfohv0aGGPysmXD9oaTrtHSWUap2wRSmjXHaQQkGFHU59JS50dTIhJEXNUp6gUL6Xf7F3Aaj9dYIgREDIENGB8fZ/uObVgxJEmyfPmsCaz1L8Rdd90mBgb7iOIyW7a8i/Oz59OZCsWRYYyFIDRs3nwtUdn5THO3foUImzdf510CdTSKwRqaT6fOi7IzEENSSRA1dHNGMvMKJBCwSl+hn3fmK/jcjAEMgqMw4L3PKFKSyBIIfk93AcWgJqRQsAShwbkYxPlRs/dIlgu6FCUrEBmxNZq2Q1EVrzCdujwQ1CzjXJN5FkkfghgEi3NJ146m5t+laUhes46VrIaft1Qn3KP8gw+gpEplNmbNS6uaVrX9VL0O6U0CLxtF809qsQaruKuDdSJSXDE/ohF8hYu0bmIQV816Z/beSUKn73u3g3WJSLFORIpVJkKqHmd+/rJ3hfF2sKo6IjNlYRj4tJrzbwEsPnVwJfB/nM+bq1wliDIAAAAASUVORK5CYII=;imageBackground=#FFFFFF;" vertex="1" parent="1">
          <mxGeometry x="337" y="332" width="60" height="67.27" as="geometry" />
        </mxCell>
        <mxCell id="dJKhebVKaJdOoa_LvXo7-10" value="" style="shape=table;startSize=0;container=1;collapsible=0;childLayout=tableLayout;fontStyle=1;align=center;fontSize=17;" vertex="1" parent="1">
          <mxGeometry x="549" y="123.27" width="90" height="83.46000000000002" as="geometry" />
        </mxCell>
        <mxCell id="dJKhebVKaJdOoa_LvXo7-11" value="" style="shape=tableRow;horizontal=0;startSize=0;swimlaneHead=0;swimlaneBody=0;top=0;left=0;bottom=0;right=0;collapsible=0;dropTarget=0;fillColor=none;points=[[0,0.5],[1,0.5]];portConstraint=eastwest;fontSize=17;" vertex="1" parent="dJKhebVKaJdOoa_LvXo7-10">
          <mxGeometry width="90" height="28" as="geometry" />
        </mxCell>
        <mxCell id="dJKhebVKaJdOoa_LvXo7-12" value="" style="shape=partialRectangle;html=1;whiteSpace=wrap;connectable=0;fillColor=none;top=0;left=0;bottom=0;right=0;overflow=hidden;fontSize=17;" vertex="1" parent="dJKhebVKaJdOoa_LvXo7-11">
          <mxGeometry width="30" height="28" as="geometry">
            <mxRectangle width="30" height="28" as="alternateBounds" />
          </mxGeometry>
        </mxCell>
        <mxCell id="dJKhebVKaJdOoa_LvXo7-13" value="" style="shape=partialRectangle;html=1;whiteSpace=wrap;connectable=0;fillColor=none;top=0;left=0;bottom=0;right=0;overflow=hidden;fontSize=17;" vertex="1" parent="dJKhebVKaJdOoa_LvXo7-11">
          <mxGeometry x="30" width="30" height="28" as="geometry">
            <mxRectangle width="30" height="28" as="alternateBounds" />
          </mxGeometry>
        </mxCell>
        <mxCell id="dJKhebVKaJdOoa_LvXo7-14" value="" style="shape=partialRectangle;html=1;whiteSpace=wrap;connectable=0;fillColor=none;top=0;left=0;bottom=0;right=0;overflow=hidden;fontSize=17;" vertex="1" parent="dJKhebVKaJdOoa_LvXo7-11">
          <mxGeometry x="60" width="30" height="28" as="geometry">
            <mxRectangle width="30" height="28" as="alternateBounds" />
          </mxGeometry>
        </mxCell>
        <mxCell id="dJKhebVKaJdOoa_LvXo7-15" value="" style="shape=tableRow;horizontal=0;startSize=0;swimlaneHead=0;swimlaneBody=0;top=0;left=0;bottom=0;right=0;collapsible=0;dropTarget=0;fillColor=none;points=[[0,0.5],[1,0.5]];portConstraint=eastwest;fontSize=17;" vertex="1" parent="dJKhebVKaJdOoa_LvXo7-10">
          <mxGeometry y="28" width="90" height="29" as="geometry" />
        </mxCell>
        <mxCell id="dJKhebVKaJdOoa_LvXo7-16" value="" style="shape=partialRectangle;html=1;whiteSpace=wrap;connectable=0;fillColor=none;top=0;left=0;bottom=0;right=0;overflow=hidden;fontSize=17;" vertex="1" parent="dJKhebVKaJdOoa_LvXo7-15">
          <mxGeometry width="30" height="29" as="geometry">
            <mxRectangle width="30" height="29" as="alternateBounds" />
          </mxGeometry>
        </mxCell>
        <mxCell id="dJKhebVKaJdOoa_LvXo7-17" value="" style="shape=partialRectangle;html=1;whiteSpace=wrap;connectable=0;fillColor=none;top=0;left=0;bottom=0;right=0;overflow=hidden;fontSize=17;" vertex="1" parent="dJKhebVKaJdOoa_LvXo7-15">
          <mxGeometry x="30" width="30" height="29" as="geometry">
            <mxRectangle width="30" height="29" as="alternateBounds" />
          </mxGeometry>
        </mxCell>
        <mxCell id="dJKhebVKaJdOoa_LvXo7-18" value="" style="shape=partialRectangle;html=1;whiteSpace=wrap;connectable=0;fillColor=none;top=0;left=0;bottom=0;right=0;overflow=hidden;fontSize=17;" vertex="1" parent="dJKhebVKaJdOoa_LvXo7-15">
          <mxGeometry x="60" width="30" height="29" as="geometry">
            <mxRectangle width="30" height="29" as="alternateBounds" />
          </mxGeometry>
        </mxCell>
        <mxCell id="dJKhebVKaJdOoa_LvXo7-19" value="" style="shape=tableRow;horizontal=0;startSize=0;swimlaneHead=0;swimlaneBody=0;top=0;left=0;bottom=0;right=0;collapsible=0;dropTarget=0;fillColor=none;points=[[0,0.5],[1,0.5]];portConstraint=eastwest;fontSize=17;" vertex="1" parent="dJKhebVKaJdOoa_LvXo7-10">
          <mxGeometry y="57" width="90" height="26" as="geometry" />
        </mxCell>
        <mxCell id="dJKhebVKaJdOoa_LvXo7-20" value="" style="shape=partialRectangle;html=1;whiteSpace=wrap;connectable=0;fillColor=none;top=0;left=0;bottom=0;right=0;overflow=hidden;fontSize=17;" vertex="1" parent="dJKhebVKaJdOoa_LvXo7-19">
          <mxGeometry width="30" height="26" as="geometry">
            <mxRectangle width="30" height="26" as="alternateBounds" />
          </mxGeometry>
        </mxCell>
        <mxCell id="dJKhebVKaJdOoa_LvXo7-21" value="" style="shape=partialRectangle;html=1;whiteSpace=wrap;connectable=0;fillColor=none;top=0;left=0;bottom=0;right=0;overflow=hidden;fontSize=17;" vertex="1" parent="dJKhebVKaJdOoa_LvXo7-19">
          <mxGeometry x="30" width="30" height="26" as="geometry">
            <mxRectangle width="30" height="26" as="alternateBounds" />
          </mxGeometry>
        </mxCell>
        <mxCell id="dJKhebVKaJdOoa_LvXo7-22" value="" style="shape=partialRectangle;html=1;whiteSpace=wrap;connectable=0;fillColor=none;top=0;left=0;bottom=0;right=0;overflow=hidden;fontSize=17;" vertex="1" parent="dJKhebVKaJdOoa_LvXo7-19">
          <mxGeometry x="60" width="30" height="26" as="geometry">
            <mxRectangle width="30" height="26" as="alternateBounds" />
          </mxGeometry>
        </mxCell>
        <mxCell id="dJKhebVKaJdOoa_LvXo7-23" value="" style="shape=table;startSize=0;container=1;collapsible=0;childLayout=tableLayout;fontStyle=1;align=center;fontSize=17;" vertex="1" parent="1">
          <mxGeometry x="554.74" y="332" width="90" height="69" as="geometry" />
        </mxCell>
        <mxCell id="dJKhebVKaJdOoa_LvXo7-24" value="" style="shape=tableRow;horizontal=0;startSize=0;swimlaneHead=0;swimlaneBody=0;top=0;left=0;bottom=0;right=0;collapsible=0;dropTarget=0;fillColor=none;points=[[0,0.5],[1,0.5]];portConstraint=eastwest;fontSize=17;" vertex="1" parent="dJKhebVKaJdOoa_LvXo7-23">
          <mxGeometry width="90" height="20" as="geometry" />
        </mxCell>
        <mxCell id="dJKhebVKaJdOoa_LvXo7-25" value="" style="shape=partialRectangle;html=1;whiteSpace=wrap;connectable=0;fillColor=none;top=0;left=0;bottom=0;right=0;overflow=hidden;fontSize=17;" vertex="1" parent="dJKhebVKaJdOoa_LvXo7-24">
          <mxGeometry width="30" height="20" as="geometry">
            <mxRectangle width="30" height="20" as="alternateBounds" />
          </mxGeometry>
        </mxCell>
        <mxCell id="dJKhebVKaJdOoa_LvXo7-26" value="" style="shape=partialRectangle;html=1;whiteSpace=wrap;connectable=0;fillColor=none;top=0;left=0;bottom=0;right=0;overflow=hidden;fontSize=17;" vertex="1" parent="dJKhebVKaJdOoa_LvXo7-24">
          <mxGeometry x="30" width="30" height="20" as="geometry">
            <mxRectangle width="30" height="20" as="alternateBounds" />
          </mxGeometry>
        </mxCell>
        <mxCell id="dJKhebVKaJdOoa_LvXo7-27" value="" style="shape=partialRectangle;html=1;whiteSpace=wrap;connectable=0;fillColor=none;top=0;left=0;bottom=0;right=0;overflow=hidden;fontSize=17;" vertex="1" parent="dJKhebVKaJdOoa_LvXo7-24">
          <mxGeometry x="60" width="30" height="20" as="geometry">
            <mxRectangle width="30" height="20" as="alternateBounds" />
          </mxGeometry>
        </mxCell>
        <mxCell id="dJKhebVKaJdOoa_LvXo7-28" value="" style="shape=tableRow;horizontal=0;startSize=0;swimlaneHead=0;swimlaneBody=0;top=0;left=0;bottom=0;right=0;collapsible=0;dropTarget=0;fillColor=none;points=[[0,0.5],[1,0.5]];portConstraint=eastwest;fontSize=17;" vertex="1" parent="dJKhebVKaJdOoa_LvXo7-23">
          <mxGeometry y="20" width="90" height="25" as="geometry" />
        </mxCell>
        <mxCell id="dJKhebVKaJdOoa_LvXo7-29" value="" style="shape=partialRectangle;html=1;whiteSpace=wrap;connectable=0;fillColor=none;top=0;left=0;bottom=0;right=0;overflow=hidden;fontSize=17;" vertex="1" parent="dJKhebVKaJdOoa_LvXo7-28">
          <mxGeometry width="30" height="25" as="geometry">
            <mxRectangle width="30" height="25" as="alternateBounds" />
          </mxGeometry>
        </mxCell>
        <mxCell id="dJKhebVKaJdOoa_LvXo7-30" value="" style="shape=partialRectangle;html=1;whiteSpace=wrap;connectable=0;fillColor=none;top=0;left=0;bottom=0;right=0;overflow=hidden;fontSize=17;" vertex="1" parent="dJKhebVKaJdOoa_LvXo7-28">
          <mxGeometry x="30" width="30" height="25" as="geometry">
            <mxRectangle width="30" height="25" as="alternateBounds" />
          </mxGeometry>
        </mxCell>
        <mxCell id="dJKhebVKaJdOoa_LvXo7-31" value="" style="shape=partialRectangle;html=1;whiteSpace=wrap;connectable=0;fillColor=none;top=0;left=0;bottom=0;right=0;overflow=hidden;fontSize=17;" vertex="1" parent="dJKhebVKaJdOoa_LvXo7-28">
          <mxGeometry x="60" width="30" height="25" as="geometry">
            <mxRectangle width="30" height="25" as="alternateBounds" />
          </mxGeometry>
        </mxCell>
        <mxCell id="dJKhebVKaJdOoa_LvXo7-32" value="" style="shape=tableRow;horizontal=0;startSize=0;swimlaneHead=0;swimlaneBody=0;top=0;left=0;bottom=0;right=0;collapsible=0;dropTarget=0;fillColor=none;points=[[0,0.5],[1,0.5]];portConstraint=eastwest;fontSize=17;" vertex="1" parent="dJKhebVKaJdOoa_LvXo7-23">
          <mxGeometry y="45" width="90" height="24" as="geometry" />
        </mxCell>
        <mxCell id="dJKhebVKaJdOoa_LvXo7-33" value="" style="shape=partialRectangle;html=1;whiteSpace=wrap;connectable=0;fillColor=none;top=0;left=0;bottom=0;right=0;overflow=hidden;fontSize=17;" vertex="1" parent="dJKhebVKaJdOoa_LvXo7-32">
          <mxGeometry width="30" height="24" as="geometry">
            <mxRectangle width="30" height="24" as="alternateBounds" />
          </mxGeometry>
        </mxCell>
        <mxCell id="dJKhebVKaJdOoa_LvXo7-34" value="" style="shape=partialRectangle;html=1;whiteSpace=wrap;connectable=0;fillColor=none;top=0;left=0;bottom=0;right=0;overflow=hidden;fontSize=17;" vertex="1" parent="dJKhebVKaJdOoa_LvXo7-32">
          <mxGeometry x="30" width="30" height="24" as="geometry">
            <mxRectangle width="30" height="24" as="alternateBounds" />
          </mxGeometry>
        </mxCell>
        <mxCell id="dJKhebVKaJdOoa_LvXo7-35" value="" style="shape=partialRectangle;html=1;whiteSpace=wrap;connectable=0;fillColor=none;top=0;left=0;bottom=0;right=0;overflow=hidden;fontSize=17;" vertex="1" parent="dJKhebVKaJdOoa_LvXo7-32">
          <mxGeometry x="60" width="30" height="24" as="geometry">
            <mxRectangle width="30" height="24" as="alternateBounds" />
          </mxGeometry>
        </mxCell>
        <mxCell id="dJKhebVKaJdOoa_LvXo7-36" value="" style="shape=table;startSize=0;container=1;collapsible=0;childLayout=tableLayout;fontStyle=1;align=center;fontSize=17;" vertex="1" parent="1">
          <mxGeometry x="765.74" y="260" width="90" height="70" as="geometry" />
        </mxCell>
        <mxCell id="dJKhebVKaJdOoa_LvXo7-37" value="" style="shape=tableRow;horizontal=0;startSize=0;swimlaneHead=0;swimlaneBody=0;top=0;left=0;bottom=0;right=0;collapsible=0;dropTarget=0;fillColor=none;points=[[0,0.5],[1,0.5]];portConstraint=eastwest;fontSize=17;" vertex="1" parent="dJKhebVKaJdOoa_LvXo7-36">
          <mxGeometry width="90" height="25" as="geometry" />
        </mxCell>
        <mxCell id="dJKhebVKaJdOoa_LvXo7-38" value="" style="shape=partialRectangle;html=1;whiteSpace=wrap;connectable=0;fillColor=none;top=0;left=0;bottom=0;right=0;overflow=hidden;fontSize=17;" vertex="1" parent="dJKhebVKaJdOoa_LvXo7-37">
          <mxGeometry width="30" height="25" as="geometry">
            <mxRectangle width="30" height="25" as="alternateBounds" />
          </mxGeometry>
        </mxCell>
        <mxCell id="dJKhebVKaJdOoa_LvXo7-39" value="" style="shape=partialRectangle;html=1;whiteSpace=wrap;connectable=0;fillColor=none;top=0;left=0;bottom=0;right=0;overflow=hidden;fontSize=17;" vertex="1" parent="dJKhebVKaJdOoa_LvXo7-37">
          <mxGeometry x="30" width="30" height="25" as="geometry">
            <mxRectangle width="30" height="25" as="alternateBounds" />
          </mxGeometry>
        </mxCell>
        <mxCell id="dJKhebVKaJdOoa_LvXo7-40" value="" style="shape=partialRectangle;html=1;whiteSpace=wrap;connectable=0;fillColor=none;top=0;left=0;bottom=0;right=0;overflow=hidden;fontSize=17;" vertex="1" parent="dJKhebVKaJdOoa_LvXo7-37">
          <mxGeometry x="60" width="30" height="25" as="geometry">
            <mxRectangle width="30" height="25" as="alternateBounds" />
          </mxGeometry>
        </mxCell>
        <mxCell id="dJKhebVKaJdOoa_LvXo7-41" value="" style="shape=tableRow;horizontal=0;startSize=0;swimlaneHead=0;swimlaneBody=0;top=0;left=0;bottom=0;right=0;collapsible=0;dropTarget=0;fillColor=none;points=[[0,0.5],[1,0.5]];portConstraint=eastwest;fontSize=17;" vertex="1" parent="dJKhebVKaJdOoa_LvXo7-36">
          <mxGeometry y="25" width="90" height="21" as="geometry" />
        </mxCell>
        <mxCell id="dJKhebVKaJdOoa_LvXo7-42" value="" style="shape=partialRectangle;html=1;whiteSpace=wrap;connectable=0;fillColor=none;top=0;left=0;bottom=0;right=0;overflow=hidden;fontSize=17;" vertex="1" parent="dJKhebVKaJdOoa_LvXo7-41">
          <mxGeometry width="30" height="21" as="geometry">
            <mxRectangle width="30" height="21" as="alternateBounds" />
          </mxGeometry>
        </mxCell>
        <mxCell id="dJKhebVKaJdOoa_LvXo7-43" value="" style="shape=partialRectangle;html=1;whiteSpace=wrap;connectable=0;fillColor=none;top=0;left=0;bottom=0;right=0;overflow=hidden;fontSize=17;" vertex="1" parent="dJKhebVKaJdOoa_LvXo7-41">
          <mxGeometry x="30" width="30" height="21" as="geometry">
            <mxRectangle width="30" height="21" as="alternateBounds" />
          </mxGeometry>
        </mxCell>
        <mxCell id="dJKhebVKaJdOoa_LvXo7-44" value="" style="shape=partialRectangle;html=1;whiteSpace=wrap;connectable=0;fillColor=none;top=0;left=0;bottom=0;right=0;overflow=hidden;fontSize=17;" vertex="1" parent="dJKhebVKaJdOoa_LvXo7-41">
          <mxGeometry x="60" width="30" height="21" as="geometry">
            <mxRectangle width="30" height="21" as="alternateBounds" />
          </mxGeometry>
        </mxCell>
        <mxCell id="dJKhebVKaJdOoa_LvXo7-45" value="" style="shape=tableRow;horizontal=0;startSize=0;swimlaneHead=0;swimlaneBody=0;top=0;left=0;bottom=0;right=0;collapsible=0;dropTarget=0;fillColor=none;points=[[0,0.5],[1,0.5]];portConstraint=eastwest;fontSize=17;" vertex="1" parent="dJKhebVKaJdOoa_LvXo7-36">
          <mxGeometry y="46" width="90" height="24" as="geometry" />
        </mxCell>
        <mxCell id="dJKhebVKaJdOoa_LvXo7-46" value="" style="shape=partialRectangle;html=1;whiteSpace=wrap;connectable=0;fillColor=none;top=0;left=0;bottom=0;right=0;overflow=hidden;fontSize=17;" vertex="1" parent="dJKhebVKaJdOoa_LvXo7-45">
          <mxGeometry width="30" height="24" as="geometry">
            <mxRectangle width="30" height="24" as="alternateBounds" />
          </mxGeometry>
        </mxCell>
        <mxCell id="dJKhebVKaJdOoa_LvXo7-47" value="" style="shape=partialRectangle;html=1;whiteSpace=wrap;connectable=0;fillColor=none;top=0;left=0;bottom=0;right=0;overflow=hidden;fontSize=17;" vertex="1" parent="dJKhebVKaJdOoa_LvXo7-45">
          <mxGeometry x="30" width="30" height="24" as="geometry">
            <mxRectangle width="30" height="24" as="alternateBounds" />
          </mxGeometry>
        </mxCell>
        <mxCell id="dJKhebVKaJdOoa_LvXo7-48" value="" style="shape=partialRectangle;html=1;whiteSpace=wrap;connectable=0;fillColor=none;top=0;left=0;bottom=0;right=0;overflow=hidden;fontSize=17;" vertex="1" parent="dJKhebVKaJdOoa_LvXo7-45">
          <mxGeometry x="60" width="30" height="24" as="geometry">
            <mxRectangle width="30" height="24" as="alternateBounds" />
          </mxGeometry>
        </mxCell>
        <mxCell id="dJKhebVKaJdOoa_LvXo7-49" value="" style="shape=image;verticalLabelPosition=bottom;labelBackgroundColor=default;verticalAlign=top;aspect=fixed;imageAspect=0;image=data:image/png,iVBORw0KGgoAAAANSUhEUgAAAK4AAADRCAYAAABVeIn6AAAgAElEQVR4nOy9XZNkx3nn98vMc069dfdMz/QMXgYAByReCYIUAUkUJJG2HJTC4YuVI3whexW+cegT6NoO+yus904RcljhjdCFb6TQandJLa3VYilIFCiRFAERJAgQwACDGUxPv1fVOSczH19k5qlT1d1Vg24IMz2s/0RNVdc5VZUnzz+ffPJ5S+WcE5ZY4oxB3+0GLLHESbAk7hJnEkviLnEmsSTuEmcSS+IucSaxJO4SZxJL4i5xJrEk7hJnEkviLnEmsSTuEmcSS+IucSaxJO4SZxJL4i5xJrEk7hJnEkviLnEmsSTuEmcSS+IucSaxJO4SZxJL4i5xJrEk7hJnEkviLnEmsSTuEmcS2d1uwKcBdcz70n5W4UU6V7WO3a38fQVombS+aa+aPmeqgWq2vfdn9YH7nrgKQR1z70TFR3yd+KCF5jNeqSmifJrQosBPmKgUTSMlvjxE3Agfz1Mcc8IZx31PXCEwUrVFZ4uwXoFn8r6O5+jWe3cPMmloZGnicvuUmT+bgda63PsO9zlxFYKa3PfWDU2kdUyrA40UFlAiyF1UFgRQ2kEcfF6BU5PZQUm4JiUzqk0id2vmuN9wXxN3SsgmMs4cnz3Pt44rpdB47upUG3UBryNp261RRxBTzb5W3DVd558R9zVxp26XtHTCCM1kFp79jKggcZXc5alWHZb57QWkFg7ruVHlkcMrtfsG9zVx2/KpvZBpEzgJIz/zSTXnr08TAkcStyHtzEE18+L+k7UB9z9xlUxu3oz00QT14ciVOoCKOvJdmmrbhrC2VE36rW6zunUd9ytZ27iviTtZgQuaQNQ7uamJA4LCo1Dq7lBBmv8OG7WmBuPMgBTCDNKoO/ehvnB/ExeFR2PxaCUUymDiMWcto9GY/srKId13AnWEQX8afgEn9Ck436ytjjsorWdAnFCJR2WmsedlSqFRiEy+pf36rELdz4WdnQKrNA6PtzXGCzmaXBvwwdSlMtNIJ2mRJEzHCrVATfB+Vjuehtan96ofbtdEv3VlhclzMNFGpmFkHZU4EM9K0Wls03B/kBbuc4mrAI8FoGMycq3Q6DCPJk+ZC/f8aJErIMnSezTMsUciFhB7PlS04x3dNASMjiLXT8wfvUyhnFDXDvE+HLpL6s4/F+5riasQfF1itAZlAmGtgGstw6ydo/h6oOawzaGFRRLsVIRRod1HNTDptrWFIoekHkw9NM6CaBObog49n1UJfH9LXOcw4mFnF27eYvThR4y2dnHDMdrJxAbKYaEW3ncoVRP8a8f8xgJino4YGiFD0IdUhfZz41HLDd3zqwweuARXHoJzaxgMVTYhalJdzroEvq+Ji3ewtwuvv857f/f3/PSH/8TWBzfwo5LMQyYKY8whc9nEHOYQVSPqbhHXoHwGmENxB0lvFRFq76jx0MlZe2CDR554nKtPP0lx9Sp86ct4nTXtFJEzT1q434nrHPYvvsnu97/P26/+AzffegcZlvQw5B6U9eRZdshtOpFkHmvsXIf/osXXosXbPCjRGJejxEyHMs7OFOLx3uIyzfC9a9x8/wP46duUj17h+c9/AZ8XaK0PkXepKnwKCEsQacXOqsaM1Y6I0iIoH/XYsuYf/t1/gDd/wsE71zhfWS6vrrO+soZ4GA/HdDph1W1Eos2TGJij8FpwyiHqePLNJa5KxD0ZOZQYtC9AdOu9CWVFgckMXjx1XTGuS8a1xX/4ITt729y+cZ3nRyV9neM6GVZlODRaKUw7zldNOlDL5LtFyUKryt3CGSBuJKh4UBLCU9XEXOVqh9Ianwd7ZTnap5t3oPR89P/+CT/77vd51FoeznsUytNDI6MxBx6sMVReMCJ0nCPzHiUKrzSlMYiAFo+aszhTc8OvhNrVzLVKmOPtEoLg0Ui0XSjAxJhGrwSvhPFwn1wrVrSmj6PvQ3/s2yHja1v89f/6v/Gr/8vvYX7lBUwnZ6ey5DrMOJMwyTBQp+KQtUfiH/ciec8AcZlxGUm0u4fOzLI8GAfExQgwH0xQVc3+tesMVEbuLT1lKIzB1Zbd0Zi9okD6A4ZVhRah52xDXKsNIzK8UuTeYeZZFeY2W/Di5spbNceD4fE4JXgViKsFMq9QEogrymM6Gl2X2FJYBfpGB3+fr+gjcOMmbG6CdzhvgydRT5vYPLSmrskfgjT9fK/hbBB3Ho6zwe7s8N5775EXXXxZIZnBa8PO8IBb3lIPztG78iAXLl4EoJMsEECtDTrLcUqTuyCRj8M8HTFMt36+522ODiykDIw4jXsovIrTuQc8uzubDDc3qTe38UpTFB28cpQedF5wa/M2Bzs7DMoSnxuUMsGp1vK4nUWcfeJGiISo6mbqrWu2trY4nxU4J9RaoYzhQGnsuTUuPPcsl557lid+9aV4E/3EJqsNNsvxypC7uWuzhXZciTPEcXDueIuFKGkeCBiB3KnoZ/Ygnjde/Vu23nqLnX98g4OdPVa1xrua0nuybsF4PKaua4gLMqPNJGDH+TPLgDPa7OORZVkwu+Y53noyUWA9PtOMvVDmOWtXr/LkV3+djV96Ab74heD+kpbkM4YsKwADllMFYivF3OlWz7M6KA+qZdVIKRteQnu95ekLq2y+/iN+MqzZfe1HDL2grMeLkKkMY7IwmI2Jpr9JHKe3FrKzSYGz2eoWbFmRdYtg2kHi1K0gz4OpyzqMB42mdB6f51z+7GfZ+KVfhC9F0pro5EcAjdeGYRYM/12EbI7InCsxm9Sh47/A+vkS12tP0uq1CDmQI5gYi8Bzn+dir8/2j99m6ydvUe4P6Uq0GogizyNxW7Zb4ezHLJx94lpLRoFRBic1rq4xpgBiHEFV0xVFz2RU3qHyjLVLl+DBByHLGNmScYifioLNU2vNSDwKobJh0XYc5hEXFNZ7ZI7EnavjKnDKR0tKCPjJPGTek4mn4ywrvS5cfoDVy5chywEVrCrOYkUQ50IbrcVai0UwWYHSCpVlc3yC9zbOPHHbksM5h60qur0CXJRItqbQ0MkNqnKIVuS9HuQ5lBXFuXNICL1p1nlRSQCglxfkcyTmPGkqKKw7LXHDAs3HYBsjCiNB4hbOMty8Rd8Y8l4P0SEop8gzPAYngq3roOPGZ6cJd10DSjM3DuMexpknbm8woK5qfKEpsmKisyWvkFgEi3U1TixeZYyqMdQV9PtYEZwKE7r2oEUHTSPa/I33aLHH/n5d1xRFgbWW/f19lFIMBgOMMQxHYwYrazgvbG5ukmUZ6+vn2draZn9/n0cffYS94XDO1cWFWCSuKIVIUHOVeJxYijyHcUntHXmnAA3WVVhbYmtF1u0Gj1mW0e/1UWRhLWoFpdXRFpkzgDNP3PkQvPJ45fDa4bXH65Axm8SrxBcqrtqNb2cehPfmGeCLrBO8dFbo5V063S4Yw/72Nh98eJ3hqOTJp57i8sYGw4MDyuGItcGAXlEw3NtHz9E1g8Mharg6ZXNEt60KBg0fryNI5bYlYuJAuB9xX9cOEyU4LVgTn7VgNdjG9jupUqOi5wgvKA+5g8wDPuScHfdAZ1SVpawsedEFk4MT3vjxm/ynv3yZP/mTP+W1114HoNfrc3AwJMtzev0+t25tMlFQDj+UBIlvJNiYtXiUBC9BsPFGg0dUKVy8Xtd4GOeb4s4y7muJG25ucI26+OyjdIp2Kg5nZEmIg0hWI6FxABwJ6xhXNd57+iYDBe9ee5+Xv/3XfOOb32RzcxOP4uErj/DIIw+T5QWjUUmn08F5mav/ipJgEoPIZR0sJ7EsVMqJo/V3up570Ev7ieK+lrgJwYupWjc2mr+UJkUihEcMu9LSJFo6BAfHPqwIKsvIu10csHl7m+9+73v8l1de4ZXvfIc3336Lf/fN/8C3/uovcQpWz69yUI7YGx1w4fIGXnP8Qwm19ljjsNpjteBiYRAfSZvSQJVoFBolCi0aHdOO7lf+3vfETXlj4aHjzUwK7uTyJZqcUoS20+Aieeb900bT6/fo9rrs7e/x/R98n5f/y8v86I0fMRweoDPN22//lL/4i2/w6qt/x2g8AjwijrXVFWgNm9lHCKv01CapORKtDGkWiNcigbjaa4wPpNVeTVV6vN9wX6sKQfoosnhDg56og+VAdDOfptgSryZ6o9VpfeaiXnk0xHvyosA5x3vv/oz/8vJf8fJ//k98dPNDNi6t0+nk7A/3eeVvXubCxTV+93d/l6effposA6EOnrHjvhvBxkFkY1yMkjQYaQYjXoXr85rMa3IRvNPUfnGy51nFz4fEJUgg46dD92CSnpUoHKKu2t8gTMUMMP0oyzHOWUajIe+/f40ffP97vP7aDznY3+PSxYt0ioLV/grvvPUz/t2f/Tk/+N4P0GgynbG9tT0zI6gk+kGi+UtpBN3K7g0pR0GaTswjjRLUlI1SceBKs6CDdn2JuMhT4XWTxpR+6B7HfS1xRQHGgDYYFCbeYI8DqUFqlNUYrdHRherT4iyenRcdhqMhRVGQmYz9/T2cdXQ7Hbz3rK6usbu7y//3rW/xb/6ff8N3/vY79Lt9ut0u+zv75HnBcHfMAxcfoh57/q8/+L8Z7pf8y3/5L7l06RKbm7cZjkYURcH6xQs459jc3EREWFs/j69KQDAICof2MVxSGXxa3KmQrYGyiLLRcRGIb4SQEJoHZ4Mfj+l1umA0rhojWQYoMh+CxoNun0Ia5Z6NILvPJW7b3EW0mU4/NNKYmVT7/SiZR+MxznuMCWM8y3PyIqcoCjqdDgCvv/46f/HNv+D73/seZVly/tw5VgYD8OBqT68zYKW/hrfwztvv8Xd/+11++I//xMF+yerKec6trtPtDnAWwNDrr1J0+thaQhZEXGwZH+y6xifbciumU4Wwc5INN151kNCT6zKSyBhnkfh+sq1MTGz3QMG/ObjPiXt6pDwt5x1efBMmaK1lPB6zvb3NK6+8wre+9S3eevstAAaDAVmWMR6P2d/fxxhDr9fDGMPt27f57ne/yyuvvMLbb79NVVUYY3DOsb29zc7ODlpr+v3+3OyIn3csibsAnU4HEWE4HDIejzHGMBgM0Fqzv7/PH/7hH/Jnf/ZnXLt2jUF/QLfbpSxLxuNxyMCtg43XWktRFKysrPDBBx/wb//tv+WP/uiPuH37NlprVlZWABiNRlhrz3Qi46eB+1rH/SQgInjvUUrR6XSaQOzbm5u89tpr/MEf/AG7u7s89dRTPPzQQ9y8eZPrH3yAUipKzRqtNaPRiPPr61y9epUPb97gxz/+Me+//z4vvfQSL774Io9dvcLGxkW2o8StqorhaBTiD5Y4hCVxF8B7jzGGLAu1Cbx49nZ3efXVV/nGN77B5z73OR5++GG+9utfZdDv86d/+qd8eP06zjl0R5PnOVmWUZYlDz30EL/927+NKHjlb/6GW7du8ed//ueUZUne+a9Zv3CBbrdLWE/ZU6W23+9YEncBEnG11pRlyWg0ohyPyfOc9fV1fv/3f5+NjQ2ee/bzfHj9Ot/+9rcbdaGqKpQy5HnOcDik0+nwy7/8yzz73Of5xV/6JW7fvs3LL7+MMYatrS20MRSdgizPG714fsbazy+WxF2AsixRWjULqDzPubh+gSsPPczzzz/PysoKPjohRqMRo9Gokc7jUUmWGYqioKoqtra2Qhhkx/D0009TliVf+cpX0FrjxFNFfdg510j5ytZ3uwvuSZx54kok01gsKBVyzgDq+o5W5SIx0soHN6wX3+y44yXUPRAEa21T/GM4GqIkWA+CVA2Wh6qq2NnZaaQrwMHBAZ1OlyzLsNby0Ucf4V0oJGKMCUHeTAfF2JitEILVgvtXEeMtfQquCcmd1lqwFhczHbz3YFRTqSYNNkTw+JDOHy6czBiqT+Ae3A0srQqfANLq33vfPNJ77bJHaaEncvZzvu42lsQ9JdoF5KakXjyWjicVwEbpuCTu6bAk7inR2FvjtJ3stqmwnDEmWCOiLTc9lhaD0+HM67h3G41nzbnGo5Yyf0M92onErVPConP4pcQ9FZbEPSWSxE1qQCJmkrhaqymJm8itPoG9IX6esey9U6KtwyZp29ZxkyUi6bjp+FLHPR3uQOKGGxMihWIsUYxZbXKbmqyCELUkk4/F0LiT3qRJRmv6/vRNklJxVIgxVRIDEb0CbUAZam3CPmWp/TGwXM3EsqbExLSbjW+n+bba0aB1SMVMhKjmhlDDtI0PMbVNCSIe7x1eHN67UJBDHbEp68yf6cd0ChxvVcdJ+XSTbGUd491ULK+vqHWGUxl4g/YKqwQdd/ZzfvILrpX5AWBEx7BcPTcvbjGk6UKBQ+6U9M2pNnH7PY44P2EBcRW6nSjoFQqH4LEKrBI8YFQWu01hVGNuZP9gzLlB91Sl2ycNV83/6dtEgcoNzgkdY3CjCkYe+jl0V3C9ASrLsVVNVmi6JseXHuU15F1wgvWCVwrtfQi6VqG0pldhqm8X9FCxQar1uizHbGysMx5V/PSnb7OzvUe320cpQ11XCBXawMpKn9qW/OhHr/Obv/V1Hn3sUa69f51up0sIv0yBhao1OAXn6xDo7TXKx9gJ7aiVBxwmFIOIhM0QMrwCqxWlMXQ3HsbqAUgHxDCsR3hV0zMdREPa+a3Wk30mQuyybrrdnyq2UeEk5fOpQ+RtRIcI+JBtooXAO6VQrXa1sVDiht0JW79C2izDB9KSAR5XWapxjUFjsgInHlXXVCOYVxh50W8feyxdQJYxPhhyrjeAssQdjDDdVQ5u3uTm1m3Ot+Jxp3ssdFnK/J0QJxAmBFOnxMojGtJ8V1IVBGc93ieROSM3WlLXubDTz+HxfPhzqQ/C7JbarKKklbCHW7qGmDyZZkKvYPtgxO7+kPPDMaxk9DqGWusm1bIa7+FR1CbcJY0KFSprhREdZq0TCh4lQrdfoMVROxfKPWUZOpKx/VAKtNGT7bUCz0l102Yxl7iiJkV/m9QWwGkVtwoToCIXyBXQCRtthA8YKHqxNvsJVel5/dU61lntgxdMvxM2q5OaQcdw+eJ51LuhMEa75oDTAtrjdNgFLV1LSEWPBFAxfWbBRJlmk1kzV3tLplk92Fo7dc5xSHlwoEBP0o5SwiQzxT/S68nsJPQHBVkWqz76mjxXZDjSHSw6od4YKr2jUDmhEKAoOvpON5I96gI81CWIkGvIlYa6xotQiqcGil4/DrQoWU1MwY/ZF8dpmfOJi8RxmdoeUrUlfqMWT1+rsNdW7cF6KGsYjcPIyQzN3PpJYlYZqmpYWYXawd4Q+itw8yYPZ6ZVDVEmurnyk78FfByIoa9iKgwTvX0e0uKrqiqqqpoyhamWFIdgMquqirqug1t5oSRTzbBJBA5Liras8q1n3+iKxguFc1zUimLrNvz0TTi4AJmgjG72yGCwGtNDkloYpVUqrxrrDs/pgOOPiYf9XTAaiiI+OuiiQ6/Xo5dl1NbiTCgVMK0qpbrAR//2YlUBF4pOAKkeV9iOIXQMSsHuHrz9LtX719l6/zqbH97gYDyiYwx9NOYTsLU3ei2TaVCArMipxiW9ooNyHhlVXFhZY29zi73v/D0btQu665R2NUlXCeNRmqOSCBJT2RctTFSs59UmbntXG5jsbuOsbc7z3i/csScIVQ1pE5EoQUJyY0iCNPGhJSgJoYyUkHkY1I7RO++x/9d/i/roA8b9jB0sojWZV1A7CpMhKKxWuGhzNj6oC1pC3Yh5Ktu8axAljNwYMoPpdumsrHL+oYe48MST8PQz0O2QOwedApdPq0lCqtpzdLzJXOIGi4BHKfAyWT1rL2TOk1kH3uN/8Bo/+/Yr3HrjJ2xf+4DtW7dweM71+5iDknzRTs13gKRnt4nrFeRFqLqdGYNyHm09F1bWoHbYd35G9/IFbMyaTdIoCCwJN1gAHYkATaZtyulaNOa01ngfit/NStz03HZSJImbgtMXwYiKQT8xW1nCNGoiUTMfzCBJjQik1hiBzHrqrU0OXv8hW9d+wg6WPV+D1nTEBPK6EDhptcKlBZFA5iYVg0+aMek00C8Yecu4qnHGsPrAg3zmi1/iyV/7Nfqf/zxsbGCI1YWytMgP+YHiPEqbI399PnElbg0nk0LYWgTjPIXzUFq2//PLvP/K3/Dh3/wd6qNNelVFXo5RRcY5bXAHe6FzT4qWqE0vfYu4qtR0YoSWFtBO6Piajs4w/Q65F5zoZBRDRalE3FKqiISekhuxoAYoapm/qk4S9yhXblIVjtJx74S4OtbDDbYkFd8LkkxF8uZewE82pU6mSSUaI8LFfo64EXs7+3TEBmJrQxcTS5aqJivY6TDDBFUjDgQ9/97Ns0d7pcDXjONO9ftlyfjGJu/e2mbvw5t0/uH7/NLv/R4aRWYyxBi0UmjxUDuU95BnR5bAWqAqBD02GIQmeweElGcP1vFPL3+brVf/HvvGmzygNZcGA1xeMPKOfDymyPO5FQkXYcag0byXiFs5i9HBbJIpDdqT48mUp9ctsEpRG0OlDbUkE55qVp5ZqmCeZIsKtuDMh5toaZtVDiOpAe3IsPT+oWuJHrYpqbyga1Lxj3TzUgFq5UPKeuKVVwqrNbXRlDpcr9JCbyXH+ZpOkNdIZshNTkFQF+qygqgqJMsEhEGjEDI96ZujMH8PC4W1lvWiS7e/Qmkte1XN7sEBBz95kxu3t/ml/7mCosBYh/MSS/ZKFCwe8qO/e4GqACKeLMuo0Wg043JMr9sFgbf/9M946+//nivDIef7ffrDMUVZIVpRecfYWVSvP/fmLCps3CZuoy60JK4UBaKKaN+YOBAqAd/t4E2B73S5UZZ8ODzAPngJmxkYjuCBIjzH4nKNycmHpbsohWjPJNmbiR03tqWua1ZWulRVxfXr1xkOh3S7XYwxWGvpdHP29/dZWVkhy3OuXbvGzZs36XQKtrYsKpXnUBPT29Rg9dJsDwWB/AqPqFg5LMuodnY5EE/VKbjlLN47sk6ByzWj8QEKH1WBuHdbbcliiSajgxXINTV4429H4mp1uCzgFEfy4ymkBA5291DW0y0KsqqmW1Zkgz5ZVbF98wbf/Nf/mt/6P/536Haoy5JOrxs+nOdzF34LrArgo10hLWcwUfOxNW54gB4NUcMDus6FPba856C2DDOF7/XYqluLu6N+Y9F2S0ASem17cqMu+GCiSx0eqrxAWpA6saAVpsg40H3soMfQaKqqpNjfR3TWXKtEu2ESlh/HGDIbh9tGW/pOzruz721ml3gPJemySuEF9kYjsrpmmBtGKz1Y6eOtxWPJvA3FTiDeRdXUSjCEDQ21Ms29bSxILXMa3i0wBx5/zIjQ6Q/AOUxV0xFP32hq7xiNR+R5xvD2R7C7DWsDnIRtA7QO6tuJiYsSrDggo9lmLgOUh/KA0d42Uo6xw4NguO7k7FY1t8Vj1y7QvXKF9XMXsOr4TIR5el7bejBZfAQk4rpopE/Wy3SODqp5dHEquplhFU95bpWVq48hK31KJcEU1pTpDF40I9EtKvNkzTSSCnBUAHlCOyb3TsIahWizjRUaRYWavalckleKSjzdbkH24CXWn3sGc+kSRV0zrkcolQhK1H0nqkd6rbWJJkA1EU7hCgCPd/UdLFGPRuY9bneb4e1N6u1tznnhfCdDeYcvh2Smz/bmTdjfBh7E4YOFWUW/AMdP1gslbnr4aD7SWoE4qMaU+7sUhH0WlMnxmWG/qqhWVzn/7LNsfOF5rrz0a6EM0nFYFCU1ZU5oXUmynshkm9R0um6uWPC+RnmLygw4y46GwaOPkj38EE5njMZ1U64rFUPGC0alSXsxdZNVYXbR1SZt0oXbEWSL0Lag2HhRSoNIqsSokaIg7/fYeOoJBt0+a7Wj8I6xrVC5ibtS6slMFKVuImjyxjUVoqcUA8H7am4fzBuAhXPc+KfX2f/pm+z90+vonR1WM4PUDuUd/Vxza3wAtgIlmNxEtSzsLoT3x/JjoY47sa5Fw3Y6WNdIOaafGXIVbsxYYEcbsiuP8Oiv/hoXXvoKfOn5k++l1W6AzDxagkHPCu3mvLh/Q1XGDhDOlWPo94NOZcGr4FJJpPWp4POCEd80USmckykzV9OMmK7Ttiq0Y3Lv5PqbIkmpPZIMVEFK+ixDej06D1xmsLLGWtYBhFVbQq/DvgKngi3dRGkLNBuiSKuTU7G8thPARlIdh3nE7VrH5UsX6W9sMNzbY284ZKQgN5qMQNxCC2RBmQmbroBF8LHv9DGKynxGCeTaoBHEe4zOmgUDQO6FjlJ0swyjM0a1ZV8UVx55jAsvvAjPfxHyjDo7XqrOUxU8UEUlJUkM3ZKoosI+Yc1eCExUilSRUCvBe0tHZ2HTPp9Ri2Bry97BmJ7ptG4TTIrPt0fHfLRjbduqQiJu+7xE3DvNgFAiqXh6+JuJOiQorIeRcygUWZ6R5zne1uwrUEaz4yyepGKoaE4DSyCui4uISXVHaBPXIcxTyOcFxHcFHn7yaTo658YbP2b7rbcY1SWF0c22Vz2tA3HFkyuoidYEOJa0cAcSV6tAOmMdJg+b3YX014y+ydiuLB0VTCzbozFjpehcvARXHoOsgx2PqM3JFmdeQSnTxDUCbdNi5WwjkSa6WzjHaahzxbAcc97lrGjNCME6h8dSW0/PtMjQECSanETmLj6adrZicdsStn19swHnd0Lcxr4sgvfhGlOpVC1BF9RoahcGonFBXpVVyZ4t6RY546oKNulYZjVua9E4HOpoDkykTepE6mK/QL+dN3N4L+yt9lm7/BDFpQeospy6Lsm0wQi40RizGhZvQd+y6EyjaofOi2az7KM8dwvDGlEmrnKCGBMVffg6I9MGV9lwwVqHIGltyLtd6PfAKLKiT/ZxluctiIIw8U3I2Ja4KLDOTV1Ym7xWQ5VrrAKlNabfJ6ur2P4irHqaQaAmCxhUrGSojuy0Q+1s2XHbA3EyrceHCM77mAIvzTWmc9rnxhZNLTZJC1RJx8NmfMpovK4Ro5GiQ0X4KecAACAASURBVKqUXvQGGFNg2rWBoQmUclphJaxekjRuS/PwI/M7IAUMHQUF3BqN6HUK8m4fRONEgclwHspxia88VGFUOueDFUsUQZlv98w0FizOQrCzd56O6aFNzl41ZDU3YDSjqkZpw2hcUpuCosjpO0XuPUgF2oZSm3cgttK02txQCcRxqR1M21ET3BGSKx0XB1Xl6KkCvLC3P26tnEsMKgR3k/zxOi5EoYolO9sDo/37zZpRhH6/4Nq1a7z11lucP3+ebrfL7du3WV1dRWeK7Z1teoMBnV6Xnb1dPrh+nYPhkCzLqWpL2447GxvhU5BQvMzoKGvUfhdqk2IwKK2prAWd0TMZdmxx1uFaloTJ904PEifMyNZwtq0dcPz9m2/OFHwmjKuKjoeBLrBO2K8tzoRFpRcDRR90Rukd3bxAsGGH0CI/WXQYJPufjnsvBkU/hvW3Olo1l9rUY1WxVqtMOuEkaFG2sem2r+Uod2D7uG78tTOG/XR9Kr2jpo6lj91pJfokbackLmkAyhRJGg9bWggyTaJ2OyVO3LPro/TntEe2dY1JuqbtAtRh2RUG4nHEi1NaGiEngCjwOkR5aSEGWymc0nil8TFjI2wkE96PihWexld7JJY5Z58AvKfRXds6bnv2gImee8dWhSWOxZK4nwCckyk7LnDIWyYiMZLMN6azJU6OZXr6J4A2GWclbkignBQIEZnYfE+Ti/fzjqXE/QSQ1ISkKiS0a4olidsm7hInx5K4p0S72MdRsQpwtI6byuUvcTIsifsJYNaOe9TirP26Hbe7xMlwah03Ves+JGG8jx4fWZhBkD5z2I4bXIrz8r4Wrc4XEeTjfP4oO26v1+Odd97h2rVrGGPodrvNZ4qioKrHrK2tNSpCv9/n9u3bvP322zzz7Oe5cfMmedGh6HTRJuw51hTM05qyHAdzmFJHPlL7ZwdJW01p2t9KJ0rPZVninKPf74dC0lU1Vct3ff3iXHPYvP71CLWrp1Sl9DjtbHNPLM5mjdjTZqR7fzq9k8yHdGw2C2JjYwOlTfAUKY33EjJfYxG9fr8PMrERJxKkz6ffPWrgA41e3X6vTbbV1VWqqkJrzXg8Znd3l263y7lz53jwwQcpy3tTF7/rxD1OUpwV0iap17YotAnWJvKsjisiHBwc4Hyo6aC0Icvy4GG3FlvXrK6uoJgmbdvZcdxASb91dGHpSV8XRYFSiiLuR5wykNfW1lhZWaEstz6trvxYuKeI234vqQp3FOVyl5EyfFMsbiIITMgKNHbctLGJiNDr9aitwzqPNhl5XkDM1XJZxmg0avxhR031abuA4wRAQvv9tj7+/e9/n9XVVa5evcq5c+ew1jIajRiPx1h77zpJ7jnitjv4lN7iTw2JuEmPAw4Rty0FE3ET2tVwXEwXd86FndnzrJG4Ry32ZlWBWeIuqt3w7//9v+fSpUu89NJLfPnLX2ZjY6PZjDCoDf1PrqM+Qdx14sIxpJXjqkbdW1BKTRH3KFVhnsTd2dlBmwwdC3OESo6abrdLkechyEZ8k/aTnlMftW3HRxE3z/MpHTuVPk3tevPNN/nJT37C3t4ezjmeeuopBoMBRVEwHI7uTqfeAe46ced1usjpClx+WmgHkc8GkLeJ29Zx0/mDwYBOt0eWF4zLioODYbN9alEUXL/+AVrREC490u5Ci/pvti3GmCk14plnnuE73/kO3/jGN7h58yZf/epX+YVf+AUuXbrU7Bx0L+KO6+M2NpF2DlgrqqqxFTUHw7FURO44COnGtvcuv7cWZ21tUakYUJUuW6tJTYVotkpmvCbiLFbG0YQYU++DmVChqMoKRHGwP+TGjRu88867zf6+/X6fS5cvkmUZnU6Hfr9Pv9+n1+vR6RRkWTZlDjvKqnBwcDDJnki6cVQflFL8V1/7Kj9+40d89zt/y+atj1AIqysD+r0uvV4f52X+bZiT1jMd99a2I87Gwx3V0+1zDjdgcSB58yWxtAmxXlgMR3NO6HS6lOUYkxkMQlmOodtr1Z89/uJ8W5GNYX6t4YB18+NBP0k77VGw3k0TV1rtE8jyjK2dbW7cvMlgZQWdGQ4ODhisrrC/v8+g16ObdfGVw4vm/No6eMWtm7eoqyrYup2jlxdcWFvjr99+m//zX/0r3rv2Ls99/jlUrlAm7N+W5zlFUTTbrGqtuXLlCnmeMxgMWF1d5dy5c6yurjIYDMjznMcee6yRtFmWNY+0qcqjVx7gmac+y7s/e5zhcMjLf/UtXv3OX/Obv/mb/I//0+/ypV94kY9ubXLr1i3qumYwGNDv95uZY64dN1aP9N4h4vDeIuIRUXixSCrYp2aIPFWL4GjcocRtolSZGhXSruo9O5ISuSeFkY/CYmXg7kndWbmgiPG5qX8VwSLQKqHvk26uQuq3DtULgpgWEA/Oeax12NqR6SyMXhE6Wc651VXWV9e4oTKU99y6cQvRE1Wh7fBRSvH3r77aqA5HETuRNM9zOp0O3W6XTqdDURQYY3jsscf4yRtv4OqafrdLXddsbW7yyre/TTku+Y2vv8/lBx7kypUrrKysNFaHict6kcRd9Pc8yXv8d991HfesIwXMzMYqaK2R1pTcNv7bWLVxHPcETgusbrfLxsYGly9f5tq1a0GdiOX2xQvWWeqqnlIJut1Q+UW8UI5LxqNx+Lu9Tmgtyma9V39X/B1bW1uICOfOnaPIC7TSvH/tffb3h3z40W1++Su/wte//nUuXryIMYbRKCzasiy7a8FCS+KeEikqrL3SbxOlLTt8sqFaacqN9nq9xgbc7w/Y2Njg0uXL9Pt9vPesDlbwHPacpUcibsKs/Ta9N2XDjRJfRDjY2wcgzzJsVaO1ZqU/aEI1v/e974XUrLrmhRde4NFHH2UwGNDtdhuLyt3AkrinxOxqvk1adMusp2O6kwqfceKpnQ2JjoTcNpNnDFZWWF1bJctznHOU9TgWcp52J6ff2dnZOdIxkZ6Hw+EhaZv0W6UUly9fRilFVVUMh8MmVsEYQ20dlbP8wz/8A++88w5vvfUWv/Vbv8ULL7xAv99nPB5/up3dwpK4p8RR0+9U9kOKM1CEOl5aT+/rQIx1iOqE1hodvWFJpVAtc1jzTHjv3OraYft3S5VYHaw0bTnKPby/u0eWZUGSOx9rUqRq7Ioiy9nd26KqKt5//322t7cpy5I8zxmNRmGD67uAJXFPibRaPypKDiZB5GiNMoGUHkEbgzYaLx4XXcXOe6x31FH9UAo6RWdShK81KJpi0XY6Oiz8kZJModvpBgnfcl6091qr65osy5rFWpZnjTcuzxTWOh5//HGefPJJXnzxRR5//HG01lOev7uBJXFPiUTYtrRtB7YEK0Pciy2pELHugdK6Od4uiGetxXqHUQqT5UBbkrZqMkTitS0O4ZE17Tk4OJhSX4qiM9XWdoKnMSbqtnHbVhRWhGeeeYZ/8S/+BS+++CIrKyuMx2PquqYoiiN16k8DpyZu2ydvjEGnom8SyjaFafD4z3+a8bQf9/NhQeWnzGEwbcs9ODjgmWee4Xd+53f44z/+Y157/TX6vT6PX73KhQceZHtri6qu2d3f46PbmwxWV/jKr/wKv/prv8ZgZYXdvT1MlnHloYfpdjJu3LzJ2+/8jIPhkAvr5xu1AY4OSBqXQZVwPgTqKGWnpPLu7m5jDiuKgq7JMFlOnucYY7h48SJvvfUWIrDSH3Dr1i02Nze5dOkSV69e5X/4nd/h6c8/y6OPPoq1llu3bgV3dFEszFb2SiBTjdUlDa50T7KT1pRjKXFPDWMM6+vrPPXUU7zwwgtUVcXt27dDgZA3f8oDDzwQLAh1xfn18zz+2c/y/Bef57HPfIa1tbWwACtLNm9vUpcVP3vnZ3z00Ufs7+/T6XRCdFgUCm0nQpLyD195pLHXFkXR2GjTOZ/73OemjicCp+OdTodvfvOb/OAHP+DW5m3Kquahh6/wpS99iWc+/yzPPPssDz38MP1+n/39YIFI1om7mWK/JO4p4Zzj/PnzfPGLX6SqKs6fP88Pf/hDfvzGG3ywt8vm5ibKaM6vr/P0s8/wKy+9xK/86ks8+uijaK3J85zhcMjO7i7D/QOsczx85QqdToeHHnyIc+fPT0nMRMw8z9Fac/Xq1SkHQ3okiToYDKZUiaSPJ8vC7du3+cEPf8h3Xn2Vg4MDHnzwQb785S/zG7/xGzz73HOsX7pIr+Upu1uqwSyWxD0lRqMR+eoqDzzwAL/4i7/I+vo6n/vc5/jxG2/w3nvvMRwOWVtb47HPfIbnv/RFnnv+Czzw0ENorfngw+uNnqi0ZnVtlS984Qv0Ol2M1jzyyCOsX9xAa3Oky1Zr3XiwZp0MSV1Ii6ij0n4A/umNH3Ptg+tYLzz6mat85Stf4dd//df58pe/zIWNi2xubbK/v09d12F3oxmJf7ek7pK4p4RzjvF4TJHlnDt3jmeeeYZHHnmEF194gf39/SD1Vla4sHGR8+vrdHpdxmXJ1s42e3t7rK+vgw5mp0G/T7/X58qVK/S7PS5ubLC1s9sEIh2K/ILGjNasJ1pZErNoS8v0+hv/8T/ywY0bfPbJJ/na177G1772NZ544gk6nQ5bO9uMy1DYWUQadSMR9m5mKi+Je0oURRGsAFVY3Xe7XQaDAY9cuRIsCI0zQlFby/7BAWUdcrxW19ZAhQAatApOCGPo9/toFHv7e9TO4oTGhNWOixARVldXm4XiUSHjybN1yMYbn0dVyWOPX+ULX/gCX//613niiSfIsozNzU1ufnSLS5c2msJ7SdKmFB9r7dKOe1aR5zlVzJRN02dauCil2N/fDzfa1qGypNGYPKPb7aKNCRFWBGKO7IhMBedCWdWUuzsMzp0Pe3/FuIeiKKZ+fzgcAhxSAdJzlmVzY3Zfeukl+v0+zzzzDFevXm0Wl3Vd04uZvz6ahdqkdc6dyipwWtzRHhCxdOxUON+h8MrJU2M3asxIc/T5BdFrdxVq5hmm25uiwFAKnYUFUvLfj0ajML0WOdY7fHzdiVtJ1c4yGg4biSUuRJYV3Zxu0cHmNX6o2NraQmnTWAZmwxLbOWftWIb0XjsLuH1eev3SSy+R5zkbGxt473n33XcZjUZcunSJhx56iN2d7UaPTTq1tZYsC4OvLMuP1Zezt1vNvBkDaIPTJcU+H4GFu6e7+JyRtqqkIa5p7wAjghePFR9iaJsdFOfH48qiwhgyfy/ZxXZaPzfyzs/b9VKBd4ftuG3Utgzva02VFipKoTtFPG7BGDITtmUqy1auGZq6sijAmCye77A2SFGdZ/RUb6r5ztmmJi5M663JNdxu6aK1Ux73KdveDtm8q6srrK4GN/HO9lbov/h9zglKGfI8DJayrJnX/aIEcYLyQQdvgnxMHFDx/cTOFJTkjcI7CeRURwu3O9iEmsmGLEzH/M7eyGYf7+m+O7HElZnvuVtY1ISPE5F6J98rM3/N//35U1bao+4kn5+tf3zcOccfnN5//tgZrD2Dt1p1dO5DwELizoryNtLGeJOtliYP2u/N+f550vS4MOPZc5Y4HgsLU887fsrObdTLdnJD/N5Dw0HClg+aWABa2ptgH8adEZeWZGwNm0TKROBmt8dWw09FvKjjzCX3nGP3sv78aWBR37Po+AKhs/Dz0191/PuJ1JGsJpIqbet7FO5snzOZ/EBarKXfS1LVMy112xL3RFdES005IU7z2fsJp5mxFvXhouOzh5vF/mwDZLIpTXsdpY5p48J9zhr78hHLwbaakPTbtk582hEvH+Oco5Au+ueWv4opQXPcOZ9KO9SEG42Q4wjiyx3lSt6ZqiBHLMRgWqdNU/pROu1SR72LWLTGWPBxOU7k3cnnW8Irzc7th9OthXwyfd3hQLojC/KR68qZRqXzGmvDMWQ/CU4jMH5upe09hvZ6Z5bADXHb5y64cXeg46pYQMJPM9R7nHjGZYl1llwJtqpxlaeXd6DTpRqO0UVnwcp1njkG/MwGfB8HSghtF45MNFwY6aRYeM68Depg8ecX2aE/zu8fqgypYobEnP6b//sKceF5TgObdh52cniyPDhkUnSbHwpFt0PWLbiN4BRp/9opK9WimeDj+eyOaH+/36dbV3RcifdCrixYB5UlzwxlVeHnFD6f6+uOesq8i/ByfMcrFYgrfrroXLuTFxHvXodpBZrPBrwIoBcEwSg1ryieImTHH/8d6e6k3dxS8A8qWJDFeXxtsWWFs4Eb1lpEK0SbyVe31kmJwMeuzPg4xD2m7XmWkVmL8kKGIlcaKWsYV3TXVkMu1ZyKgQszGBaVulwksZlIgfR8VCbB/YAjpec8zyAs8FwqJG6qd+znZ/uyFcCjELqdHGU9vqyR2iLW4a1DMg3GTDmZGrWz9XMntuMeamj7sgTK0Zi6LJFyjO50wy7llYXKknX7+KqcO6qtnZ90J3a+qrCIfKFo8uFz7hfStouQHPW8UMua77ONRvnFqgItgZDIq8SzttqjqwzOQ45uNqCurQOTndjWfqrwHgXYqsLVlsx5uiZnLe+QOYHSAhpXVtg5EjebO1WBtKbCI48vkLjWTQpWzOqAsFjHvNcxWx93ds+KTM/bWBRk7v41qrVl7DGfnxN5pr2jrzKyWihrTw9DnhXksWyqdhKcDS2vWtshkd77+Hbc5uKOabpAkeV0RVGIpd/pMpac8d4B3PgIHn2UwmRNdcB5F37c7zY607HnzPm8mgRuzIb8pdd3Gt10ryKFFs7W400xtwuJO1fkqegFPRlxjcDB1g7ZrS3K7T105eiIJhehjqRtOxtSwFZD3jlNWxjWONvs9rStgG7RoYNCVwplPeV4yEc/e5fOP77GuV6Pc48/Sm2OJ+6i/Hy7wKowT2IKUCPNRtXtohrp77OOlF7eRF61siDwgig7dzpeZFXwH0PHnX2dO8/tD65T/Oxd/PUb+L0DVnJPpsB4CdGFLc9V8tBqmbt0ARaaw1QU1QqvNFq1qzOqkDZickQ5nBOq0Zj9rV0+2tlm8INXcYXnglTkcyRub24wsuCsnfbIpZY16lQ4Gkwo4cpV45sGdNjNRqPwRlObjDLPKLOMKjNknS5ph/LpEX6UX/LTx1HCgyZqC8bDA3Ln6NQ1RV2T1RbspDCexLWtj+axJrU+kSyu5cP7qV/D94tKxJ5DXN+yKnhpngGMt+y/+WPqd96jvvEuen8bBjnoDBGN6Ayv4u7pHrKGwMmwG6tcHvHzC1y+CuWgrAWrFXihm6+Ar2Fnl4sPX+Fd61itPRu9VQqEB9cHZFKz++pfMnrz+2z/2TpK5uupx0EhaAmd4XQcKPGIltDJRZGzs7eDKgx5J2M4OkArWOl2UV7Yu70DTljt9dmqaj4qCp797/5bnvvvf5ty7Ty3x2UYlHEVnK47JcIEHXmOOnJKO+2iug42ps0ofHSFakRpHEEFuHjuPP29Pa6/8re89h+/ReejjzhvNA6PFaG/cp5aacYIjjB9Gx9iXRUebzyKIP0yrzA+EKnWGq8E56pJv3zc61MO8SOy4T4X6iH99ZyOaDwKyboMvcYXPRiOQBSZycCH9aIpuqEkszpaGVzogIA4peZBUY+x8FB06K+vI70eZeUYjS2ZhkJp+tZit27D3h6Zuok5oQdBCZio41qtoqclVPc2LeL2R/uYbo7pGNzBDso7iqKDrx0PZAVYYbXbJ7OOqtels72N39+j7HZAZY0l8pirP+LYp43J74eNTBSiNUqEcjiiu79Psb3D2uZtVm9+xIZW1GLxgL65TaU0hQGnFJlotHUoW2NtRdYzKDxZJG7uDIKh0hqvBWMEpY4fXPPULVGe3YPbFBpWVE7H5BgMY51TmYyxyVh78EHodgmG3DgIkmrpBTFH9/9iHVdAacgUWKD2dXhjpcf6lYfIzp2jPBizW1uMNgx6fdazAlWNqMqaQtXoE5qetMQQNxS6kbgqEjpOe3VNx1ryTCNiyQ/GaPEUFura4ntBTwv7NFhsnjV7MFhrIT/baXdNyab4qOuaWissDuU8mbXgweaaPM8odE4GSO2obY2Jwa9GJBLXI+LAGLwSvB+TxNVR0AusPp0xDLo9Vrt9jDKMrefAefa1MDaGp556AlZXSEqLNpAq0zvno3p6GPMlrpJGz1WAAUrrqLUn7/fRjzzMxlOfY1xbtrZ3qKuKjU6HbmdAT3fIXUWv0GhOZnJSApkPerVVKoZJJokb9DSPJ3c1upthvaXX6dMrcs51u1RVzYFzOBVSqzNhKm8ryzLOtk2BJv9s6rp0uGMaz6rOsU4gU/g8o8gKOibDdDqI9CmpETxahEwUmTMgsTif8lgnjW3hKMzfjkqhdUEn7+KUZr+u2S4rdo2mHPRQF9e58tyzgbjisEqHQaWTmmTJOdqzujCsEYj6X3JvBFNG3u3A5Ys8+xtf5YNej5+VY269/yEH4zHdqg76sbLk3hNk9ceHFkXmQil6p1oSlxAlrwBTZIxri4ijsiV1WXMh75CL4WB8QN4t0PipQhmf1H6y9wJmy5yGh0IjaA3V2OKUphRhVFf4ssYoRUdpjFEc1CNESVxPQOamddxeb75EnafjKjHUNUhVUYtjry4pC02xcZm1p5/g4uOf4cJTn4PVfsjty0zIeJYgaf0cFW3BPCmgFMo7dDzVJKO00bDSZ+1rL9Hr93C54cPX32B44xbD/RHUHqMFJ0NOukm7lrBYUKLxkbjJopBsfr2VPqMqwyqHtRrT6dBdXaWsam5s7/DY5YsYN6kangpZNPvpLpjq7nWka2lXRneisGJBYHc8Jls9R7W+wljD/mhMXdZ0lKLTKRgawauwMY0WwuJMFDYSN8+C7D4Oi4ibrXSwTqiUwxar9B64wKVnn+KRL3+J809+FnPlQcgNlfexMiWxXkMx12G3eHEmgvYhMswoyLVBxIUpO1Owvkr+4vM8vXGOh3/5y+x+cIPh5g6Ujk6eUdohok6mKjTEDWvqRk1obH1A3ikY1SVkYUrrKMVqVrD1/gdsZxnj/R36cyOYzjaOLuocjlVKU66v03/ySS59/gnk/Bq745LRcExXZ/R6PcZS4ZWPUhdMjDN0KhSgrssRJ12catEMihWc85Q41EqHwQMX2fjsY5x7/CpcvgxZHvRp48niDGjrCvKceRPiHUhcEPEo51FGk6OxCC6Sqcg1XFonu7DG+hefY70W2N4Hq6DbAeVOfOHAdMAmKVCzZWN1FnwFhQkrSGXAOi7+42tQ5Nz81jfJYoUY46VVQ9ZMRVadVczquMYYjI57rWlD/+FHufTCL3Dpv/l1+OxjIehmXIHpwMoK2FHwAqSMxtTfaVEk89P7mafjigIrIUfe19AxsNqF1UFYFGuD9xqlDKJcI2Cds41NXmipqe3rntcpwWDtUZ14mhdybciUwYtHZTkVDqVjNcAMyBV0LoA3sQPgxJEUU26/FnHb5jXx4Td9HaaEgxH0+/DE5/jB9euc857BHFXBQpAu4ifd0/p+WeB7PG393jupzxtcQBK5pfDxHzPesslGgeGcSms+2LrFg5fW4dkn4eK5EHKaFUAO1kK2Fqav5HtNnjLVFhQnRLvrVCzCocPixGsVwl11BhIqr3sBlLCyuorDY/LsWNfvQnOY19J4WlS0nSoBdJC4XmmSiVwp0CaSWAyICo6DE153cAOkER9XyjIRDiiwEmzM1ns6WkNuUJmBLKMyJurFP58QFFYrSqPD4M41Yx0KjRRiQINkCqsFF5dCUdwwqaegT0zepoAMYaM+UT4avWi+W6Gjp4xWTK6KkrYVuzCDxZVsoudCq0nlGgDtY6CKVqi4AlST5iLoJirupIO2GWxp15lk040XE9oXznV6UronBWno4wXlzwWCR0ww4kk7gzo9qQzk0U0fh9c+UbWBpFnzBHDEexKNqWFb2DgsRIU7GRvTZD+g8LElGuE4ZW6xxKURbvjA00Z0q+R6hUaR1mnfWpnEFyyIZT4eSpqpuu3Haus8aVERjknwwccAE+M5sZZyPyDYwSWYJFNMB5PeVHGtoCTdP9VEQUy2bJZW75+uLRqFlljmY7ZM0dRPqGNeT3DHm1A3I1NNi+90kUm6qckQRinIkAWhc8dDRPA6dp1Mq2KpvI+Jw0qLhDQVn3Q1IfPycy11NYG0hZNm29U0WzWEjTdVTCCoaXklA3wTXfdxEer6TqxATcpwIm3a5EU1HwjnqjCA9JHLsoA7rmQzuYyJdJ2SdKlBDbFSY+Z7XuZh8nUt/93M4uwwL+Nxr36uSQsEE2YjVEL/RaWrOR5N9SjRoNqLwHhCXKCfDM0wmeEEU5KvfUsTyZVMNO2jsNCOa5gmx1RZJTUhrRYmGpOk3iCuID/OxU7gUbj0CzEyrNFhibn5KoxLpzSeGHqZQuVO6Pi4fxDklif2iTJYojM4CT2CMHJqIiCUml1UnezXRVocTWI+Wg6aeATVqngkKXqNyQfj8VnMJ25kZ0utnbZOTWwdjS40aSST0XRCHSlJhyRvYVpVaceXQrByhOwGJtIjXUdr9B1aqSqmwj4XFcG4cxy3Jp49Zx6CTqjwzXUmpNlXWhc5kanpdQykjwNa+ZblIAoV3+rHlibW+vuE909NBHf6vtYCqeFH+vq2bt2cesxPL1AVVOuLjhPdqjmvmZGgiaMMA+xkFz6ZaCRGmEkzOpUESZt7QWkVTHJKcNqTKQ84tDgypTBKkymNFofy0tRlFeeRuEmeQoIa2JA2XHjIgj1+qpxvp1Wx/u7x178o5c270DaXFp4EV2wtnuTNb3patWy+cb7SKvQPmQGl6Iomj4tWpaGOAS15jP1wSdMKvspwFaew5abvkCjoms0Lkxoy+/0qHFOq/bnDuOPF2SGtclr0Th9VqTNPhzQCgzSIizwVw98gWi/iwi0qa35G+rRl3uwzTDqmPegSeROHT37b4peetNwkk5uqZlsfZ4mJI3F6caGiQUmlVZgO75rE7/DjceEcrEMIKJMkbsqMOLm69ymD6AAACt1JREFUNSVhaUngyTuHzjn6vMP4eVcClzijWBJ3iTOJJXGXOJNYEneJM4klcZc4k1gSd4kzibOd4noHOKrCS/s9KyEnS7ficQU1MYdJCJk/DovsuFqHCgZHlSpa/Pm0D1tym4fPhK0LFEpi+2Ns8WRzvmhCi+WYwp5iPn6fx2DiziDzi33cy1hK3E8R90u60L2A+17i3m1IdNjP7ly+JPDpsCTup4B5FQ2XOBmWxP1nRjvrdpa0S/KeHEsd958Zx0nbpdQ9HZYS958ZbR13Vs9d4uS454mbIsMghQCrmD0aI5paYXMh4U5an23C3JEYaB4KUykQHYOsTTSHKZQIOkb7p2w3tYBgC7OSmhDJGIA4oyos3PWGFCGmCCGNOqafKwwp6zocE0w4rkLKTKpr7FMoGR6nQ2mmVATR+OmY2NTmJrLsHjWX3dPEDf0ZbajRPqnju00la6WbyEFHitZX4AjFpmsPWQcbCwmvrp6n2x1gLTgyRqJxXoNTdJzDeEHhsCrtD/b/t3d2P3IcVRT/3VvVPR+7sYMTf8oOUpDzkED8J/AAr0j8p7zxiHhBQkLAQwSCKIlMIHGiCOy1d3emu754qKruWSc7VtYOmVn6SF7Jq5mdnpozt2/dW/ecFxB3qy5CPgJfD9iLCM/Ls2yzqxLyEcQsC5BJG9TghTLJkPCrntgFYlACDc609AQ0JoJEnGjx4EhAoLMxC4WkrFlgAvmoqDLMluXZvvyFSnLxmcHvEjtN3BFno2g5gEqdXK2PqSrawyH7JLS2oRFQ0azGkxKELJJsTYNRJYpBJWLE0wRBCGCKinedPzn3ys6PSEmkfN/Of8w20eQ84VJkp5LJEwxGQUE1YmKiNQZbztiKKKKKSKIVg7NNGXkaRxGi5EPpZ5ZWMkEjDFPb43DLKxsHeaXYaeLWw93PH/yWzTvY2UmQ57wDEpaEeodIQIMHtyL1K9T3zDRPCVd3w5gET47gzuTuVPRhq6pj2BKNcoyLW/PZsI0UomVUSYrqQVYZD6lMZgTP3ComenBr1HVocCgejT3WmDz9PM735C/+5rTrRhwYfvXcGu4idpq4MA7K1UxwIPPmSlMzwDKdvjEs4FyH69ckY4onQk/oVojvaRVS1xFMxIcIKRJiFoBzUiJujJw/JJ3NVbYhvGDCOcRtqUYkxJx7V1X3kCS3cCUSfc+ibdDoif0aokOiJ4SOzq9waqDZyHiKrvCZrLrevICz9N1t7DRxy5T5ANmYCRuG78qqq5QPZGPto0A0gpeEtYpVRa0Sg0OCp1WwRCyhWH+OrxlM8SowdRP4zYhbZuATVXBoS8Td6o+Xp5clacl18yyfSj67YIksrBKiR2KgsUrbNtA7QkijR1mdhanyXcOCjutUhVVeZr7sf4ndJi7jmKIMP8bPYTMXM3nkrO7h8v5MwMzmiHeYWUtrDQq4k2O6J4+xR0ccWouVoklGdkOMkj/gKDrcTc9D2CaWIduJ+aLnJ8l2V0KiYXP8P9cVFkTis6f4p0+Jq1MaVRaLBY1GPA6dz8vfH8lr4pgXpLqWm2JsaT+i7k4TF0biVumncSu2QV6KiMTmkJ2AV8VrgxdLUEOIidXpMf7RIxYff8x6Nufg3ltYY0uBqUz7CjSay2VEszUKbT/dlYhpuxr7tudHEXwpdzUhG7lIyZyRyCw4nnz2Gd0nDzl69AX+2QlJhYjBqcWrzXoTUhKplA1PaupT7y5xCAQxV2nObMx2EztN3M2awYDxrldKTAxHEGFj4yY5mrmQcC7hxOO8ozt6TGcsxx9+hBHL9dmS3mS/hKo9FgvpI4oky7YG4wuJG7frA2+VGZU8di8J2pBtnopmElEiTQo8/NvfWf/jn5x++i/030/wizlCwLmIm4NvNVt91TJi3agJjMoLDD+lzlAPnJ02Zy+NoWpQ73wJoveotaBK7Dq897S2heiZHSxRsSybBU3oaVF+dPUap1E4+uOf+fyDv/LRb36LV1ACkkLWbxAGZZzsCPb9dMYT2cBDU8rELXecWFQXNUU4OWXZe26sHI02yLPs6TCbt7iUbZ/SfAYpQog0TUvSHFWN1Syjz/NiAmWRJe1sxrA3xB0E2mqeSyavsTYfiFbJtdqq0TRvuXnvLl/87g+sTtaAY2HgSmM5RFj2juPOEbou58J4NIVBjzdK6URhSC8wyj4XpQSyrSqx/ekJMZmwbRgF/IKAyz5a9MenHKrlmrTMFwcwW+IlsbaJ9XzB1Tu3aK9dhVk7qIcLMIhTFMh4wcPmocpe7SL2grjCqNRY87HhFqealbUxYMxQoOdwwf33f8yXv/o1/njFuu9orHBolbk2LCIces+660iSUBymRlzKbVQKcS8cdmSjXfvtkci+X1qIWyNu0ERfDPeePj5i0cxp2yXWNLgEq+h5ppGvQuDuz9/h8M5NWMyK82gag8DGK5XG+MDdKKnUzHcz5O40cetHPihbp9G0pKYLUHr+NeqaItO3nPHGT97l7oP3sQ8/5ennD+lOjvCu44oRRPLjWmNAIlosRkczwZoq6IVlNimt2ot+9AlwMWSixVQ2VmnUFFS4fv1NFEMKwmmEFcJqNqdftnDlgLsP3uO1uzdhZsliUl9Xdc/rXCWe6qXnXL8qBu0adpq4MJKXDeKGjXRheFAIYGyW0SdCY+CHd3n/l7/g8Qd/4eRPv+erTz7k8ckzDkLPzLS5naqlk1R23vm1hNxT05eItvnCqkvQRRARHAZNMPMJm2Iu12miNwmvIBLxvaNfe/oIcblk/sYNlm/d5sqdG1x79z7cuAYGuhCxarN0U6ku1Np4JW9dzyivRtD5u8JeEHcUc87/zrR8ATGGFFyOSKVDJgCN0vzsp9y4fZMnP5ixvvU6qy8f4bseSQZFixRmJGnIB0qAYo5AVUq8MFL+Klz0jEoQIdg2VwJ8JMaAErLjo8mt6nXf43wkuATNjPbN67x+/21uvPsO87fu0Ny7DYs229mSMFK/SOPP3Hg4S9NIPh+3TVz5+8ROE1f4esStvz8DVSRKjrqq+ahg9Nl879oVwoP3uP7GguWDd0iP/4NZdxiXfSxCqrv0WKKMlrzW5jMCm67q3xZpo2lwAQQxhGaOJGHhI20IGAKJgDf5ehcHS0iKiiU1M7j6GvPbt2ju3YLDOcRAElgR6GNgbmqjZqznnlnjcuHVi+HVSa6+WkgIYQcvKyNXDopodC2HqhIVfNkRt5UX3hFSQGcWSATf07lIaA6w1rAkQOghOApbS0pQapbFxmgUhC4qsunixMtPu6iaNzmJ1SZfZygj5ik3H4YecN+BGAaZRRJrSaxnlmSEK00LwHF0OJe4OjvAArGLmEbzWQrJnTith94Fes3tGJt0a8v7+8JOExfG7lgtBY1tyvz/cYecSlG91B7LDs6X52mKmJIjjkFQRoO5M5/NxSsB3/wOLoqSe6eNL9CgQF0XZMNOq3RkomSbqEQqhtS5C5d9MzY2Z2y2e8ccN9XHw0vl6N8ldp64L4sXGehtd//efVz293cedjrHfRW4DA7p23DZ3995mIi757js7+88/N8Td9+nbS/7+zsPlzMBmnDpMUXcPY9Il/39nYcp4k7YS1z6ctiEy4kp4k7YS0zEnbCXmIg7YS8xEXfCXmIi7oS9xETcCXuJibgT9hITcSfsJSbiTthLTMSdsJeYiDthLzERd8JeYiLuhL3ERNwJe4mJuBP2EhNxJ+wl/gvPe3v2claL/AAAAABJRU5ErkJggg==;" vertex="1" parent="1">
          <mxGeometry x="42.91" y="57.75" width="149.44" height="179.5" as="geometry" />
        </mxCell>
        <mxCell id="dJKhebVKaJdOoa_LvXo7-50" value="&lt;b&gt;&lt;font style=&quot;font-size: 13px&quot;&gt;Rescuetime&lt;/font&gt;&lt;/b&gt;" style="text;html=1;strokeColor=none;fillColor=none;align=center;verticalAlign=middle;whiteSpace=wrap;rounded=0;" vertex="1" parent="1">
          <mxGeometry x="67.63" y="50" width="100" height="45" as="geometry" />
        </mxCell>
        <mxCell id="dJKhebVKaJdOoa_LvXo7-52" value="&lt;span&gt;&lt;font style=&quot;font-size: 13px&quot;&gt;Rescuetime&lt;br&gt;&amp;nbsp;API&lt;/font&gt;&lt;/span&gt;" style="text;html=1;strokeColor=none;fillColor=none;align=center;verticalAlign=middle;whiteSpace=wrap;rounded=0;fontStyle=0" vertex="1" parent="1">
          <mxGeometry x="328" y="83" width="72" height="45" as="geometry" />
        </mxCell>
        <mxCell id="dJKhebVKaJdOoa_LvXo7-53" value="&lt;span&gt;&lt;font style=&quot;font-size: 13px&quot;&gt;Fitbit API&lt;/font&gt;&lt;/span&gt;" style="text;html=1;strokeColor=none;fillColor=none;align=center;verticalAlign=middle;whiteSpace=wrap;rounded=0;fontStyle=0" vertex="1" parent="1">
          <mxGeometry x="334" y="293" width="66" height="45" as="geometry" />
        </mxCell>
        <mxCell id="dJKhebVKaJdOoa_LvXo7-54" value="&lt;span&gt;&lt;font style=&quot;font-size: 13px&quot;&gt;Spreadsheet table&lt;/font&gt;&lt;/span&gt;" style="text;html=1;strokeColor=none;fillColor=none;align=center;verticalAlign=middle;whiteSpace=wrap;rounded=0;fontStyle=0" vertex="1" parent="1">
          <mxGeometry x="559" y="77" width="100" height="50" as="geometry" />
        </mxCell>
        <mxCell id="dJKhebVKaJdOoa_LvXo7-55" value="&lt;span&gt;&lt;font style=&quot;font-size: 13px&quot;&gt;Spreadsheet table&lt;/font&gt;&lt;/span&gt;" style="text;html=1;strokeColor=none;fillColor=none;align=center;verticalAlign=middle;whiteSpace=wrap;rounded=0;fontStyle=0" vertex="1" parent="1">
          <mxGeometry x="532.74" y="277" width="100" height="45" as="geometry" />
        </mxCell>
        <mxCell id="dJKhebVKaJdOoa_LvXo7-58" value="&lt;font style=&quot;font-size: 13px&quot;&gt;ADW&lt;br&gt;&amp;nbsp;dataset&lt;/font&gt;" style="text;html=1;strokeColor=none;fillColor=none;align=center;verticalAlign=middle;whiteSpace=wrap;rounded=0;" vertex="1" parent="1">
          <mxGeometry x="230" y="107" width="70" height="45" as="geometry" />
        </mxCell>
        <mxCell id="dJKhebVKaJdOoa_LvXo7-59" value="&lt;span&gt;&lt;font style=&quot;font-size: 13px&quot;&gt;Heartrate&amp;nbsp;&lt;br&gt;dataset&lt;/font&gt;&lt;/span&gt;" style="text;html=1;strokeColor=none;fillColor=none;align=left;verticalAlign=middle;whiteSpace=wrap;rounded=0;fontStyle=0" vertex="1" parent="1">
          <mxGeometry x="237" y="322" width="67" height="45" as="geometry" />
        </mxCell>
        <mxCell id="dJKhebVKaJdOoa_LvXo7-61" value="" style="endArrow=classic;html=1;rounded=0;fontSize=13;exitX=0.999;exitY=0.271;exitDx=0;exitDy=0;exitPerimeter=0;entryX=-0.022;entryY=0.218;entryDx=0;entryDy=0;entryPerimeter=0;" edge="1" parent="1" source="dJKhebVKaJdOoa_LvXo7-89" target="dJKhebVKaJdOoa_LvXo7-90">
          <mxGeometry width="50" height="50" relative="1" as="geometry">
            <mxPoint x="220" y="160" as="sourcePoint" />
            <mxPoint x="320" y="160" as="targetPoint" />
          </mxGeometry>
        </mxCell>
        <mxCell id="dJKhebVKaJdOoa_LvXo7-62" value="" style="endArrow=classic;html=1;rounded=0;fontSize=13;" edge="1" parent="1">
          <mxGeometry width="50" height="50" relative="1" as="geometry">
            <mxPoint x="420" y="159" as="sourcePoint" />
            <mxPoint x="530" y="159" as="targetPoint" />
          </mxGeometry>
        </mxCell>
        <mxCell id="dJKhebVKaJdOoa_LvXo7-63" value="&lt;font style=&quot;font-size: 13px&quot;&gt;ADW &lt;br&gt;dataset&lt;/font&gt;" style="text;html=1;strokeColor=none;fillColor=none;align=center;verticalAlign=middle;whiteSpace=wrap;rounded=0;" vertex="1" parent="1">
          <mxGeometry x="440" y="120" width="70" height="45" as="geometry" />
        </mxCell>
        <mxCell id="dJKhebVKaJdOoa_LvXo7-64" value="" style="endArrow=classic;html=1;rounded=0;fontSize=13;" edge="1" parent="1">
          <mxGeometry width="50" height="50" relative="1" as="geometry">
            <mxPoint x="210" y="362" as="sourcePoint" />
            <mxPoint x="320" y="362" as="targetPoint" />
          </mxGeometry>
        </mxCell>
        <mxCell id="dJKhebVKaJdOoa_LvXo7-65" value="&lt;span&gt;&lt;font style=&quot;font-size: 13px&quot;&gt;Heartrate&amp;nbsp;&lt;br&gt;dataset&lt;/font&gt;&lt;/span&gt;" style="text;html=1;strokeColor=none;fillColor=none;align=left;verticalAlign=middle;whiteSpace=wrap;rounded=0;fontStyle=0" vertex="1" parent="1">
          <mxGeometry x="443" y="321" width="61" height="45" as="geometry" />
        </mxCell>
        <mxCell id="dJKhebVKaJdOoa_LvXo7-66" value="" style="endArrow=classic;html=1;rounded=0;fontSize=13;" edge="1" parent="1">
          <mxGeometry width="50" height="50" relative="1" as="geometry">
            <mxPoint x="420" y="362" as="sourcePoint" />
            <mxPoint x="530" y="362" as="targetPoint" />
          </mxGeometry>
        </mxCell>
        <mxCell id="dJKhebVKaJdOoa_LvXo7-69" value="" style="endArrow=none;html=1;rounded=0;fontSize=13;" edge="1" parent="1">
          <mxGeometry width="50" height="50" relative="1" as="geometry">
            <mxPoint x="670" y="160" as="sourcePoint" />
            <mxPoint x="670" y="360" as="targetPoint" />
          </mxGeometry>
        </mxCell>
        <mxCell id="dJKhebVKaJdOoa_LvXo7-73" value="" style="endArrow=none;html=1;rounded=0;fontSize=13;" edge="1" parent="1">
          <mxGeometry width="50" height="50" relative="1" as="geometry">
            <mxPoint x="640" y="160" as="sourcePoint" />
            <mxPoint x="670" y="160" as="targetPoint" />
          </mxGeometry>
        </mxCell>
        <mxCell id="dJKhebVKaJdOoa_LvXo7-74" value="" style="endArrow=classic;html=1;rounded=0;fontSize=13;" edge="1" parent="1">
          <mxGeometry width="50" height="50" relative="1" as="geometry">
            <mxPoint x="670" y="270" as="sourcePoint" />
            <mxPoint x="750" y="270" as="targetPoint" />
          </mxGeometry>
        </mxCell>
        <mxCell id="dJKhebVKaJdOoa_LvXo7-75" value="&lt;span&gt;&lt;font style=&quot;font-size: 13px&quot;&gt;Merged Rescuetime-Fitbit dataset&lt;/font&gt;&lt;/span&gt;" style="text;html=1;strokeColor=none;fillColor=none;align=center;verticalAlign=middle;whiteSpace=wrap;rounded=0;fontStyle=0" vertex="1" parent="1">
          <mxGeometry x="760.74" y="206.73" width="100" height="45" as="geometry" />
        </mxCell>
        <mxCell id="dJKhebVKaJdOoa_LvXo7-85" value="Data sources" style="text;html=1;strokeColor=none;fillColor=none;align=center;verticalAlign=middle;whiteSpace=wrap;rounded=0;fontSize=13;" vertex="1" parent="1">
          <mxGeometry x="96" y="4" width="60" height="30" as="geometry" />
        </mxCell>
        <mxCell id="dJKhebVKaJdOoa_LvXo7-86" value="APIs" style="text;html=1;strokeColor=none;fillColor=none;align=center;verticalAlign=middle;whiteSpace=wrap;rounded=0;fontSize=13;" vertex="1" parent="1">
          <mxGeometry x="328" y="26" width="60" height="30" as="geometry" />
        </mxCell>
        <mxCell id="dJKhebVKaJdOoa_LvXo7-87" value="Storages" style="text;html=1;strokeColor=none;fillColor=none;align=center;verticalAlign=middle;whiteSpace=wrap;rounded=0;fontSize=13;" vertex="1" parent="1">
          <mxGeometry x="554" y="42" width="60" height="30" as="geometry" />
        </mxCell>
        <mxCell id="dJKhebVKaJdOoa_LvXo7-88" value="Final storage" style="text;html=1;strokeColor=none;fillColor=none;align=center;verticalAlign=middle;whiteSpace=wrap;rounded=0;fontSize=13;" vertex="1" parent="1">
          <mxGeometry x="791" y="130" width="60" height="30" as="geometry" />
        </mxCell>
        <mxCell id="dJKhebVKaJdOoa_LvXo7-92" value="" style="endArrow=none;html=1;rounded=0;fontSize=13;" edge="1" parent="1">
          <mxGeometry width="50" height="50" relative="1" as="geometry">
            <mxPoint x="650" y="359" as="sourcePoint" />
            <mxPoint x="671" y="359" as="targetPoint" />
          </mxGeometry>
        </mxCell>
      </root>
    </mxGraphModel>
  </diagram>
</mxfile>
